<svg width="1440" height="1024" viewBox="0 0 1440 1024" fill="none" xmlns="http://www.w3.org/2000/svg">
<path d="M0 0H1440V507H0V0Z" fill="#2F3B52"/>
<path d="M935.304 496.35C960.211 489.697 986.319 485.712 1012.49 482.703C1040.27 479.513 1068.28 477.242 1096.36 475.868C1123.64 474.528 1150.89 474.403 1178.21 474.29C1203.34 474.176 1229.42 473.359 1252.78 466.036C1298.25 451.775 1318.74 416.704 1342.01 387.763C1354.02 372.833 1367.74 358.119 1386.75 347.321C1401.98 338.681 1420.62 332.312 1440.14 331.346V507H903C913.336 502.845 924.193 499.325 935.304 496.35Z" fill="#242E42"/>
<path d="M855.002 337.878L867.491 325.358L879.979 337.878L867.491 350.398L855.002 337.878Z" fill="#E2E9FC"/>
<path d="M855.007 413.485L867.496 400.965L879.984 413.485L867.496 426.005L855.007 413.485Z" fill="#E2E9FC"/>
<path d="M855 386.915L867.489 374.395L879.977 386.915L867.489 399.435L855 386.915Z" fill="#E2E9FC"/>
<path d="M855.008 361.723L867.497 349.203L879.985 361.723L867.497 374.243L855.008 361.723Z" fill="#E2E9FC"/>
<path d="M1013.83 142.61L1001.34 130.09L1013.83 117.57L1026.32 130.09L1013.83 142.61Z" fill="#E2E9FC"/>
<path d="M1089.24 142.605L1076.75 130.085L1089.24 117.565L1101.73 130.085L1089.24 142.605Z" fill="#E2E9FC"/>
<path d="M1062.75 142.612L1050.26 130.092L1062.75 117.572L1075.24 130.092L1062.75 142.612Z" fill="#E2E9FC"/>
<path d="M1037.6 142.604L1025.12 130.084L1037.6 117.564L1050.09 130.084L1037.6 142.604Z" fill="#E2E9FC"/>
<path d="M702.669 70.4383C702.669 73.4538 705.098 75.8883 708.106 75.8883C711.114 75.8883 713.542 73.4538 713.542 70.4383C713.542 67.4227 711.114 64.9882 708.106 64.9882C705.098 64.9882 702.669 67.4227 702.669 70.4383Z" fill="#CBFDFF"/>
<path d="M702.669 97.7028C702.669 100.718 705.098 103.153 708.106 103.153C711.114 103.153 713.542 100.718 713.542 97.7028C713.542 94.6872 711.114 92.2527 708.106 92.2527C705.098 92.2527 702.669 94.6872 702.669 97.7028Z" fill="#CBFDFF"/>
<path d="M702.669 124.953C702.669 127.969 705.098 130.403 708.106 130.403C711.114 130.403 713.542 127.969 713.542 124.953C713.542 121.937 711.114 119.503 708.106 119.503C705.098 119.503 702.669 121.951 702.669 124.953Z" fill="#CBFDFF"/>
<path d="M702.669 152.218C702.669 155.233 705.098 157.668 708.106 157.668C711.114 157.668 713.542 155.233 713.542 152.218C713.542 149.202 711.114 146.768 708.106 146.768C705.098 146.768 702.669 149.216 702.669 152.218Z" fill="#CBFDFF"/>
<path d="M678.729 70.4383C678.729 73.4538 681.157 75.8884 684.165 75.8884C687.173 75.8884 689.602 73.4538 689.602 70.4383C689.602 67.4228 687.173 64.9882 684.165 64.9882C681.171 64.9744 678.729 67.4228 678.729 70.4383Z" fill="#CBFDFF"/>
<path d="M678.729 97.7028C678.729 100.718 681.157 103.153 684.165 103.153C687.173 103.153 689.602 100.718 689.602 97.7028C689.602 94.6873 687.173 92.2527 684.165 92.2527C681.171 92.2389 678.729 94.6873 678.729 97.7028Z" fill="#CBFDFF"/>
<path d="M678.729 124.953C678.729 127.968 681.157 130.403 684.165 130.403C687.173 130.403 689.602 127.968 689.602 124.953C689.602 121.937 687.173 119.503 684.165 119.503C681.171 119.503 678.729 121.951 678.729 124.953Z" fill="#CBFDFF"/>
<path d="M678.729 152.217C678.729 155.233 681.157 157.667 684.165 157.667C687.173 157.667 689.602 155.233 689.602 152.217C689.602 149.202 687.173 146.767 684.165 146.767C681.171 146.767 678.729 149.216 678.729 152.217Z" fill="#CBFDFF"/>
<path d="M653.713 70.4384C653.713 73.4539 656.141 75.8885 659.149 75.8885C662.157 75.8885 664.586 73.4539 664.586 70.4384C664.586 67.4228 662.157 64.9883 659.149 64.9883C656.141 64.9883 653.713 67.4228 653.713 70.4384Z" fill="#CBFDFF"/>
<path d="M653.713 97.7029C653.713 100.718 656.141 103.153 659.149 103.153C662.157 103.153 664.586 100.718 664.586 97.7029C664.586 94.6874 662.157 92.2528 659.149 92.2528C656.141 92.2528 653.713 94.6874 653.713 97.7029Z" fill="#CBFDFF"/>
<path d="M653.713 124.953C653.713 127.969 656.141 130.403 659.149 130.403C662.157 130.403 664.586 127.969 664.586 124.953C664.586 121.938 662.157 119.503 659.149 119.503C656.141 119.503 653.713 121.951 653.713 124.953Z" fill="#CBFDFF"/>
<path d="M653.713 152.218C653.713 155.233 656.141 157.668 659.149 157.668C662.157 157.668 664.586 155.233 664.586 152.218C664.586 149.202 662.157 146.768 659.149 146.768C656.141 146.768 653.713 149.216 653.713 152.218Z" fill="#CBFDFF"/>
<path d="M629.787 70.4384C629.787 73.4539 632.216 75.8885 635.224 75.8885C638.232 75.8885 640.66 73.4539 640.66 70.4384C640.66 67.4228 638.232 64.9883 635.224 64.9883C632.216 64.9883 629.787 67.4228 629.787 70.4384Z" fill="#CBFDFF"/>
<path d="M629.787 97.7029C629.787 100.718 632.216 103.153 635.224 103.153C638.232 103.153 640.66 100.718 640.66 97.7029C640.66 94.6874 638.232 92.2528 635.224 92.2528C632.216 92.2528 629.787 94.6874 629.787 97.7029Z" fill="#CBFDFF"/>
<path d="M629.787 124.953C629.787 127.969 632.216 130.403 635.224 130.403C638.232 130.403 640.66 127.969 640.66 124.953C640.66 121.938 638.232 119.503 635.224 119.503C632.216 119.503 629.787 121.951 629.787 124.953Z" fill="#CBFDFF"/>
<path d="M629.787 152.218C629.787 155.233 632.216 157.668 635.224 157.668C638.232 157.668 640.66 155.233 640.66 152.218C640.66 149.202 638.232 146.768 635.224 146.768C632.216 146.768 629.787 149.216 629.787 152.218Z" fill="#CBFDFF"/>
<path d="M1368.6 26.4088C1368.6 29.4243 1371.03 31.8589 1374.04 31.8589C1377.04 31.8589 1379.47 29.4243 1379.47 26.4088C1379.47 23.3932 1377.04 20.9587 1374.04 20.9587C1371.04 20.9448 1368.6 23.3932 1368.6 26.4088Z" fill="white"/>
<path d="M1368.6 53.6597C1368.6 56.6752 1371.03 59.1098 1374.04 59.1098C1377.04 59.1098 1379.47 56.6752 1379.47 53.6597C1379.47 50.6442 1377.04 48.2096 1374.04 48.2096C1371.04 48.2096 1368.6 50.658 1368.6 53.6597Z" fill="white"/>
<path d="M1368.6 80.9234C1368.6 83.9389 1371.03 86.3735 1374.04 86.3735C1377.04 86.3735 1379.47 83.9389 1379.47 80.9234C1379.47 77.9078 1377.04 75.4733 1374.04 75.4733C1371.04 75.4733 1368.6 77.9217 1368.6 80.9234Z" fill="white"/>
<path d="M1368.6 108.188C1368.6 111.203 1371.03 113.638 1374.04 113.638C1377.04 113.638 1379.47 111.203 1379.47 108.188C1379.47 105.172 1377.04 102.738 1374.04 102.738C1371.04 102.738 1368.6 105.172 1368.6 108.188Z" fill="white"/>
<path d="M1344.67 26.4088C1344.67 29.4243 1347.1 31.8589 1350.11 31.8589C1353.12 31.8589 1355.55 29.4243 1355.55 26.4088C1355.55 23.3932 1353.12 20.9587 1350.11 20.9587C1347.1 20.9448 1344.67 23.3932 1344.67 26.4088Z" fill="white"/>
<path d="M1344.67 53.6597C1344.67 56.6752 1347.1 59.1098 1350.11 59.1098C1353.12 59.1098 1355.55 56.6752 1355.55 53.6597C1355.55 50.6442 1353.12 48.2096 1350.11 48.2096C1347.1 48.2096 1344.67 50.658 1344.67 53.6597Z" fill="white"/>
<path d="M1344.67 80.9234C1344.67 83.9389 1347.1 86.3735 1350.11 86.3735C1353.12 86.3735 1355.55 83.9389 1355.55 80.9234C1355.55 77.9078 1353.12 75.4733 1350.11 75.4733C1347.1 75.4733 1344.67 77.9217 1344.67 80.9234Z" fill="white"/>
<path d="M1344.67 108.188C1344.67 111.203 1347.1 113.638 1350.11 113.638C1353.12 113.638 1355.55 111.203 1355.55 108.188C1355.55 105.172 1353.12 102.738 1350.11 102.738C1347.1 102.738 1344.67 105.172 1344.67 108.188Z" fill="white"/>
<path d="M1319.66 26.4088C1319.66 29.4243 1322.09 31.8589 1325.09 31.8589C1328.1 31.8589 1330.53 29.4243 1330.53 26.4088C1330.53 23.3932 1328.1 20.9587 1325.09 20.9587C1322.09 20.9448 1319.66 23.3932 1319.66 26.4088Z" fill="white"/>
<path d="M1319.66 53.6597C1319.66 56.6752 1322.09 59.1098 1325.09 59.1098C1328.1 59.1098 1330.53 56.6752 1330.53 53.6597C1330.53 50.6442 1328.1 48.2096 1325.09 48.2096C1322.09 48.2096 1319.66 50.658 1319.66 53.6597Z" fill="white"/>
<path d="M1319.66 80.9234C1319.66 83.9389 1322.09 86.3735 1325.09 86.3735C1328.1 86.3735 1330.53 83.9389 1330.53 80.9234C1330.53 77.9078 1328.1 75.4733 1325.09 75.4733C1322.09 75.4733 1319.66 77.9217 1319.66 80.9234Z" fill="white"/>
<path d="M1319.66 108.188C1319.66 111.203 1322.09 113.638 1325.09 113.638C1328.1 113.638 1330.53 111.203 1330.53 108.188C1330.53 105.172 1328.1 102.738 1325.09 102.738C1322.09 102.738 1319.66 105.172 1319.66 108.188Z" fill="white"/>
<path d="M1295.72 26.4087C1295.72 29.4242 1298.15 31.8588 1301.15 31.8588C1304.16 31.8588 1306.59 29.4242 1306.59 26.4087C1306.59 23.3932 1304.16 20.9586 1301.15 20.9586C1298.15 20.9586 1295.72 23.3932 1295.72 26.4087Z" fill="white"/>
<path d="M1295.72 53.6597C1295.72 56.6752 1298.15 59.1098 1301.15 59.1098C1304.16 59.1098 1306.59 56.6752 1306.59 53.6597C1306.59 50.6442 1304.16 48.2096 1301.15 48.2096C1298.15 48.2096 1295.72 50.658 1295.72 53.6597Z" fill="white"/>
<path d="M1295.72 80.9236C1295.72 83.9391 1298.15 86.3737 1301.15 86.3737C1304.16 86.3737 1306.59 83.9391 1306.59 80.9236C1306.59 77.9081 1304.16 75.4735 1301.15 75.4735C1298.15 75.4735 1295.72 77.9219 1295.72 80.9236Z" fill="white"/>
<path d="M1295.72 108.188C1295.72 111.204 1298.15 113.638 1301.15 113.638C1304.16 113.638 1306.59 111.204 1306.59 108.188C1306.59 105.173 1304.16 102.738 1301.15 102.738C1298.15 102.738 1295.72 105.173 1295.72 108.188Z" fill="white"/>
<path d="M164.006 447.672L152.503 459.204L141 447.672L152.503 436.14L164.006 447.672Z" fill="#E2E9FC"/>
<path d="M185.884 165.58L170.83 168.07L185.884 170.546L188.368 185.651L190.851 170.546L205.919 168.07L190.851 165.58L188.368 150.475L185.884 165.58Z" fill="white"/>
<path d="M1099.64 419.104L1084.58 421.594L1099.64 424.084L1102.11 439.176L1104.6 424.084L1119.66 421.594L1104.6 419.104L1102.11 403.999L1099.64 419.104Z" fill="white"/>
<path d="M661.295 0C654.299 13.9157 644.999 26.7525 634.167 37.9708C609.427 63.6305 577.388 81.2534 544.741 94.7126C474.094 123.858 396.92 132.725 321.058 132.974C252.108 133.223 178.301 126.708 113.491 155.175C81.3269 169.312 55.8968 192.524 33.0607 218.792C21.8289 231.712 11.1215 245.143 6.10352e-05 258.201V0H661.295Z" fill="#242E42"/>
<rect y="507" width="1440" height="517" fill="#70889E"/>
<path d="M1243.91 636.461C1243.91 639.482 1241.47 641.922 1238.46 641.922C1235.44 641.922 1233 639.482 1233 636.461C1233 633.439 1235.44 631 1238.46 631C1241.47 631 1243.91 633.453 1243.91 636.461Z" fill="#E2E9FC"/>
<path d="M1243.91 663.779C1243.91 666.801 1241.47 669.24 1238.46 669.24C1235.44 669.24 1233 666.801 1233 663.779C1233 660.758 1235.44 658.318 1238.46 658.318C1241.47 658.318 1243.91 660.758 1243.91 663.779Z" fill="#E2E9FC"/>
<path d="M1243.91 691.097C1243.91 694.118 1241.47 696.557 1238.46 696.557C1235.44 696.557 1233 694.118 1233 691.097C1233 688.075 1235.44 685.636 1238.46 685.636C1241.47 685.636 1243.91 688.075 1243.91 691.097Z" fill="#E2E9FC"/>
<path d="M1243.91 718.415C1243.91 721.436 1241.47 723.876 1238.46 723.876C1235.44 723.876 1233 721.436 1233 718.415C1233 715.393 1235.44 712.954 1238.46 712.954C1241.47 712.954 1243.91 715.393 1243.91 718.415Z" fill="#E2E9FC"/>
<path d="M1267.92 636.461C1267.92 639.482 1265.48 641.922 1262.47 641.922C1259.45 641.922 1257.01 639.482 1257.01 636.461C1257.01 633.439 1259.45 631 1262.47 631C1265.48 631 1267.92 633.453 1267.92 636.461Z" fill="#E2E9FC"/>
<path d="M1267.92 663.779C1267.92 666.801 1265.48 669.24 1262.47 669.24C1259.45 669.24 1257.01 666.801 1257.01 663.779C1257.01 660.758 1259.45 658.318 1262.47 658.318C1265.48 658.318 1267.92 660.758 1267.92 663.779Z" fill="#E2E9FC"/>
<path d="M1267.92 691.097C1267.92 694.118 1265.48 696.557 1262.47 696.557C1259.45 696.557 1257.01 694.118 1257.01 691.097C1257.01 688.075 1259.45 685.636 1262.47 685.636C1265.48 685.636 1267.92 688.075 1267.92 691.097Z" fill="#E2E9FC"/>
<path d="M1267.92 718.415C1267.92 721.436 1265.48 723.876 1262.47 723.876C1259.45 723.876 1257.01 721.436 1257.01 718.415C1257.01 715.393 1259.45 712.954 1262.47 712.954C1265.48 712.954 1267.92 715.393 1267.92 718.415Z" fill="#E2E9FC"/>
<path d="M1293.02 636.461C1293.02 639.482 1290.59 641.922 1287.57 641.922C1284.55 641.922 1282.11 639.482 1282.11 636.461C1282.11 633.439 1284.55 631 1287.57 631C1290.59 631 1293.02 633.453 1293.02 636.461Z" fill="#E2E9FC"/>
<path d="M1293.02 663.779C1293.02 666.801 1290.59 669.24 1287.57 669.24C1284.55 669.24 1282.11 666.801 1282.11 663.779C1282.11 660.758 1284.55 658.318 1287.57 658.318C1290.59 658.318 1293.02 660.758 1293.02 663.779Z" fill="#E2E9FC"/>
<path d="M1293.02 691.097C1293.02 694.118 1290.59 696.557 1287.57 696.557C1284.55 696.557 1282.11 694.118 1282.11 691.097C1282.11 688.075 1284.55 685.636 1287.57 685.636C1290.59 685.636 1293.02 688.075 1293.02 691.097Z" fill="#E2E9FC"/>
<path d="M1293.02 718.415C1293.02 721.436 1290.59 723.876 1287.57 723.876C1284.55 723.876 1282.11 721.436 1282.11 718.415C1282.11 715.393 1284.55 712.954 1287.57 712.954C1290.59 712.954 1293.02 715.393 1293.02 718.415Z" fill="#E2E9FC"/>
<path d="M1317.05 636.461C1317.05 639.482 1314.61 641.922 1311.59 641.922C1308.57 641.922 1306.14 639.482 1306.14 636.461C1306.14 633.439 1308.57 631 1311.59 631C1314.6 631 1317.05 633.453 1317.05 636.461Z" fill="#E2E9FC"/>
<path d="M1317.05 663.779C1317.05 666.801 1314.61 669.24 1311.59 669.24C1308.57 669.24 1306.14 666.801 1306.14 663.779C1306.14 660.758 1308.57 658.318 1311.59 658.318C1314.6 658.318 1317.05 660.758 1317.05 663.779Z" fill="#E2E9FC"/>
<path d="M1317.05 691.097C1317.05 694.118 1314.61 696.557 1311.59 696.557C1308.57 696.557 1306.14 694.118 1306.14 691.097C1306.14 688.075 1308.57 685.636 1311.59 685.636C1314.6 685.636 1317.05 688.075 1317.05 691.097Z" fill="#E2E9FC"/>
<path d="M1317.05 718.415C1317.05 721.436 1314.61 723.876 1311.59 723.876C1308.57 723.876 1306.14 721.436 1306.14 718.415C1306.14 715.393 1308.57 712.954 1311.59 712.954C1314.6 712.954 1317.05 715.393 1317.05 718.415Z" fill="#E2E9FC"/>
<path d="M324.091 638.135L339.211 640.63L324.091 643.125L321.612 658.246L319.12 643.125L304 640.63L319.12 638.135L321.612 623L324.091 638.135Z" fill="#E2E9FC"/>
<path d="M209.2 915.095L221.732 902.55L209.2 890.006L196.668 902.55L209.2 915.095Z" fill="#E2E9FC"/>
<path d="M133.532 915.09L146.064 902.545L133.532 890.001L121 902.546L133.532 915.09Z" fill="#E2E9FC"/>
<path d="M160.112 915.097L172.644 902.552L160.112 890.008L147.58 902.552L160.112 915.097Z" fill="#E2E9FC"/>
<path d="M185.344 915.089L197.876 902.544L185.344 890L172.812 902.544L185.344 915.089Z" fill="#E2E9FC"/>
</svg>
