<svg width="318" height="477" viewBox="0 0 318 477" fill="none" xmlns="http://www.w3.org/2000/svg">
<path d="M279.85 247.32C279.85 247.32 239.511 268.411 225.18 264.356C218.55 262.485 209.822 251.965 201.531 239.611C198.801 235.544 196.114 231.275 193.568 227.044C193.558 227.032 193.558 227.032 193.558 227.032C183.388 210.146 175.414 193.964 175.414 193.964C175.414 193.964 145.343 153.452 169.472 135.399C169.472 135.399 178.232 131.632 186.272 141.538C194.322 151.443 203.76 172.17 205.879 177.455C207.987 182.741 237.523 231.702 239.063 232.807C240.593 233.912 253.504 230.007 263.848 229.015C280.724 227.396 277.371 226.58 277.371 226.58L279.85 247.32Z" fill="#EDDAD3"/>
<path d="M40.367 470.107L29.2311 468.211C12.4052 465.336 1.14087 449.681 4.06934 433.222L16.7209 362.354C19.6622 345.908 35.6917 334.898 52.5176 337.76L63.6535 339.656C80.4793 342.531 91.7437 358.186 88.8152 374.644L76.1637 445.513C73.2224 461.959 57.1929 472.969 40.367 470.107Z" fill="#E8744E"/>
<path d="M184.941 360.609L200.006 465C201.559 474.15 201.452 476.21 200.006 476C198.561 475.79 137.723 476 137.723 476C130.249 454.5 129.184 424.309 123.353 431.113C117.522 437.918 115.63 445.353 111.314 465C109.667 472.5 106.83 476 106.83 476C106.83 476 50.5255 476 35.5774 476C35.5774 476 36.5739 471 36.5738 465C37.627 450.952 31.0548 406.042 55.356 343.899C68.1873 311.07 184.941 360.609 184.941 360.609Z" fill="#187D80"/>
<path d="M144.584 126.347C144.584 126.347 180.985 133.704 185.313 137.445C190.001 141.425 198.273 180.393 198.761 191.252C199.249 202.112 194.368 247.458 189.68 264.343C184.992 281.228 186.058 369.372 188.165 383.231C188.165 383.231 116.867 397.681 44.7981 388.517C44.7981 388.517 55.523 311.471 52.6459 288.334C48.9468 258.694 40.0586 190.386 40.0586 190.386C40.0586 190.386 49.6917 144.4 56.101 139.09C62.5231 133.779 107.131 125.142 107.131 125.142L144.584 126.347Z" fill="#EDDAD3"/>
<path d="M63.5121 219.16C63.5121 219.16 56.6405 262.887 57.1157 265.699C57.6038 268.498 25.9943 256.911 63.5121 219.16Z" fill="#C3B2AB"/>
<path d="M184.838 136.893C179.071 133.591 173.175 133.001 173.175 133.001C173.33 133.428 189.141 179.878 179.187 235.343C166.06 308.559 115.582 370.238 33.2253 413.688L38.0162 422.35C85.5268 397.28 122.775 366.522 148.733 330.906C169.566 302.307 183.194 270.57 189.205 236.573C199.455 178.698 185.493 138.726 184.838 136.893Z" fill="#E8744E"/>
<path d="M99.8946 136.165C99.8946 136.165 109.92 154.875 125.592 157.214C141.257 159.553 148.154 147.078 148.154 147.078L148.521 133.401L148.78 123.69L104.908 101.863L102.059 121.364L99.8946 136.165Z" fill="#FFAEA2"/>
<path d="M102.059 121.369C115.725 134.877 136.265 134.908 148.521 133.401L148.78 123.69L104.908 101.863L102.059 121.369Z" fill="#D87268"/>
<path d="M74.3691 37.3511C78.5837 19.427 90.8463 13.3392 96.7798 11.406C96.1253 10.5802 95.5139 9.73521 94.9458 8.85821C94.356 7.9556 93.8094 7.02739 93.3491 6.06717C92.8888 5.11335 92.3566 3.9803 92.4573 2.92406C92.5076 2.41194 93.2053 2.29671 93.5577 2.62959C94.3272 3.35936 94.7516 4.4284 95.2335 5.3182C95.7225 6.22721 96.2404 7.12982 96.8085 8.00041C97.2616 8.69177 97.7507 9.35753 98.2686 10.0169C98.2038 8.97984 98.247 7.9364 98.4196 6.90577C98.8079 4.62044 99.7789 2.54637 101.203 0.613127C101.606 0.0690027 102.706 0.581118 102.354 1.17645C100.771 3.87787 100.052 7.13622 100.369 10.2409C104.598 6.08638 130.266 -4.18797 157.726 7.21944C185.926 18.9341 189.688 40.1294 187.811 44.5912C185.933 49.053 177.576 47.6895 177.576 47.6895C177.576 47.6895 121.377 98.7027 105.087 101.487C88.7893 104.291 68.7304 61.3374 74.3691 37.3511Z" fill="#5F2E32"/>
<path d="M177.575 47.7028C177.575 47.7028 176.18 87.3727 174.792 98.7737C173.397 110.181 164.205 125.301 141.643 125.301C119.082 125.301 99.3032 110.924 96.2394 87.123C96.2394 87.123 78.4101 91.0919 77.2953 74.7298C76.1805 58.3676 95.6784 65.5565 97.0737 69.2757C97.0737 69.2757 112.954 54.3987 109.329 31.5903C109.329 31.5903 142.478 52.6639 153.618 39.0288C153.618 39.0224 168.937 46.9538 177.575 47.7028Z" fill="#FFAEA2"/>
<path d="M141.615 28.0753C142.219 28.3186 142.679 28.8499 143.118 29.2852C143.55 29.7205 143.967 30.1622 144.384 30.6039C145.269 31.5449 146.189 32.4539 147.203 33.2925C148.203 34.1183 149.26 34.8865 150.375 35.597C150.929 35.9491 151.483 36.3076 152.044 36.6533C152.626 37.0118 153.144 37.4663 153.741 37.7991C154.331 38.132 153.791 38.9962 153.151 38.753C152.497 38.5033 151.821 38.3497 151.188 38.0488C150.54 37.7415 149.908 37.4087 149.311 37.0438C148.11 36.3076 146.973 35.4754 145.902 34.592C144.844 33.715 143.816 32.7932 142.91 31.7882C142.456 31.2889 142.054 30.7703 141.687 30.2134C141.335 29.6885 140.953 29.0804 140.953 28.4594C140.939 28.1649 141.342 27.9601 141.615 28.0753Z" fill="#3D1119"/>
<path d="M91.3205 40.059C91.414 38.7019 91.7089 37.3384 92.1907 36.0453C93.1545 33.4655 94.859 31.2122 97.1461 29.4133C98.038 28.7156 99.1239 29.9703 98.2897 30.6808C96.3694 32.3196 94.9525 34.4641 94.1542 36.7174C93.7586 37.8313 93.5069 38.9835 93.4278 40.1486C93.3415 41.2944 93.6435 42.6067 93.061 43.6694C92.8883 43.9895 92.4928 44.0279 92.2195 43.7846C91.1407 42.8628 91.2414 41.2752 91.3205 40.059Z" fill="#3D1119"/>
<path d="M88.9263 32.1277C89.1996 31.1418 89.6456 30.2008 90.1993 29.3174C91.3141 27.5314 92.8748 26.1999 94.7951 25.0989C95.5503 24.67 96.4349 25.5918 95.6869 26.0847C94.1622 27.0961 92.8676 28.6005 92.0046 30.1112C91.5515 30.905 91.1847 31.7244 90.9186 32.5758C90.7891 32.9855 90.6956 33.4144 90.5518 33.8176C90.4726 34.0481 90.3216 34.2273 90.2497 34.4578C90.1778 34.6818 90.0555 34.8739 89.9476 35.0851C89.7822 35.3988 89.2068 35.482 89.0486 35.1043C88.8688 34.669 88.7609 34.2337 88.6818 33.7792C88.5883 33.2735 88.7825 32.6206 88.9263 32.1277Z" fill="#3D1119"/>
<path d="M148.779 7.09811C149.534 6.93807 150.455 7.29656 151.152 7.52061C151.943 7.77667 152.677 8.14795 153.411 8.50644C154.087 8.83931 154.756 9.19139 155.403 9.56267C155.741 9.75472 156.072 9.94676 156.374 10.1772C156.546 10.3116 156.712 10.4461 156.87 10.5933C157.021 10.7341 157.129 10.9006 157.28 11.0414C157.755 11.4831 157.093 12.2897 156.474 12.0208C156.144 11.88 155.798 11.7968 155.467 11.6367C155.079 11.4511 154.712 11.2463 154.338 11.0414C153.72 10.6893 153.087 10.3565 152.447 10.0492C151.749 9.71631 151.03 9.41544 150.34 9.06976C149.994 8.89692 149.656 8.73048 149.325 8.53844C148.987 8.3464 148.649 8.19276 148.419 7.88549C148.196 7.57182 148.354 7.18773 148.779 7.09811Z" fill="#844C52"/>
<path d="M141.681 9.46025C142.04 9.36423 142.342 9.28101 142.716 9.32582C143.076 9.37063 143.45 9.44105 143.802 9.51786C144.428 9.65229 145.047 9.79953 145.672 9.94676C146.931 10.2412 148.175 10.5997 149.419 10.939C150.239 11.163 149.923 12.4113 149.067 12.2641C147.751 12.0336 146.435 11.8224 145.133 11.5407C144.507 11.4063 143.881 11.2783 143.256 11.1374C142.939 11.0606 142.616 10.9774 142.306 10.875C141.947 10.7597 141.709 10.5613 141.443 10.318C141.177 10.0812 141.314 9.55627 141.681 9.46025Z" fill="#844C52"/>
<path d="M105.935 20.1695C107.381 20.56 108.769 21.0721 110.243 21.3794C111.02 21.5394 111.811 21.6482 112.602 21.6994C112.976 21.725 114.105 21.9235 114.4 21.6354C114.681 21.3602 114.156 20.688 113.969 20.4768C113.559 20.0095 113.062 19.6254 112.523 19.2861C111.387 18.5691 110.085 18.1018 108.805 17.6345C107.884 17.3016 108.165 15.8741 109.222 16.0533C111.451 16.431 113.71 16.7063 115.975 16.8471C116.5 16.8791 117.025 16.9047 117.543 16.9239C117.824 16.9367 118.19 16.8855 118.456 16.9496C118.485 16.9496 118.514 16.9496 118.543 16.9496C118.471 16.8535 118.406 16.7255 118.334 16.6551C118.19 16.5207 118.025 16.3926 117.867 16.271C117.5 15.9893 117.126 15.7205 116.73 15.458C113.609 13.3967 109.812 12.2317 105.928 12.1293C105.453 12.1164 105.417 11.3931 105.899 11.3739C110.624 11.2074 115.335 12.5261 119.025 15.1891C119.801 15.7525 120.729 16.6039 120.334 17.5897C119.888 18.6907 118.399 18.5179 117.356 18.4923C116.27 18.4667 115.184 18.3963 114.105 18.3067C114.156 18.3451 114.213 18.3771 114.263 18.4155C115.436 19.3181 116.867 20.8672 116.033 22.3268C115.17 23.8375 112.494 23.383 110.984 23.1526C109.02 22.8581 106.877 22.2372 105.388 21.0017C104.964 20.6496 105.309 20.0031 105.935 20.1695Z" fill="#844C52"/>
<path d="M169.37 27.704C169.658 27.3519 170.14 27.3519 170.528 27.5503C172.046 28.3313 173.498 29.1635 174.836 30.1813C175.527 30.7063 176.174 31.2696 176.807 31.8457C177.116 32.1274 177.418 32.4154 177.706 32.7163C178.037 33.062 178.425 33.4397 178.404 33.9134C178.44 34.1758 178.389 34.4319 178.123 34.6239C177.864 34.8096 177.576 34.8032 177.303 34.72C176.785 34.6431 176.462 34.2527 176.131 33.9198C175.85 33.6381 175.577 33.3565 175.289 33.0876C174.736 32.5499 174.146 32.0506 173.549 31.5512C172.305 30.5334 170.974 29.554 169.55 28.741C169.169 28.517 169.119 28.0048 169.37 27.704Z" fill="#844C52"/>
<path d="M137.092 20.6885C139.423 21.2454 141.444 22.5449 143.882 22.8266C145.27 22.9866 146.931 22.865 148.24 22.2569C147.514 21.9496 146.802 21.6039 146.133 21.207C144.968 20.5221 143.407 19.517 143.184 18.1919C143.127 17.827 143.508 17.5966 143.875 17.6926C145.04 17.9871 145.996 18.9281 146.974 19.5362C148.039 20.202 149.197 20.7333 150.419 21.1238C151.606 21.5015 152.843 21.7511 154.102 21.8536C155.368 21.956 156.482 21.9816 157.619 21.4375C158.108 21.207 158.662 21.7191 158.46 22.148C157.885 23.4091 156.116 23.5564 154.792 23.5756C153.246 23.5948 151.692 23.3515 150.218 22.9418C150.002 22.8842 149.794 22.8074 149.585 22.7434C146.075 25.9249 139.725 24.3053 136.438 21.4759C135.985 21.0918 136.618 20.5733 137.092 20.6885Z" fill="#3D1119"/>
<path d="M82.798 75.5614C83.2367 75.4526 83.6754 75.5102 84.1141 75.5358C84.5528 75.555 84.97 75.6126 85.4015 75.7022C86.2861 75.8879 87.1708 76.1759 88.0051 76.5024C88.2136 76.5856 88.4078 76.6752 88.6164 76.7584C87.4153 75.2029 86.0056 73.7306 84.5744 72.3478C84.0062 71.7973 84.9124 71.0355 85.5597 71.4324C87.8108 72.8088 89.5657 74.5691 91.0186 76.6176C91.7306 77.629 92.3851 78.6725 92.9173 79.7671C93.1834 80.3049 93.4279 80.849 93.6365 81.4059C93.7516 81.7196 93.845 82.0268 93.917 82.3469C93.9961 82.6798 93.9673 82.9423 93.9673 83.2751C93.9745 84.0817 92.7878 84.0305 92.4282 83.4992C92.5505 83.6848 92.2628 83.3456 92.2268 83.3007C92.1477 83.1855 92.1118 83.0703 92.0542 82.9487C91.932 82.6926 91.8097 82.4429 91.7018 82.1805C91.4861 81.6556 91.2631 81.1435 91.0114 80.6313C90.7524 80.1 90.472 79.5815 90.1771 79.0694C90.0045 78.9798 89.8318 78.8901 89.6592 78.8069C88.9041 78.4548 88.1273 78.1412 87.329 77.8595C86.5307 77.5778 85.718 77.3602 84.9052 77.1105C84.5025 76.9889 84.1141 76.8417 83.7185 76.7072C83.3302 76.5728 82.949 76.4768 82.6038 76.2591C82.2729 76.0479 82.4599 75.6446 82.798 75.5614Z" fill="#D87268"/>
<path d="M140.824 84.5045C141.788 84.895 142.629 85.4903 143.593 85.8936C144.499 86.2713 145.463 86.5658 146.463 86.6298C146.801 86.649 147.232 86.6554 147.534 86.4825C147.887 86.2777 147.908 85.8808 147.923 85.5351C147.959 84.4853 147.793 83.4098 147.721 82.3664C147.39 77.7061 147.067 73.0523 146.758 68.392C146.671 67.0989 146.585 65.8058 146.542 64.5127C146.52 63.8662 146.484 63.2196 146.491 62.5795C146.499 61.8945 146.635 61.216 146.635 60.5374C146.628 59.9165 147.765 59.8973 147.851 60.5054C147.937 61.1455 148.167 61.7665 148.261 62.4066C148.354 63.0468 148.419 63.6933 148.491 64.3399C148.628 65.633 148.728 66.9261 148.822 68.2192C149.016 70.8502 149.217 73.4812 149.404 76.1122C149.584 78.7048 149.771 81.2974 149.951 83.8899C150.023 84.959 150.239 86.1369 149.656 87.1291C149.109 88.0573 148.031 88.4798 146.894 88.5118C144.47 88.5886 141.04 87.4172 139.947 85.3559C139.673 84.8694 140.263 84.2804 140.824 84.5045Z" fill="#D87268"/>
<path d="M137.321 112.895C137.53 112.651 137.825 112.568 138.134 112.466C138.285 112.414 138.415 112.363 138.573 112.331C138.774 112.293 138.983 112.306 139.184 112.299C139.738 112.267 140.371 112.331 140.953 112.395C142.176 112.536 143.535 112.747 144.571 113.375C144.83 113.528 144.923 113.861 144.816 114.117C144.693 114.399 144.398 114.52 144.082 114.52C143.521 114.527 142.953 114.437 142.399 114.354C141.838 114.271 141.27 114.207 140.702 114.156C140.134 114.104 139.565 114.072 138.997 114.028C138.458 113.989 137.724 113.836 137.336 113.464C137.185 113.311 137.192 113.048 137.321 112.895Z" fill="#D87268"/>
<path d="M156.402 68.4048C156.402 70.114 157.524 71.5032 158.913 71.5032C160.293 71.5032 161.423 70.114 161.423 68.4048C161.423 66.6957 160.301 65.3065 158.913 65.3065C157.524 65.3001 156.402 66.6893 156.402 68.4048Z" fill="black"/>
<path d="M121.305 68.4051C121.305 70.1143 122.427 71.5034 123.815 71.5034C125.203 71.5034 126.325 70.1143 126.325 68.4051C126.325 66.6959 125.203 65.3068 123.815 65.3068C122.427 65.3068 121.305 66.6895 121.305 68.4051Z" fill="black"/>
<path d="M132.179 96.6675C132.891 97.0708 133.582 97.4484 134.258 97.8965C134.891 98.3126 135.559 98.7095 136.25 99.0552C137.652 99.7466 139.213 100.227 140.795 100.444C142.478 100.675 144.183 100.636 145.851 100.329C147.585 100.009 149.16 99.2921 150.864 98.8888C151.389 98.7671 151.821 99.4201 151.476 99.7786C150.217 101.084 148.239 101.718 146.412 102.096C144.485 102.493 142.435 102.576 140.486 102.288C138.645 102.019 136.89 101.469 135.257 100.668C134.445 100.271 133.682 99.8234 132.985 99.2793C132.251 98.7095 131.74 98.063 131.309 97.2948C131.021 96.8019 131.719 96.405 132.179 96.6675Z" fill="#D87268"/>
<path d="M153.835 53.8287C153.684 55.6723 155.518 55.3074 159.279 55.5506C163.041 55.7939 167.299 56.5557 167.45 54.712C167.601 52.8684 163.149 51.076 159.387 50.8328C155.633 50.5895 153.986 51.985 153.835 53.8287Z" fill="#5F2E32"/>
<path d="M130.683 53.9508C130.841 55.8649 128.849 55.4872 124.764 55.7496C120.679 56.0121 116.047 56.8187 115.896 54.9047C115.738 52.9906 120.585 51.1214 124.671 50.8589C128.756 50.5965 130.532 52.0368 130.683 53.9508Z" fill="#5F2E32"/>
<path d="M300.899 137.489H163.573V325.283H300.899V137.489Z" fill="#C9D5FF"/>
<path d="M301.565 326.667H162.824V137.489H301.565V326.667ZM164.24 325.283H300.149V138.874H164.24V325.283Z" fill="#3D43A5"/>
<path d="M289.606 149.943H174.811V313.604H289.606V149.943Z" fill="white"/>
<path d="M196.54 216.12C199.181 215.521 202.122 215.072 204.813 214.922C206.508 211.526 208.601 207.831 210.744 204.585C205.86 208.031 200.377 212.275 196.54 216.12ZM216.675 201.04C217.373 202.238 217.373 202.538 216.326 204.186C214.582 206.832 212.09 211.177 209.548 215.721C210.545 216.37 211.043 217.269 211.392 218.268C211.492 218.717 211.143 218.967 210.146 218.767C209.548 218.617 208.801 218.617 207.953 218.617C205.86 222.462 204.066 226.257 202.869 229.153C202.471 230.102 201.673 230.152 201.125 229.403C200.627 228.604 200.178 227.755 200.178 226.657C200.178 225.958 200.328 225.009 200.776 223.81C201.275 222.462 201.773 221.164 202.72 219.067C200.527 219.416 198.334 219.816 196.44 220.265C195.493 220.465 194.795 220.465 194.247 219.766C193.499 218.817 192.901 217.668 192.503 216.919C192.154 216.27 192.353 215.571 192.802 215.022C196.889 210.228 206.458 202.538 212.688 198.493C213.535 197.944 214.682 197.644 215.33 198.743L216.675 201.04Z" fill="#7785E5"/>
<path d="M251.89 215.726C254.532 215.14 257.472 214.701 260.164 214.554C261.858 211.232 263.952 207.617 266.095 204.442C261.21 207.813 255.728 211.965 251.89 215.726ZM272.026 200.974C272.723 202.146 272.723 202.439 271.677 204.051C269.932 206.64 267.44 210.89 264.898 215.336C265.895 215.971 266.394 216.85 266.743 217.827C266.842 218.267 266.493 218.511 265.497 218.315C264.898 218.169 264.151 218.169 263.304 218.169C261.21 221.93 259.416 225.643 258.22 228.476C257.821 229.404 257.024 229.453 256.475 228.72C255.977 227.939 255.528 227.108 255.528 226.034C255.528 225.35 255.678 224.422 256.127 223.249C256.625 221.93 257.123 220.66 258.07 218.609C255.877 218.95 253.684 219.341 251.79 219.781C250.843 219.976 250.146 219.976 249.597 219.292C248.85 218.364 248.252 217.241 247.853 216.508C247.504 215.873 247.703 215.189 248.152 214.652C252.239 209.962 261.808 202.439 268.038 198.483C268.886 197.945 270.032 197.652 270.68 198.727L272.026 200.974Z" fill="#7785E5"/>
<path d="M233.748 198.595C234.751 198.198 235.956 198 236.909 198C238.464 198 239.568 198.149 240.722 199.19C243.131 200.577 244.837 203.551 244.837 206.971C244.837 210.342 243.733 214.456 242.077 217.727C239.016 223.923 234.149 229.226 228.63 229.226C227.677 229.226 226.774 229.176 225.469 228.631C222.459 227.392 220 224.071 220 220.205C220 210.391 228.48 201.073 233.748 198.595ZM226.322 226.549C229.132 227.293 234.3 223.377 237.712 216.389C239.769 212.126 240.722 208.21 240.722 205.336C240.722 202.907 240.12 201.222 239.117 200.924C237.06 200.181 231.691 203.799 227.576 210.689C225.369 214.505 224.315 218.421 224.315 221.494C224.315 224.121 225.118 226.004 226.322 226.549Z" fill="#7785E5"/>
<path d="M196.082 258.844C196.082 258.479 196.134 258.094 196.238 257.688C196.592 256.271 197.004 254.885 197.472 253.531C197.952 252.167 198.384 250.812 198.769 249.469C199.155 248.125 199.472 246.995 199.722 246.078C199.983 245.151 200.212 244.359 200.41 243.703C200.608 243.036 200.79 242.464 200.957 241.984C201.123 241.505 201.306 241.031 201.504 240.562C201.629 240.281 201.764 239.99 201.91 239.688C202.066 239.385 202.233 239.109 202.41 238.859C202.587 238.599 202.769 238.391 202.957 238.234C203.155 238.068 203.358 237.984 203.566 237.984C203.993 237.984 204.316 238.057 204.535 238.203C204.764 238.339 204.905 238.464 204.957 238.578L205.097 239.219C205.254 239.208 205.457 239.182 205.707 239.141C205.957 239.089 206.207 239.036 206.457 238.984C206.717 238.932 206.957 238.88 207.176 238.828C207.394 238.776 207.561 238.729 207.676 238.688C208.363 238.5 208.998 238.339 209.582 238.203C210.165 238.068 210.717 237.958 211.238 237.875C211.769 237.781 212.275 237.714 212.754 237.672C213.233 237.63 213.717 237.609 214.207 237.609C214.686 237.609 215.077 237.635 215.379 237.688C215.681 237.74 215.92 237.812 216.097 237.906C216.275 237.99 216.394 238.094 216.457 238.219C216.53 238.333 216.566 238.458 216.566 238.594C216.566 238.719 216.53 238.854 216.457 239C216.394 239.135 216.285 239.266 216.129 239.391C215.972 239.516 215.769 239.625 215.519 239.719C215.269 239.812 214.957 239.875 214.582 239.906C214.488 239.927 214.269 239.969 213.926 240.031C213.592 240.083 213.228 240.146 212.832 240.219C212.436 240.281 212.061 240.344 211.707 240.406C211.353 240.469 211.108 240.516 210.972 240.547H210.988C210.926 240.557 210.775 240.599 210.535 240.672C210.306 240.734 210.025 240.812 209.691 240.906C209.358 240.99 208.993 241.089 208.597 241.203C208.212 241.318 207.827 241.432 207.441 241.547C207.066 241.651 206.717 241.755 206.394 241.859C206.071 241.953 205.811 242.031 205.613 242.094C204.978 242.344 204.478 242.677 204.113 243.094C203.759 243.5 203.478 243.958 203.269 244.469C203.228 244.562 203.165 244.724 203.082 244.953C202.998 245.172 202.905 245.427 202.801 245.719C202.707 246 202.603 246.302 202.488 246.625C202.373 246.948 202.264 247.255 202.16 247.547C202.056 247.839 201.962 248.104 201.879 248.344C201.806 248.583 201.754 248.76 201.722 248.875C201.691 248.979 201.67 249.073 201.66 249.156C201.65 249.24 201.644 249.302 201.644 249.344C201.644 249.406 201.66 249.438 201.691 249.438C201.847 249.438 202.17 249.37 202.66 249.234C203.16 249.089 203.738 248.911 204.394 248.703C205.061 248.495 205.769 248.271 206.519 248.031C207.28 247.792 208.004 247.568 208.691 247.359C209.389 247.151 210.009 246.979 210.551 246.844C211.092 246.698 211.483 246.625 211.722 246.625C212.087 246.625 212.332 246.688 212.457 246.812C212.582 246.927 212.644 247.057 212.644 247.203C212.644 247.578 212.509 247.906 212.238 248.188C211.978 248.469 211.65 248.714 211.254 248.922C211.129 248.984 210.894 249.078 210.551 249.203C210.217 249.318 209.853 249.438 209.457 249.562C209.071 249.688 208.702 249.807 208.347 249.922C207.993 250.036 207.738 250.12 207.582 250.172C206.561 250.568 205.728 250.896 205.082 251.156C204.446 251.406 203.931 251.615 203.535 251.781C203.139 251.938 202.832 252.057 202.613 252.141C202.405 252.224 202.207 252.297 202.019 252.359C201.842 252.411 201.644 252.464 201.426 252.516C201.207 252.568 200.905 252.641 200.519 252.734C200.426 252.953 200.316 253.286 200.191 253.734C200.066 254.172 199.946 254.63 199.832 255.109C199.717 255.578 199.618 256.016 199.535 256.422C199.462 256.828 199.426 257.109 199.426 257.266C199.426 257.453 199.452 257.594 199.504 257.688C199.556 257.771 199.618 257.828 199.691 257.859C199.764 257.891 199.837 257.906 199.91 257.906C199.983 257.906 200.04 257.906 200.082 257.906C200.582 257.906 201.181 257.833 201.879 257.688C202.587 257.542 203.285 257.349 203.972 257.109C204.629 256.88 205.202 256.63 205.691 256.359C206.181 256.089 206.639 255.839 207.066 255.609C207.504 255.37 207.926 255.172 208.332 255.016C208.748 254.849 209.202 254.76 209.691 254.75C209.795 254.75 209.915 254.76 210.051 254.781C210.196 254.802 210.332 254.844 210.457 254.906C210.582 254.958 210.681 255.031 210.754 255.125C210.837 255.219 210.868 255.339 210.847 255.484C210.806 255.786 210.655 256.083 210.394 256.375C210.134 256.667 209.806 256.948 209.41 257.219C209.014 257.49 208.571 257.75 208.082 258C207.592 258.25 207.092 258.49 206.582 258.719C206.071 258.938 205.571 259.141 205.082 259.328C204.592 259.505 204.155 259.661 203.769 259.797C202.811 260.13 201.879 260.375 200.972 260.531C200.066 260.688 199.254 260.766 198.535 260.766C197.743 260.766 197.134 260.615 196.707 260.312C196.29 260.021 196.082 259.531 196.082 258.844ZM214.914 258.391C215.05 257.661 215.206 256.859 215.383 255.984C215.56 255.109 215.742 254.224 215.93 253.328C216.117 252.432 216.3 251.552 216.477 250.688C216.654 249.823 216.805 249.031 216.93 248.312C216.92 248.208 216.914 248.12 216.914 248.047C216.914 247.964 216.914 247.875 216.914 247.781C216.914 247.458 216.935 247.135 216.977 246.812C217.018 246.49 217.076 246.193 217.149 245.922C217.263 245.526 217.388 245.26 217.524 245.125C217.67 244.979 217.899 244.906 218.211 244.906C218.513 244.906 218.753 244.969 218.93 245.094C219.117 245.208 219.263 245.365 219.367 245.562C219.472 245.76 219.539 245.99 219.571 246.25C219.602 246.5 219.617 246.76 219.617 247.031C219.617 247.177 219.612 247.339 219.602 247.516C219.591 247.693 219.586 247.833 219.586 247.938C219.878 247.635 220.185 247.328 220.508 247.016C220.841 246.693 221.19 246.406 221.555 246.156C221.93 245.896 222.321 245.682 222.727 245.516C223.143 245.349 223.576 245.266 224.024 245.266C224.201 245.266 224.373 245.281 224.539 245.312C224.716 245.344 224.893 245.385 225.071 245.438C225.279 245.49 225.492 245.562 225.711 245.656C225.94 245.74 226.159 245.859 226.367 246.016C226.711 246.276 226.998 246.604 227.227 247C227.466 247.385 227.586 247.781 227.586 248.188C227.586 248.344 227.555 248.516 227.492 248.703C227.43 248.88 227.341 249.047 227.227 249.203C227.123 249.349 226.998 249.474 226.852 249.578C226.706 249.672 226.545 249.719 226.367 249.719C226.19 249.719 225.972 249.677 225.711 249.594C225.461 249.5 225.253 249.38 225.086 249.234C225.013 249.172 224.935 249.083 224.852 248.969C224.779 248.854 224.706 248.74 224.633 248.625C224.571 248.51 224.508 248.406 224.446 248.312C224.393 248.208 224.352 248.141 224.321 248.109C224.268 248.099 224.211 248.094 224.149 248.094C224.086 248.083 224.029 248.078 223.977 248.078C223.446 248.078 222.94 248.214 222.461 248.484C221.982 248.755 221.534 249.089 221.117 249.484C220.701 249.87 220.315 250.286 219.961 250.734C219.617 251.172 219.315 251.568 219.055 251.922C218.847 252.766 218.612 253.667 218.352 254.625C218.102 255.573 217.852 256.568 217.602 257.609V258C217.602 258.312 217.591 258.63 217.571 258.953C217.55 259.276 217.487 259.562 217.383 259.812C217.268 259.969 217.102 260.099 216.883 260.203C216.675 260.318 216.43 260.375 216.149 260.375C215.711 260.375 215.383 260.234 215.164 259.953C214.946 259.661 214.836 259.323 214.836 258.938C214.836 258.76 214.862 258.578 214.914 258.391ZM228.059 258.391C228.195 257.661 228.351 256.859 228.528 255.984C228.705 255.109 228.887 254.224 229.075 253.328C229.262 252.432 229.445 251.552 229.622 250.688C229.799 249.823 229.95 249.031 230.075 248.312C230.065 248.208 230.059 248.12 230.059 248.047C230.059 247.964 230.059 247.875 230.059 247.781C230.059 247.458 230.08 247.135 230.122 246.812C230.163 246.49 230.221 246.193 230.294 245.922C230.408 245.526 230.533 245.26 230.669 245.125C230.815 244.979 231.044 244.906 231.356 244.906C231.658 244.906 231.898 244.969 232.075 245.094C232.262 245.208 232.408 245.365 232.512 245.562C232.617 245.76 232.684 245.99 232.716 246.25C232.747 246.5 232.762 246.76 232.762 247.031C232.762 247.177 232.757 247.339 232.747 247.516C232.736 247.693 232.731 247.833 232.731 247.938C233.023 247.635 233.33 247.328 233.653 247.016C233.986 246.693 234.335 246.406 234.7 246.156C235.075 245.896 235.466 245.682 235.872 245.516C236.288 245.349 236.721 245.266 237.169 245.266C237.346 245.266 237.518 245.281 237.684 245.312C237.861 245.344 238.038 245.385 238.216 245.438C238.424 245.49 238.637 245.562 238.856 245.656C239.085 245.74 239.304 245.859 239.512 246.016C239.856 246.276 240.143 246.604 240.372 247C240.611 247.385 240.731 247.781 240.731 248.188C240.731 248.344 240.7 248.516 240.637 248.703C240.575 248.88 240.486 249.047 240.372 249.203C240.268 249.349 240.143 249.474 239.997 249.578C239.851 249.672 239.69 249.719 239.512 249.719C239.335 249.719 239.117 249.677 238.856 249.594C238.606 249.5 238.398 249.38 238.231 249.234C238.158 249.172 238.08 249.083 237.997 248.969C237.924 248.854 237.851 248.74 237.778 248.625C237.716 248.51 237.653 248.406 237.591 248.312C237.538 248.208 237.497 248.141 237.466 248.109C237.413 248.099 237.356 248.094 237.294 248.094C237.231 248.083 237.174 248.078 237.122 248.078C236.591 248.078 236.085 248.214 235.606 248.484C235.127 248.755 234.679 249.089 234.262 249.484C233.846 249.87 233.46 250.286 233.106 250.734C232.762 251.172 232.46 251.568 232.2 251.922C231.992 252.766 231.757 253.667 231.497 254.625C231.247 255.573 230.997 256.568 230.747 257.609V258C230.747 258.312 230.736 258.63 230.716 258.953C230.695 259.276 230.632 259.562 230.528 259.812C230.413 259.969 230.247 260.099 230.028 260.203C229.82 260.318 229.575 260.375 229.294 260.375C228.856 260.375 228.528 260.234 228.309 259.953C228.091 259.661 227.981 259.323 227.981 258.938C227.981 258.76 228.007 258.578 228.059 258.391ZM241.048 254.016C241.204 253.38 241.444 252.708 241.767 252C242.1 251.281 242.532 250.557 243.064 249.828C243.595 249.099 244.23 248.385 244.97 247.688C245.72 246.99 246.585 246.339 247.564 245.734C247.72 245.641 247.96 245.542 248.282 245.438C248.605 245.323 248.939 245.255 249.282 245.234C249.689 244.797 250.236 244.578 250.923 244.578C251.736 244.578 252.418 244.786 252.97 245.203C253.532 245.609 253.996 246.167 254.361 246.875C254.475 247.104 254.579 247.328 254.673 247.547C254.777 247.766 254.861 248 254.923 248.25C254.996 248.49 255.053 248.75 255.095 249.031C255.137 249.312 255.157 249.63 255.157 249.984C255.157 250.807 255.027 251.646 254.767 252.5C254.506 253.354 254.137 254.188 253.657 255C253.178 255.812 252.595 256.594 251.907 257.344C251.23 258.083 250.475 258.75 249.642 259.344C249.079 259.75 248.454 260.062 247.767 260.281C247.09 260.51 246.329 260.625 245.486 260.625C244.683 260.625 243.986 260.516 243.392 260.297C242.808 260.089 242.319 259.786 241.923 259.391C241.538 258.995 241.246 258.521 241.048 257.969C240.861 257.417 240.767 256.802 240.767 256.125C240.767 255.469 240.861 254.766 241.048 254.016ZM243.642 254.219C243.579 254.458 243.532 254.688 243.501 254.906C243.48 255.115 243.47 255.318 243.47 255.516C243.47 255.859 243.512 256.182 243.595 256.484C243.689 256.776 243.835 257.031 244.032 257.25C244.23 257.458 244.475 257.625 244.767 257.75C245.069 257.865 245.433 257.922 245.861 257.922C246.652 257.922 247.387 257.724 248.064 257.328C248.751 256.922 249.361 256.417 249.892 255.812C250.423 255.208 250.866 254.562 251.22 253.875C251.585 253.177 251.84 252.536 251.986 251.953C252.079 251.589 252.157 251.245 252.22 250.922C252.293 250.599 252.329 250.302 252.329 250.031C252.329 249.76 252.277 249.51 252.173 249.281C252.079 249.042 251.954 248.776 251.798 248.484C251.704 248.307 251.611 248.125 251.517 247.938C251.423 247.74 251.34 247.547 251.267 247.359C251.183 247.505 251.095 247.635 251.001 247.75C250.907 247.854 250.767 247.953 250.579 248.047C250.392 248.13 250.137 248.208 249.814 248.281C249.491 248.354 249.069 248.417 248.548 248.469C248.204 248.583 247.855 248.76 247.501 249C247.147 249.24 246.798 249.521 246.454 249.844C246.121 250.167 245.798 250.516 245.486 250.891C245.183 251.266 244.907 251.651 244.657 252.047C244.418 252.432 244.204 252.812 244.017 253.188C243.84 253.562 243.715 253.906 243.642 254.219ZM257.662 258.391C257.797 257.661 257.953 256.859 258.131 255.984C258.308 255.109 258.49 254.224 258.677 253.328C258.865 252.432 259.047 251.552 259.224 250.688C259.401 249.823 259.552 249.031 259.677 248.312C259.667 248.208 259.662 248.12 259.662 248.047C259.662 247.964 259.662 247.875 259.662 247.781C259.662 247.458 259.683 247.135 259.724 246.812C259.766 246.49 259.823 246.193 259.896 245.922C260.011 245.526 260.136 245.26 260.271 245.125C260.417 244.979 260.646 244.906 260.959 244.906C261.261 244.906 261.5 244.969 261.677 245.094C261.865 245.208 262.011 245.365 262.115 245.562C262.219 245.76 262.287 245.99 262.318 246.25C262.349 246.5 262.365 246.76 262.365 247.031C262.365 247.177 262.36 247.339 262.349 247.516C262.339 247.693 262.334 247.833 262.334 247.938C262.625 247.635 262.933 247.328 263.256 247.016C263.589 246.693 263.938 246.406 264.302 246.156C264.677 245.896 265.068 245.682 265.474 245.516C265.891 245.349 266.323 245.266 266.771 245.266C266.948 245.266 267.12 245.281 267.287 245.312C267.464 245.344 267.641 245.385 267.818 245.438C268.026 245.49 268.24 245.562 268.459 245.656C268.688 245.74 268.907 245.859 269.115 246.016C269.459 246.276 269.745 246.604 269.974 247C270.214 247.385 270.334 247.781 270.334 248.188C270.334 248.344 270.302 248.516 270.24 248.703C270.177 248.88 270.089 249.047 269.974 249.203C269.87 249.349 269.745 249.474 269.599 249.578C269.453 249.672 269.292 249.719 269.115 249.719C268.938 249.719 268.719 249.677 268.459 249.594C268.209 249.5 268 249.38 267.834 249.234C267.761 249.172 267.683 249.083 267.599 248.969C267.526 248.854 267.453 248.74 267.381 248.625C267.318 248.51 267.256 248.406 267.193 248.312C267.141 248.208 267.099 248.141 267.068 248.109C267.016 248.099 266.959 248.094 266.896 248.094C266.834 248.083 266.776 248.078 266.724 248.078C266.193 248.078 265.688 248.214 265.209 248.484C264.73 248.755 264.282 249.089 263.865 249.484C263.448 249.87 263.063 250.286 262.709 250.734C262.365 251.172 262.063 251.568 261.802 251.922C261.594 252.766 261.36 253.667 261.099 254.625C260.849 255.573 260.599 256.568 260.349 257.609V258C260.349 258.312 260.339 258.63 260.318 258.953C260.297 259.276 260.235 259.562 260.131 259.812C260.016 259.969 259.849 260.099 259.631 260.203C259.422 260.318 259.177 260.375 258.896 260.375C258.459 260.375 258.131 260.234 257.912 259.953C257.693 259.661 257.584 259.323 257.584 258.938C257.584 258.76 257.61 258.578 257.662 258.391Z" fill="#7785E5"/>
<path d="M145.646 283.463C145.646 283.463 153 283.124 157.86 279.277C162.725 275.433 164.405 272.999 169.174 270.487C173.943 267.975 181.368 264.737 181.494 262.206C181.62 259.674 179.279 259.703 179.454 259.791C179.633 259.882 186.431 258.833 186.741 256.049C187.051 253.266 180.022 253.853 180.022 253.853C180.022 253.853 188.521 250.808 188.078 248.251C187.631 245.691 182.083 245.903 182.083 245.903C182.083 245.903 189.013 244.403 188.118 241.872C187.223 239.341 176.345 240.401 172.044 242.198C167.743 243.994 148.928 262.472 147.921 263.259C146.911 264.045 145.08 265.361 145.08 265.361C145.08 265.361 144.158 280.804 145.646 283.463Z" fill="#FFAEA2"/>
<path d="M166.325 262.652C166.605 262.337 167.022 262.125 167.377 261.896C167.742 261.66 168.117 261.445 168.498 261.239C169.21 260.848 169.93 260.473 170.652 260.104C171.878 259.475 173.117 258.864 174.39 258.353C175.649 257.847 176.94 257.435 178.268 257.249C178.887 257.162 179.516 257.12 180.137 257.163C180.731 257.206 181.5 257.27 181.982 257.612C182.188 257.761 182.156 258.145 181.851 258.202C181.268 258.311 180.635 258.2 180.042 258.226C179.421 258.255 178.8 258.324 178.182 258.439C176.918 258.678 175.682 259.111 174.494 259.618C173.264 260.143 172.078 260.757 170.889 261.37C170.157 261.745 169.423 262.126 168.679 262.473C168.017 262.781 167.251 263.191 166.534 263.264C166.173 263.311 166.14 262.862 166.325 262.652Z" fill="#D87268"/>
<path d="M166.062 255.366C166.728 254.973 167.416 254.612 168.12 254.282C169.478 253.641 170.886 253.103 172.317 252.675C175.118 251.837 178.308 251.221 181.139 251.742C181.452 251.801 181.407 252.316 181.084 252.358C179.684 252.56 178.277 252.641 176.873 252.869C175.433 253.102 174.006 253.403 172.6 253.837C171.224 254.257 169.882 254.787 168.585 255.417C167.933 255.734 167.296 256.074 166.664 256.433C166.349 256.613 166.036 256.788 165.718 256.962C165.403 257.13 165.051 257.366 164.698 257.411C164.312 257.456 164.081 257.129 164.266 256.782C164.586 256.18 165.481 255.705 166.062 255.366Z" fill="#D87268"/>
<path d="M162.555 249.292C162.759 249.042 163.017 248.885 163.259 248.675C163.53 248.435 163.822 248.216 164.129 248.02C164.724 247.643 165.331 247.294 165.958 246.971C167.204 246.327 168.477 245.735 169.774 245.21C172.35 244.174 175.037 243.403 177.771 243.142C178.544 243.067 179.32 243.038 180.092 243.047C180.752 243.058 181.634 243.057 182.214 243.355C182.406 243.452 182.292 243.699 182.126 243.76C181.56 243.962 180.834 243.93 180.24 243.972C179.58 244.022 178.928 244.098 178.273 244.19C176.974 244.373 175.676 244.635 174.405 244.982C171.852 245.671 169.381 246.667 167.006 247.871C166.337 248.213 165.681 248.589 165.005 248.922C164.679 249.081 164.357 249.252 164.026 249.391C163.679 249.54 163.295 249.743 162.926 249.82C162.631 249.881 162.347 249.55 162.555 249.292Z" fill="#D87268"/>
<path d="M288.68 193.069C288.68 193.069 287.152 193.518 287.82 196.346C288.68 199.996 300.361 200.185 306.773 199.527C313.184 198.87 314.623 196.25 316.057 190.26C317.49 184.271 317.016 173.975 311.172 170.601C305.334 167.231 296.525 169.291 292.407 171.069C288.289 172.848 285.897 175.565 285.417 177.624C284.938 179.684 288.289 180.525 288.289 180.525C288.289 180.525 286.277 181.463 285.704 183.705C285.131 185.953 288.383 186.794 288.383 186.794C288.383 186.794 286.277 187.452 286.085 190.072C285.902 192.697 288.68 193.069 288.68 193.069Z" fill="#FFAEA2"/>
<path d="M289.589 192.392C290.395 192.3 291.191 192.146 292.002 192.063C292.812 191.981 293.623 191.914 294.434 191.846C296.09 191.706 297.741 191.575 299.397 191.45C301.023 191.324 302.645 191.203 304.271 191.092C305.082 191.034 305.898 190.976 306.708 190.918C307.519 190.86 308.315 190.807 309.101 191.043C309.422 191.14 309.393 191.585 309.121 191.711C308.399 192.049 307.613 192.102 306.822 192.155C306.011 192.213 305.196 192.271 304.385 192.329C302.729 192.445 301.068 192.556 299.412 192.663C297.785 192.769 296.154 192.866 294.528 192.958C293.712 193.006 292.896 193.05 292.081 193.083C291.255 193.117 290.44 193.079 289.614 193.098C289.194 193.117 289.179 192.44 289.589 192.392Z" fill="#D87268"/>
<path d="M288.601 186.412C289.056 185.832 289.758 185.61 290.45 185.426C291.34 185.19 292.244 184.991 293.149 184.808C295.042 184.416 296.965 184.136 298.883 183.923C300.777 183.71 302.675 183.56 304.578 183.464C305.522 183.415 306.467 183.386 307.416 183.367C307.905 183.357 308.399 183.348 308.889 183.362C309.353 183.377 309.848 183.362 310.283 183.556C310.629 183.71 310.683 184.218 310.303 184.377C309.526 184.711 308.493 184.585 307.658 184.595C306.729 184.609 305.799 184.638 304.875 184.682C303.065 184.769 301.256 184.909 299.452 185.098C297.647 185.291 295.853 185.547 294.059 185.794C293.144 185.919 292.234 186.064 291.325 186.2C290.583 186.311 289.619 186.296 289.056 186.843C288.799 187.094 288.388 186.688 288.601 186.412Z" fill="#D87268"/>
<path d="M288.719 180.061C289.09 179.824 289.407 179.519 289.782 179.292C290.148 179.07 290.529 178.872 290.919 178.693C291.681 178.345 292.476 178.064 293.272 177.808C294.958 177.272 296.678 176.866 298.404 176.474C300.168 176.073 301.953 175.691 303.762 175.536C304.652 175.459 305.557 175.43 306.447 175.507C307.287 175.58 308.325 175.72 309.002 176.252C309.259 176.45 309.195 176.933 308.824 176.967C308.004 177.04 307.139 176.822 306.318 176.769C305.448 176.711 304.578 176.725 303.708 176.808C301.983 176.967 300.297 177.339 298.606 177.682C296.98 178.011 295.349 178.354 293.757 178.814C292.941 179.05 292.14 179.321 291.339 179.616C290.974 179.751 290.608 179.887 290.237 180.022C289.822 180.177 289.367 180.273 288.972 180.472C288.729 180.583 288.487 180.211 288.719 180.061Z" fill="#D87268"/>
<path d="M65.9137 137.834C71.0385 137.809 79.9524 146.522 84.7304 168.466C89.8424 192.018 86.169 204.334 85.2314 210.649C84.3066 216.963 80.0808 261.289 84.7304 264.34C89.38 267.391 119.47 263.838 121.975 265.419C124.48 267.001 139.639 270.278 139.639 270.278L145.711 295.648C145.711 295.648 79.6281 302.552 72.2941 299.426C64.9472 296.3 45.8768 287.556 44.4896 267.318C43.0768 246.755 36.5391 199.839 37.0914 195.772C37.6437 191.704 32.0693 137.972 65.9137 137.834Z" fill="#EDDAD3"/>
<path d="M76.9444 272.783C76.0724 272.702 74.3344 272.337 74.3344 272.337C74.3344 272.337 73.9375 271.711 74.3362 271.564C75.2169 271.256 76.2278 271.296 77.1544 271.357C78.0513 271.42 78.947 271.533 79.8344 271.651C81.3506 271.86 82.9973 272.075 84.4586 272.601C87.1986 273.516 82.4456 274.189 84.5449 273.692C85.991 272.237 74.1747 272.847 80.5998 272.613C82.2574 272.554 83.831 272.887 85.4874 272.877C86.3423 267.511 87.6326 262.209 88.5101 256.839C89.4244 251.256 90.111 245.635 90.5805 239.999C91.5182 228.777 91.6029 217.492 90.8226 206.255C90.5997 203.099 90.3173 199.948 89.9602 196.805C89.5996 193.641 89.0302 190.456 88.9734 187.271C88.9573 186.559 90.0205 186.466 90.2217 187.123C91.0525 189.855 91.3588 192.741 91.6983 195.561C92.0331 198.367 92.3145 201.185 92.5449 204.002C92.7141 206.072 92.8382 208.148 92.9481 210.222C93.2813 207.406 93.6953 204.589 94.006 201.777C94.5353 196.938 95.0576 192.098 95.5289 187.256C95.6628 185.889 95.7825 184.519 95.9152 183.159C96.048 181.799 96.1025 180.341 96.5888 179.053C96.7624 178.6 97.5349 178.493 97.6496 179.058C97.8859 180.231 97.7699 181.453 97.6824 182.636C97.5853 183.875 97.4752 185.104 97.3567 186.339C97.1282 188.761 96.8844 191.188 96.6131 193.603C96.0718 198.511 95.4309 203.402 94.7247 208.29C94.3286 211.046 93.9551 213.798 93.2613 216.497C93.2446 216.551 93.2209 216.604 93.1924 216.642C93.2233 218.114 93.247 219.586 93.2483 221.06C93.2786 232.442 92.4095 243.818 90.6827 255.072C90.1938 258.238 89.6396 261.4 89.0155 264.543C88.458 267.343 87.8637 270.144 87.0026 272.88C98.438 272.885 109.884 273.764 121.314 272.954C128.941 272.415 136.639 271.044 143.772 268.325C144.47 268.057 144.951 269.214 144.262 269.512C138.004 272.255 131.409 273.723 124.59 274.46C117.711 275.201 110.776 275.209 103.86 275.065C90.7861 274.796 96.5588 272.319 83.6513 274.856C86.8514 274.263 80.1648 275.541 83.6513 274.856C82.0455 275.462 80.4562 276.142 78.9144 276.887C77.2859 277.666 75.6195 278.412 74.0194 279.239C73.5126 279.502 72.9163 278.801 73.3983 278.427C74.6378 277.441 75.8665 276.517 77.2613 275.734C78.6323 274.962 80.0803 274.294 81.5461 273.692C81.8061 273.587 82.5237 273.075 82.7825 272.976C81.8915 272.836 80.5452 273.13 79.6483 273.024C78.7442 272.917 77.8461 272.861 76.9444 272.783Z" fill="#D8BFBC"/>
<path d="M140.131 297.973C140.131 297.973 161.115 290.954 158.911 286.019C156.703 281.087 155.36 281.556 142.409 266.022L77.0044 261.127C77.0096 261.133 108.826 307.763 140.131 297.973Z" fill="#EDDAD3"/>
<path d="M121.975 318.332L125.288 318.368C129.039 316.476 132.606 314.24 135.979 311.761C138.638 309.807 141.18 307.705 143.603 305.492C147.629 301.82 151.367 297.859 154.909 293.755C155.447 293.133 155.974 292.506 156.502 291.879C156.855 291.461 157.208 291.038 157.556 290.62C158.384 289.625 159.52 288.543 159.484 287.171C159.466 286.478 159.119 285.872 158.777 285.281C158.696 285.139 158.609 284.993 158.522 284.851C158.517 284.841 158.512 284.836 158.512 284.826C158.206 284.315 157.9 283.805 157.598 283.299C156.813 281.98 155.948 280.715 155.105 279.435C154.839 279.031 154.148 279.44 154.361 279.864C155.124 281.354 155.872 282.838 156.708 284.299C157.101 284.981 157.592 285.669 157.87 286.406C158.153 287.142 158.016 287.703 157.551 288.315C155.772 290.656 153.754 292.874 151.789 295.072C145.119 302.521 137.669 309.5 128.96 314.697C128.588 314.919 128.211 315.141 127.829 315.358C125.929 316.437 123.972 317.435 121.975 318.332Z" fill="#D8BFBC"/>
</svg>
