<svg width="314" height="659" viewBox="0 0 314 659" fill="none" xmlns="http://www.w3.org/2000/svg">
<g clip-path="url(#clip0_248_218)" filter="url(#filter0_d_248_218)">
<path d="M246.043 533.401C246.043 533.401 239.94 544.596 239.064 546.295C238.189 547.994 220.468 538.208 220.468 538.208L224.183 523.565C224.183 523.565 244.317 530.86 246.043 533.401Z" fill="#424773"/>
<path d="M239.821 544.866C239.821 544.866 243.118 554.199 247.716 559.439C252.314 564.679 272.534 575.078 274.739 579.555C276.334 582.786 276.939 593.646 243.65 580.31C219.998 570.834 207.714 568.592 206.581 563.809C205.447 559.026 220.804 536.901 220.804 536.901C220.804 536.901 225.324 541.047 239.821 544.866Z" fill="#8B92DB"/>
<path d="M66.8649 593.834C66.8649 593.834 61.9316 611.173 60.5612 617.03C59.1909 622.887 61.2444 638.207 59.8781 644.065C58.5118 649.922 55.1084 651.604 52.3799 650.816C46.2865 649.082 40.8481 645.576 36.7578 640.744C30.8264 633.768 33.154 620.885 32.4381 612.659C31.7672 604.956 28.3475 600.892 35.007 594.488C43.5974 586.241 44.7386 581.515 44.7386 581.515L66.8649 593.834Z" fill="#8B92DB"/>
<path d="M187.694 351.671C187.694 351.671 184.679 385.498 181.677 405.757C178.907 424.431 163.269 483.411 157.804 491.163C147.851 505.275 125.165 528.834 120.464 535.03C112.803 545.127 67.2862 605.454 67.2862 605.454C67.2862 605.454 54.5153 602.632 37.7927 586.788C37.7927 586.788 85.2891 533.102 92.37 517.218C97.7533 505.152 121.004 470.386 120.902 464.794C120.714 455.457 127.374 351.577 136.831 333.054C146.289 314.531 187.694 351.671 187.694 351.671Z" fill="#E3E3E3"/>
<path d="M216.423 331.543C216.423 331.543 275.565 385.074 282.818 397.225C290.07 409.376 294.73 410.932 291.625 423.86C288.52 436.787 243.462 541.083 242.676 544.351C241.813 547.949 218.844 537.15 216.774 536.893C214.705 536.635 226.432 505.443 230.838 492.756C235.244 480.07 248.763 436.799 252.388 430.317C256.012 423.835 179.488 384.298 171.458 374.728C163.428 365.158 174.989 320.768 216.423 331.543Z" fill="#E3E3E3"/>
<path d="M220.468 336.608C220.468 336.608 183.848 376.943 123.434 399.789C121.924 400.36 120.406 398.985 120.821 397.425L129.746 363.884L220.468 336.608Z" fill="#D88A51"/>
<path d="M271.417 121.447C277.422 108.728 293.789 49.3075 293.789 49.3075L280.809 47.6982C280.809 47.6982 272.194 62.4023 262.205 89.3065C259.227 97.3325 247.07 112.245 246.468 113.609C245.867 114.973 222.559 143.834 213.265 149.058C208.92 151.509 199.512 157.79 193.458 165.396C187.404 173.001 191.723 182.085 191.723 182.085C208.115 199.039 232.135 172.139 232.135 172.139C232.135 172.139 260.503 144.59 271.417 121.447Z" fill="#EEA886"/>
<path d="M224.215 246.378C224.215 246.378 223.094 254.788 217.441 257.684L212.569 248.469L224.215 246.378Z" fill="#979FF0"/>
<path d="M139.834 284.012C138.964 299.508 135.427 314.738 129.378 329.035C129.378 329.035 108.925 337.474 99.0541 324.681C95.1639 319.645 91.7728 302.711 90.341 281.116C88.1321 247.861 90.5783 203.544 103.022 174.569C103.034 174.569 143.303 221.953 139.834 284.012Z" fill="#979FF0"/>
<path d="M139.834 284.012C138.964 299.508 135.427 314.738 129.378 329.035C129.378 329.035 108.925 337.474 99.0541 324.681C95.1639 319.645 91.7728 302.711 90.341 281.116L139.834 284.012Z" fill="#979FF0"/>
<path d="M308.388 14.1445C307.276 14.0751 301.631 23.9472 299.274 28.1787L299.045 28.0071C301.197 22.5503 306.952 7.96064 307.492 6.53517C308.155 4.78702 306.188 3.54127 305.108 4.12534C304.097 4.66857 296.865 19.9567 294.255 25.5279L294.124 25.4788C296.48 19.4992 303.103 2.45072 303.222 1.49496C303.369 0.355396 301.07 -0.424734 300.416 0.269622C299.479 1.24581 291.416 18.5761 288.827 24.1228L288.459 24.0656C289.596 19.2582 292.701 6.16757 293.077 4.49294C293.539 2.40987 292.39 1.93608 290.754 2.97761C289.31 3.91704 284.454 21.6313 283.476 25.2338C282.143 28.3747 281.3 36.5804 279.795 34.9793C278.093 33.1658 271.814 23.3549 269.294 24.3842C266.774 25.4135 271.863 30.9683 272.775 33.0759C273.454 34.6484 275.639 39.7703 278.568 42.1557C281.987 44.9658 280.519 52.3096 280.519 52.3096L292.345 53.7596C292.84 51.9886 293.424 50.2437 294.096 48.5315C294.652 47.3061 300.391 40.7016 301.819 33.419C301.842 33.3043 301.86 33.1884 301.872 33.0718C301.872 33.0718 306.474 22.8607 308.859 18.8089C311.244 14.7572 309.247 14.1976 308.388 14.1445Z" fill="#EEA886"/>
<path d="M15.3883 347.995C15.3883 347.995 4.7445 367.968 5.22719 369.827C5.70989 371.685 6.86345 372.13 7.94338 370.3C9.0233 368.47 18.7958 351.263 18.7958 351.263C18.7958 351.263 10.3855 376.766 10.41 378.375C10.41 379.315 12.6394 380.311 13.3103 379.376C13.9812 378.441 23.8478 353.574 23.8478 353.574C23.8478 353.574 16.0428 377.399 16.4846 378.731C16.8937 379.891 19.1681 380.319 19.8758 378.588C20.5834 376.856 29.1574 355.106 29.1574 355.106C29.1574 355.106 24.6332 372.751 25.7254 373.65C26.3921 374.197 28.2616 375.14 29.2801 370.558C30.2987 365.975 33.9025 355.347 33.9025 355.347L15.3883 347.995Z" fill="#EEA886"/>
<path d="M31.4073 326.756C31.4073 326.756 27.4557 333.136 23.0378 332.883C19.2826 332.65 14.1734 334.896 12.5985 335.582C10.4959 336.506 2.97325 337.106 4.11863 339.573C5.26401 342.04 16.5542 339.14 19.0372 338.973C21.5202 338.805 14.7952 347.26 14.8361 349.682C14.877 352.104 30.1801 361.359 34.0989 355.073C38.0177 348.788 37.8296 339.757 38.7704 338.772C39.7113 337.788 41.8097 334.28 41.8097 334.28L31.4073 326.756Z" fill="#EEA886"/>
<path d="M174.121 155.728C174.121 155.728 195.888 159.992 205.619 154.094C209.325 156.667 217.212 191.483 218.427 199.46C219.642 207.437 219.716 241.289 217.662 254.118C215.609 266.947 227.545 325.776 222.195 335.194C222.195 335.194 179.862 372.062 128.781 372.787C126.615 372.818 124.876 371.086 124.855 368.921C124.707 353.585 123.934 296.98 120.538 282.448C115.519 260.849 103.677 211.121 103.677 211.121C103.677 211.121 98.1623 177.796 103.64 175.088C115.449 169.247 146.976 157.774 146.976 157.774L174.121 155.728Z" fill="#D44040"/>
<path d="M180.045 161.818C180.045 161.818 172.821 165.963 146.964 157.733C146.964 157.733 145.847 140.754 139.306 125.466C132.765 110.178 174.702 142.968 174.702 142.968C174.334 143.291 174.424 144.875 174.89 147.052C175.371 149.229 176.012 151.367 176.809 153.449C178.764 158.616 178.339 157.709 180.045 161.818Z" fill="#EEA987"/>
<path d="M176.809 153.485C151.856 151.995 146.677 138.459 146.6 138.246C157.452 149.503 174.825 146.824 174.825 146.824C175.325 149.089 175.989 151.315 176.809 153.485Z" fill="#A77860"/>
<path d="M92.9222 277.334C83.4074 287.713 40.2717 336.689 40.2717 336.689L30.4541 328.112C30.4541 328.112 43.0942 305.1 60.7739 279.777C65.6827 272.755 72.1704 256.234 73.1277 255.094C74.0849 253.955 88.5043 220.164 90.1529 209.634C90.8074 205.456 94.7753 193.121 97.3524 182.616C100.216 170.861 127.484 165.094 127.484 165.094C149.983 172.209 119.262 216.235 119.262 216.235C119.262 216.235 106.266 262.818 92.9222 277.334Z" fill="#EEA886"/>
<path d="M120.231 221.23L86.5572 215.295C86.5572 215.295 87.2526 180.512 110.692 169.141C134.131 157.77 146.947 157.737 146.947 157.737L120.231 221.23Z" fill="#D44040"/>
<path d="M118.967 276.828L113.76 271.685C133.289 248.812 139.605 224.661 132.536 199.942C127.247 181.452 114.177 167.675 114.067 167.569L121.213 164.493C121.72 165.024 133.8 177.739 139.576 197.937C142.976 209.571 143.537 221.849 141.212 233.745C138.308 248.449 130.581 263.214 118.967 276.828Z" fill="#979FF0"/>
<path d="M219.519 144.148L235.231 174.569C235.231 174.569 222.804 184.535 218.39 210.349C214.709 231.842 195.483 156.941 195.483 156.941C195.483 156.941 204.224 156.165 219.519 144.148Z" fill="#D44040"/>
<path d="M224.215 246.378L218.227 249.437C221.262 210.696 216.075 191.753 211.628 178.478C206.846 164.183 199.234 156.095 199.168 156.014L206.184 152.95C207.305 154.074 231.885 175.558 224.215 246.378Z" fill="#979FF0"/>
<path d="M183.01 156.9C183.01 156.9 207.632 189.49 187.007 197.357C160.103 207.625 137.764 159.159 137.764 159.159C137.764 159.159 153.275 152.807 183.01 156.9Z" fill="#EEA987"/>
<path d="M167.998 73.9489C167.998 73.9489 188.86 76.2362 190.365 114.009C192.002 155.671 160.994 149.752 152.322 143.462C143.65 137.172 135.039 121.815 132.585 109.586C130.131 97.3569 126.789 63.8072 167.998 73.9489Z" fill="#EEA886"/>
<path d="M165.408 91.7571C165.408 91.7571 186.561 106.053 191.74 105.644C191.76 105.636 190.214 79.9122 165.408 91.7571Z" fill="#E8734D"/>
<path d="M144.35 113.723C142.562 110.231 137.428 105.987 136.385 111.828C135.342 117.669 142.975 129.281 145 127.124C147.025 124.968 147.643 120.152 144.35 113.723Z" fill="#EEA886"/>
<path d="M114.067 167.569C116.145 165.948 118.606 164.889 121.213 164.493C121.213 164.493 117.077 167.605 114.067 167.569Z" fill="#323657"/>
<path d="M138.239 115.755C138.524 115.685 138.809 115.722 139.094 115.739C139.379 115.751 139.65 115.789 139.931 115.847C140.506 115.967 141.081 116.155 141.623 116.367C141.759 116.421 141.885 116.479 142.02 116.533C141.24 115.522 140.324 114.565 139.393 113.667C139.024 113.309 139.613 112.814 140.034 113.072C141.497 113.966 142.638 115.11 143.582 116.442C144.045 117.099 144.47 117.777 144.816 118.489C144.989 118.838 145.148 119.192 145.283 119.554C145.358 119.758 145.419 119.958 145.466 120.166C145.517 120.382 145.498 120.553 145.498 120.769C145.503 121.293 144.732 121.26 144.498 120.914C144.577 121.035 144.39 120.815 144.367 120.786C144.316 120.711 144.292 120.636 144.255 120.557C144.175 120.39 144.096 120.228 144.026 120.057C143.886 119.716 143.741 119.383 143.577 119.05C143.409 118.705 143.227 118.368 143.035 118.035C142.923 117.977 142.81 117.919 142.698 117.865C142.207 117.636 141.703 117.432 141.184 117.249C140.665 117.066 140.137 116.924 139.608 116.762C139.347 116.683 139.094 116.587 138.837 116.5C138.585 116.413 138.337 116.35 138.113 116.209C137.898 116.071 138.019 115.809 138.239 115.755Z" fill="#D87268"/>
<path d="M170.953 126.903C171.58 127.157 172.127 127.544 172.753 127.806C173.342 128.051 173.968 128.243 174.618 128.284C174.838 128.297 175.118 128.301 175.315 128.189C175.544 128.056 175.558 127.798 175.567 127.573C175.59 126.891 175.483 126.192 175.436 125.513C175.221 122.484 175.011 119.46 174.81 116.431C174.754 115.59 174.698 114.75 174.67 113.909C174.655 113.489 174.632 113.069 174.637 112.653C174.641 112.208 174.73 111.767 174.73 111.325C174.726 110.922 175.464 110.909 175.52 111.305C175.576 111.721 175.726 112.124 175.787 112.54C175.847 112.956 175.89 113.377 175.936 113.797C176.025 114.637 176.091 115.478 176.151 116.318C176.278 118.028 176.408 119.738 176.53 121.448C176.647 123.133 176.768 124.819 176.885 126.504C176.932 127.198 177.072 127.964 176.694 128.609C176.338 129.212 175.637 129.487 174.899 129.508C173.323 129.558 171.093 128.796 170.383 127.456C170.205 127.14 170.589 126.757 170.953 126.903Z" fill="#D87268"/>
<path d="M168.677 145.355C168.812 145.197 169.004 145.143 169.205 145.077C169.303 145.043 169.387 145.01 169.49 144.989C169.621 144.964 169.756 144.973 169.887 144.968C170.247 144.948 170.659 144.989 171.037 145.031C171.832 145.122 172.715 145.26 173.389 145.667C173.557 145.767 173.618 145.984 173.548 146.15C173.468 146.333 173.276 146.412 173.071 146.412C172.706 146.416 172.337 146.358 171.977 146.304C171.612 146.25 171.243 146.208 170.874 146.175C170.504 146.142 170.135 146.121 169.766 146.092C169.415 146.067 168.938 145.967 168.686 145.726C168.588 145.626 168.592 145.455 168.677 145.355Z" fill="#D87268"/>
<path d="M181.079 116.439C181.079 117.55 181.808 118.453 182.71 118.453C183.608 118.453 184.341 117.55 184.341 116.439C184.341 115.328 183.612 114.425 182.71 114.425C181.808 114.421 181.079 115.324 181.079 116.439Z" fill="black"/>
<path d="M158.267 116.439C158.267 117.55 158.996 118.453 159.898 118.453C160.8 118.453 161.529 117.55 161.529 116.439C161.529 115.328 160.8 114.425 159.898 114.425C158.996 114.425 158.267 115.324 158.267 116.439Z" fill="black"/>
<path d="M165.334 134.809C165.797 135.071 166.246 135.316 166.685 135.607C167.097 135.878 167.532 136.136 167.98 136.36C168.892 136.81 169.906 137.122 170.935 137.263C172.028 137.413 173.136 137.388 174.221 137.188C175.347 136.98 176.371 136.514 177.479 136.252C177.82 136.173 178.101 136.598 177.876 136.831C177.058 137.679 175.773 138.091 174.585 138.337C173.333 138.595 172 138.649 170.734 138.462C169.537 138.287 168.396 137.929 167.335 137.409C166.807 137.151 166.311 136.86 165.858 136.506C165.381 136.136 165.049 135.716 164.769 135.216C164.582 134.896 165.035 134.638 165.334 134.809Z" fill="#D87268"/>
<path d="M179.41 106.965C179.311 108.163 180.503 107.926 182.948 108.084C185.393 108.242 188.16 108.738 188.259 107.539C188.357 106.341 185.463 105.176 183.018 105.018C180.578 104.86 179.508 105.767 179.41 106.965Z" fill="#5F2E32"/>
<path d="M164.362 107.045C164.465 108.289 163.17 108.043 160.515 108.214C157.86 108.384 154.849 108.909 154.751 107.665C154.648 106.42 157.799 105.206 160.454 105.035C163.109 104.864 164.264 105.801 164.362 107.045Z" fill="#5F2E32"/>
<path d="M188.974 97.8839C188.974 97.8839 185.96 84.3848 169.552 90.0785C153.145 95.7722 139.122 111.726 142.583 132.741C142.583 132.741 112.721 98.5701 128.527 79.6019C144.333 60.6337 182.646 60.9033 188.974 97.8839Z" fill="#11575A"/>
</g>
<defs>
<filter id="filter0_d_248_218" x="0" y="0" width="314" height="659" filterUnits="userSpaceOnUse" color-interpolation-filters="sRGB">
<feFlood flood-opacity="0" result="BackgroundImageFix"/>
<feColorMatrix in="SourceAlpha" type="matrix" values="0 0 0 0 0 0 0 0 0 0 0 0 0 0 0 0 0 0 127 0" result="hardAlpha"/>
<feOffset dy="4"/>
<feGaussianBlur stdDeviation="2"/>
<feComposite in2="hardAlpha" operator="out"/>
<feColorMatrix type="matrix" values="0 0 0 0 0 0 0 0 0 0 0 0 0 0 0 0 0 0 0.25 0"/>
<feBlend mode="normal" in2="BackgroundImageFix" result="effect1_dropShadow_248_218"/>
<feBlend mode="normal" in="SourceGraphic" in2="effect1_dropShadow_248_218" result="shape"/>
</filter>
<clipPath id="clip0_248_218">
<rect width="306" height="651" fill="white" transform="translate(4)"/>
</clipPath>
</defs>
</svg>
