<svg width="1440" height="516" viewBox="0 0 1440 516" fill="none" xmlns="http://www.w3.org/2000/svg">
<g filter="url(#filter0_d_205_719)">
<path d="M0 0H1440V507H0V0Z" fill="#2F3B52"/>
<path d="M935.304 496.35C960.211 489.697 986.319 485.712 1012.49 482.703C1040.27 479.513 1068.28 477.242 1096.36 475.868C1123.64 474.528 1150.89 474.403 1178.21 474.29C1203.34 474.176 1229.42 473.359 1252.78 466.036C1298.25 451.775 1318.74 416.704 1342.01 387.763C1354.02 372.833 1367.74 358.119 1386.75 347.321C1401.98 338.681 1420.62 332.312 1440.14 331.346V507H903C913.336 502.845 924.193 499.325 935.304 496.35Z" fill="#242E42"/>
<path d="M855.002 337.878L867.491 325.358L879.979 337.878L867.491 350.398L855.002 337.878Z" fill="#E2E9FC"/>
<path d="M855.007 413.485L867.496 400.965L879.984 413.485L867.496 426.005L855.007 413.485Z" fill="#E2E9FC"/>
<path d="M855 386.915L867.489 374.395L879.977 386.915L867.489 399.435L855 386.915Z" fill="#E2E9FC"/>
<path d="M855.008 361.723L867.497 349.203L879.985 361.723L867.497 374.243L855.008 361.723Z" fill="#E2E9FC"/>
<path d="M1013.83 142.61L1001.34 130.09L1013.83 117.57L1026.32 130.09L1013.83 142.61Z" fill="#E2E9FC"/>
<path d="M1089.24 142.605L1076.75 130.085L1089.24 117.565L1101.73 130.085L1089.24 142.605Z" fill="#E2E9FC"/>
<path d="M1062.75 142.612L1050.26 130.092L1062.75 117.572L1075.24 130.092L1062.75 142.612Z" fill="#E2E9FC"/>
<path d="M1037.6 142.604L1025.12 130.084L1037.6 117.564L1050.09 130.084L1037.6 142.604Z" fill="#E2E9FC"/>
<path d="M702.669 70.4383C702.669 73.4538 705.098 75.8883 708.106 75.8883C711.114 75.8883 713.542 73.4538 713.542 70.4383C713.542 67.4227 711.114 64.9882 708.106 64.9882C705.098 64.9882 702.669 67.4227 702.669 70.4383Z" fill="#CBFDFF"/>
<path d="M702.669 97.7028C702.669 100.718 705.098 103.153 708.106 103.153C711.114 103.153 713.542 100.718 713.542 97.7028C713.542 94.6872 711.114 92.2527 708.106 92.2527C705.098 92.2527 702.669 94.6872 702.669 97.7028Z" fill="#CBFDFF"/>
<path d="M702.669 124.953C702.669 127.969 705.098 130.403 708.106 130.403C711.114 130.403 713.542 127.969 713.542 124.953C713.542 121.937 711.114 119.503 708.106 119.503C705.098 119.503 702.669 121.951 702.669 124.953Z" fill="#CBFDFF"/>
<path d="M702.669 152.218C702.669 155.233 705.098 157.668 708.106 157.668C711.114 157.668 713.542 155.233 713.542 152.218C713.542 149.202 711.114 146.768 708.106 146.768C705.098 146.768 702.669 149.216 702.669 152.218Z" fill="#CBFDFF"/>
<path d="M678.729 70.4383C678.729 73.4538 681.157 75.8884 684.165 75.8884C687.173 75.8884 689.602 73.4538 689.602 70.4383C689.602 67.4228 687.173 64.9882 684.165 64.9882C681.171 64.9744 678.729 67.4228 678.729 70.4383Z" fill="#CBFDFF"/>
<path d="M678.729 97.7028C678.729 100.718 681.157 103.153 684.165 103.153C687.173 103.153 689.602 100.718 689.602 97.7028C689.602 94.6873 687.173 92.2527 684.165 92.2527C681.171 92.2389 678.729 94.6873 678.729 97.7028Z" fill="#CBFDFF"/>
<path d="M678.729 124.953C678.729 127.968 681.157 130.403 684.165 130.403C687.173 130.403 689.602 127.968 689.602 124.953C689.602 121.937 687.173 119.503 684.165 119.503C681.171 119.503 678.729 121.951 678.729 124.953Z" fill="#CBFDFF"/>
<path d="M678.729 152.217C678.729 155.233 681.157 157.667 684.165 157.667C687.173 157.667 689.602 155.233 689.602 152.217C689.602 149.202 687.173 146.767 684.165 146.767C681.171 146.767 678.729 149.216 678.729 152.217Z" fill="#CBFDFF"/>
<path d="M653.713 70.4384C653.713 73.4539 656.141 75.8885 659.149 75.8885C662.157 75.8885 664.586 73.4539 664.586 70.4384C664.586 67.4228 662.157 64.9883 659.149 64.9883C656.141 64.9883 653.713 67.4228 653.713 70.4384Z" fill="#CBFDFF"/>
<path d="M653.713 97.7029C653.713 100.718 656.141 103.153 659.149 103.153C662.157 103.153 664.586 100.718 664.586 97.7029C664.586 94.6874 662.157 92.2528 659.149 92.2528C656.141 92.2528 653.713 94.6874 653.713 97.7029Z" fill="#CBFDFF"/>
<path d="M653.713 124.953C653.713 127.969 656.141 130.403 659.149 130.403C662.157 130.403 664.586 127.969 664.586 124.953C664.586 121.938 662.157 119.503 659.149 119.503C656.141 119.503 653.713 121.951 653.713 124.953Z" fill="#CBFDFF"/>
<path d="M653.713 152.218C653.713 155.233 656.141 157.668 659.149 157.668C662.157 157.668 664.586 155.233 664.586 152.218C664.586 149.202 662.157 146.768 659.149 146.768C656.141 146.768 653.713 149.216 653.713 152.218Z" fill="#CBFDFF"/>
<path d="M629.787 70.4384C629.787 73.4539 632.216 75.8885 635.224 75.8885C638.232 75.8885 640.66 73.4539 640.66 70.4384C640.66 67.4228 638.232 64.9883 635.224 64.9883C632.216 64.9883 629.787 67.4228 629.787 70.4384Z" fill="#CBFDFF"/>
<path d="M629.787 97.7029C629.787 100.718 632.216 103.153 635.224 103.153C638.232 103.153 640.66 100.718 640.66 97.7029C640.66 94.6874 638.232 92.2528 635.224 92.2528C632.216 92.2528 629.787 94.6874 629.787 97.7029Z" fill="#CBFDFF"/>
<path d="M629.787 124.953C629.787 127.969 632.216 130.403 635.224 130.403C638.232 130.403 640.66 127.969 640.66 124.953C640.66 121.938 638.232 119.503 635.224 119.503C632.216 119.503 629.787 121.951 629.787 124.953Z" fill="#CBFDFF"/>
<path d="M629.787 152.218C629.787 155.233 632.216 157.668 635.224 157.668C638.232 157.668 640.66 155.233 640.66 152.218C640.66 149.202 638.232 146.768 635.224 146.768C632.216 146.768 629.787 149.216 629.787 152.218Z" fill="#CBFDFF"/>
<path d="M1368.6 26.4088C1368.6 29.4243 1371.03 31.8589 1374.04 31.8589C1377.04 31.8589 1379.47 29.4243 1379.47 26.4088C1379.47 23.3932 1377.04 20.9587 1374.04 20.9587C1371.04 20.9448 1368.6 23.3932 1368.6 26.4088Z" fill="white"/>
<path d="M1368.6 53.6597C1368.6 56.6752 1371.03 59.1098 1374.04 59.1098C1377.04 59.1098 1379.47 56.6752 1379.47 53.6597C1379.47 50.6442 1377.04 48.2096 1374.04 48.2096C1371.04 48.2096 1368.6 50.658 1368.6 53.6597Z" fill="white"/>
<path d="M1368.6 80.9234C1368.6 83.9389 1371.03 86.3735 1374.04 86.3735C1377.04 86.3735 1379.47 83.9389 1379.47 80.9234C1379.47 77.9078 1377.04 75.4733 1374.04 75.4733C1371.04 75.4733 1368.6 77.9217 1368.6 80.9234Z" fill="white"/>
<path d="M1368.6 108.188C1368.6 111.203 1371.03 113.638 1374.04 113.638C1377.04 113.638 1379.47 111.203 1379.47 108.188C1379.47 105.172 1377.04 102.738 1374.04 102.738C1371.04 102.738 1368.6 105.172 1368.6 108.188Z" fill="white"/>
<path d="M1344.67 26.4088C1344.67 29.4243 1347.1 31.8589 1350.11 31.8589C1353.12 31.8589 1355.55 29.4243 1355.55 26.4088C1355.55 23.3932 1353.12 20.9587 1350.11 20.9587C1347.1 20.9448 1344.67 23.3932 1344.67 26.4088Z" fill="white"/>
<path d="M1344.67 53.6597C1344.67 56.6752 1347.1 59.1098 1350.11 59.1098C1353.12 59.1098 1355.55 56.6752 1355.55 53.6597C1355.55 50.6442 1353.12 48.2096 1350.11 48.2096C1347.1 48.2096 1344.67 50.658 1344.67 53.6597Z" fill="white"/>
<path d="M1344.67 80.9234C1344.67 83.9389 1347.1 86.3735 1350.11 86.3735C1353.12 86.3735 1355.55 83.9389 1355.55 80.9234C1355.55 77.9078 1353.12 75.4733 1350.11 75.4733C1347.1 75.4733 1344.67 77.9217 1344.67 80.9234Z" fill="white"/>
<path d="M1344.67 108.188C1344.67 111.203 1347.1 113.638 1350.11 113.638C1353.12 113.638 1355.55 111.203 1355.55 108.188C1355.55 105.172 1353.12 102.738 1350.11 102.738C1347.1 102.738 1344.67 105.172 1344.67 108.188Z" fill="white"/>
<path d="M1319.66 26.4088C1319.66 29.4243 1322.09 31.8589 1325.09 31.8589C1328.1 31.8589 1330.53 29.4243 1330.53 26.4088C1330.53 23.3932 1328.1 20.9587 1325.09 20.9587C1322.09 20.9448 1319.66 23.3932 1319.66 26.4088Z" fill="white"/>
<path d="M1319.66 53.6597C1319.66 56.6752 1322.09 59.1098 1325.09 59.1098C1328.1 59.1098 1330.53 56.6752 1330.53 53.6597C1330.53 50.6442 1328.1 48.2096 1325.09 48.2096C1322.09 48.2096 1319.66 50.658 1319.66 53.6597Z" fill="white"/>
<path d="M1319.66 80.9234C1319.66 83.9389 1322.09 86.3735 1325.09 86.3735C1328.1 86.3735 1330.53 83.9389 1330.53 80.9234C1330.53 77.9078 1328.1 75.4733 1325.09 75.4733C1322.09 75.4733 1319.66 77.9217 1319.66 80.9234Z" fill="white"/>
<path d="M1319.66 108.188C1319.66 111.203 1322.09 113.638 1325.09 113.638C1328.1 113.638 1330.53 111.203 1330.53 108.188C1330.53 105.172 1328.1 102.738 1325.09 102.738C1322.09 102.738 1319.66 105.172 1319.66 108.188Z" fill="white"/>
<path d="M1295.72 26.4087C1295.72 29.4242 1298.15 31.8588 1301.15 31.8588C1304.16 31.8588 1306.59 29.4242 1306.59 26.4087C1306.59 23.3932 1304.16 20.9586 1301.15 20.9586C1298.15 20.9586 1295.72 23.3932 1295.72 26.4087Z" fill="white"/>
<path d="M1295.72 53.6597C1295.72 56.6752 1298.15 59.1098 1301.15 59.1098C1304.16 59.1098 1306.59 56.6752 1306.59 53.6597C1306.59 50.6442 1304.16 48.2096 1301.15 48.2096C1298.15 48.2096 1295.72 50.658 1295.72 53.6597Z" fill="white"/>
<path d="M1295.72 80.9236C1295.72 83.9391 1298.15 86.3737 1301.15 86.3737C1304.16 86.3737 1306.59 83.9391 1306.59 80.9236C1306.59 77.9081 1304.16 75.4735 1301.15 75.4735C1298.15 75.4735 1295.72 77.9219 1295.72 80.9236Z" fill="white"/>
<path d="M1295.72 108.188C1295.72 111.204 1298.15 113.638 1301.15 113.638C1304.16 113.638 1306.59 111.204 1306.59 108.188C1306.59 105.173 1304.16 102.738 1301.15 102.738C1298.15 102.738 1295.72 105.173 1295.72 108.188Z" fill="white"/>
<path d="M164.006 447.672L152.503 459.204L141 447.672L152.503 436.14L164.006 447.672Z" fill="#E2E9FC"/>
<path d="M185.884 165.58L170.83 168.07L185.884 170.546L188.368 185.651L190.851 170.546L205.919 168.07L190.851 165.58L188.368 150.475L185.884 165.58Z" fill="white"/>
<path d="M1099.64 419.104L1084.58 421.594L1099.64 424.084L1102.11 439.176L1104.6 424.084L1119.66 421.594L1104.6 419.104L1102.11 403.999L1099.64 419.104Z" fill="white"/>
<path d="M661.295 0C654.299 13.9157 644.999 26.7525 634.167 37.9708C609.427 63.6305 577.388 81.2534 544.741 94.7126C474.094 123.858 396.92 132.725 321.058 132.974C252.108 133.223 178.301 126.708 113.491 155.175C81.3269 169.312 55.8968 192.524 33.0607 218.792C21.8289 231.712 11.1215 245.143 6.10352e-05 258.201V0H661.295Z" fill="#242E42"/>
<path d="M540.85 278.32C540.85 278.32 500.511 299.411 486.18 295.356C479.55 293.485 470.822 282.965 462.531 270.611C459.801 266.544 457.114 262.275 454.568 258.044C454.558 258.032 454.558 258.032 454.558 258.032C444.388 241.146 436.414 224.964 436.414 224.964C436.414 224.964 406.343 184.452 430.472 166.399C430.472 166.399 439.232 162.632 447.272 172.538C455.322 182.443 464.76 203.17 466.879 208.455C468.987 213.741 498.523 262.702 500.063 263.807C501.593 264.912 514.504 261.007 524.848 260.015C541.724 258.396 538.371 257.58 538.371 257.58L540.85 278.32Z" fill="#EDDAD3"/>
<path d="M301.367 501.107L290.231 499.211C273.405 496.336 262.141 480.681 265.069 464.222L277.721 393.354C280.662 376.908 296.692 365.898 313.518 368.76L324.653 370.656C341.479 373.531 352.744 389.186 349.815 405.644L337.164 476.513C334.222 492.959 318.193 503.969 301.367 501.107Z" fill="#E8744E"/>
<path d="M445.941 391.609L461.006 496C462.559 505.15 462.452 507.21 461.006 507C459.561 506.79 398.723 507 398.723 507C391.249 485.5 390.184 455.309 384.353 462.113C378.522 468.918 376.63 476.353 372.314 496C370.667 503.5 367.83 507 367.83 507C367.83 507 311.525 507 296.577 507C296.577 507 297.574 502 297.574 496C298.627 481.952 292.055 437.042 316.356 374.899C329.187 342.07 445.941 391.609 445.941 391.609Z" fill="#187D80"/>
<path d="M405.584 157.347C405.584 157.347 441.985 164.704 446.313 168.445C451.001 172.425 459.273 211.393 459.761 222.252C460.249 233.112 455.368 278.458 450.68 295.343C445.992 312.228 447.058 400.372 449.165 414.231C449.165 414.231 377.867 428.681 305.798 419.517C305.798 419.517 316.523 342.471 313.646 319.334C309.947 289.694 301.059 221.386 301.059 221.386C301.059 221.386 310.692 175.4 317.101 170.09C323.523 164.779 368.131 156.142 368.131 156.142L405.584 157.347Z" fill="#EDDAD3"/>
<path d="M324.512 250.16C324.512 250.16 317.64 293.887 318.116 296.699C318.604 299.498 286.994 287.911 324.512 250.16Z" fill="#C3B2AB"/>
<path d="M445.838 167.893C440.071 164.591 434.175 164.001 434.175 164.001C434.33 164.428 450.141 210.878 440.187 266.343C427.06 339.559 376.582 401.238 294.225 444.688L299.016 453.35C346.527 428.28 383.775 397.522 409.733 361.906C430.566 333.307 444.194 301.57 450.205 267.573C460.455 209.698 446.493 169.726 445.838 167.893Z" fill="#E8744E"/>
<path d="M360.895 167.165C360.895 167.165 370.92 185.875 386.592 188.214C402.257 190.553 409.154 178.078 409.154 178.078L409.521 164.401L409.78 154.69L365.908 132.863L363.059 152.364L360.895 167.165Z" fill="#FFAEA2"/>
<path d="M363.059 152.369C376.725 165.877 397.265 165.908 409.521 164.401L409.78 154.69L365.908 132.863L363.059 152.369Z" fill="#D87268"/>
<path d="M335.369 68.3511C339.584 50.427 351.846 44.3392 357.78 42.406C357.125 41.5802 356.514 40.7352 355.946 39.8582C355.356 38.9556 354.809 38.0274 354.349 37.0672C353.889 36.1134 353.357 34.9803 353.457 33.9241C353.508 33.4119 354.205 33.2967 354.558 33.6296C355.327 34.3594 355.752 35.4284 356.233 36.3182C356.723 37.2272 357.24 38.1298 357.809 39.0004C358.262 39.6918 358.751 40.3575 359.269 41.0169C359.204 39.9798 359.247 38.9364 359.42 37.9058C359.808 35.6204 360.779 33.5464 362.203 31.6131C362.606 31.069 363.706 31.5811 363.354 32.1765C361.771 34.8779 361.052 38.1362 361.369 41.2409C365.598 37.0864 391.266 26.812 418.726 38.2194C446.926 49.9341 450.688 71.1294 448.811 75.5912C446.933 80.053 438.576 78.6895 438.576 78.6895C438.576 78.6895 382.377 129.703 366.087 132.487C349.789 135.291 329.73 92.3374 335.369 68.3511Z" fill="#5F2E32"/>
<path d="M438.575 78.7028C438.575 78.7028 437.18 118.373 435.792 129.774C434.397 141.181 425.205 156.301 402.643 156.301C380.082 156.301 360.303 141.924 357.239 118.123C357.239 118.123 339.41 122.092 338.295 105.73C337.181 89.3676 356.678 96.5565 358.074 100.276C358.074 100.276 373.954 85.3987 370.329 62.5903C370.329 62.5903 403.478 83.6639 414.618 70.0288C414.618 70.0224 429.937 77.9538 438.575 78.7028Z" fill="#FFAEA2"/>
<path d="M402.615 59.0753C403.219 59.3186 403.679 59.8499 404.118 60.2852C404.55 60.7205 404.967 61.1622 405.384 61.6039C406.269 62.5449 407.189 63.4539 408.203 64.2925C409.203 65.1183 410.26 65.8865 411.375 66.597C411.929 66.9491 412.483 67.3076 413.044 67.6533C413.626 68.0118 414.144 68.4663 414.741 68.7991C415.331 69.132 414.791 69.9962 414.151 69.753C413.497 69.5033 412.821 69.3497 412.188 69.0488C411.54 68.7415 410.908 68.4087 410.311 68.0438C409.11 67.3076 407.973 66.4754 406.902 65.592C405.844 64.715 404.816 63.7932 403.91 62.7882C403.456 62.2889 403.054 61.7703 402.687 61.2134C402.335 60.6885 401.953 60.0804 401.953 59.4594C401.939 59.1649 402.342 58.9601 402.615 59.0753Z" fill="#3D1119"/>
<path d="M352.32 71.059C352.414 69.7019 352.709 68.3384 353.191 67.0453C354.154 64.4655 355.859 62.2122 358.146 60.4133C359.038 59.7156 360.124 60.9703 359.29 61.6808C357.369 63.3196 355.953 65.4641 355.154 67.7174C354.759 68.8313 354.507 69.9835 354.428 71.1486C354.341 72.2944 354.644 73.6067 354.061 74.6694C353.888 74.9895 353.493 75.0279 353.219 74.7846C352.141 73.8628 352.241 72.2752 352.32 71.059Z" fill="#3D1119"/>
<path d="M349.926 63.1277C350.2 62.1418 350.646 61.2008 351.199 60.3174C352.314 58.5314 353.875 57.1999 355.795 56.0989C356.55 55.67 357.435 56.5918 356.687 57.0847C355.162 58.0961 353.868 59.6005 353.005 61.1112C352.551 61.905 352.185 62.7244 351.919 63.5758C351.789 63.9855 351.696 64.4144 351.552 64.8176C351.473 65.0481 351.322 65.2273 351.25 65.4578C351.178 65.6818 351.056 65.8739 350.948 66.0851C350.782 66.3988 350.207 66.482 350.049 66.1043C349.869 65.669 349.761 65.2337 349.682 64.7792C349.588 64.2735 349.782 63.6206 349.926 63.1277Z" fill="#3D1119"/>
<path d="M409.779 38.0981C410.534 37.9381 411.455 38.2966 412.152 38.5206C412.943 38.7767 413.677 39.148 414.411 39.5064C415.087 39.8393 415.756 40.1914 416.403 40.5627C416.741 40.7547 417.072 40.9468 417.374 41.1772C417.546 41.3116 417.712 41.4461 417.87 41.5933C418.021 41.7341 418.129 41.9006 418.28 42.0414C418.755 42.4831 418.093 43.2897 417.474 43.0208C417.144 42.88 416.798 42.7968 416.467 42.6367C416.079 42.4511 415.712 42.2463 415.338 42.0414C414.72 41.6893 414.087 41.3565 413.447 41.0492C412.749 40.7163 412.03 40.4154 411.34 40.0698C410.994 39.8969 410.656 39.7305 410.325 39.5384C409.987 39.3464 409.649 39.1928 409.419 38.8855C409.196 38.5718 409.354 38.1877 409.779 38.0981Z" fill="#844C52"/>
<path d="M402.681 40.4603C403.04 40.3642 403.342 40.281 403.716 40.3258C404.076 40.3706 404.45 40.441 404.802 40.5179C405.428 40.6523 406.047 40.7995 406.672 40.9468C407.931 41.2412 409.175 41.5997 410.419 41.939C411.239 42.163 410.923 43.4113 410.067 43.2641C408.751 43.0336 407.435 42.8224 406.133 42.5407C405.507 42.4063 404.881 42.2783 404.256 42.1374C403.939 42.0606 403.616 41.9774 403.306 41.875C402.947 41.7597 402.709 41.5613 402.443 41.318C402.177 41.0812 402.314 40.5563 402.681 40.4603Z" fill="#844C52"/>
<path d="M366.935 51.1695C368.381 51.56 369.769 52.0721 371.243 52.3794C372.02 52.5394 372.811 52.6482 373.602 52.6994C373.976 52.725 375.105 52.9235 375.4 52.6354C375.681 52.3602 375.156 51.688 374.969 51.4768C374.559 51.0095 374.062 50.6254 373.523 50.2861C372.387 49.5691 371.085 49.1018 369.805 48.6345C368.884 48.3016 369.165 46.8741 370.222 47.0533C372.451 47.431 374.71 47.7063 376.975 47.8471C377.5 47.8791 378.025 47.9047 378.543 47.9239C378.824 47.9367 379.19 47.8855 379.456 47.9496C379.485 47.9496 379.514 47.9496 379.543 47.9496C379.471 47.8535 379.406 47.7255 379.334 47.6551C379.19 47.5207 379.025 47.3926 378.867 47.271C378.5 46.9893 378.126 46.7205 377.73 46.458C374.609 44.3967 370.812 43.2317 366.928 43.1293C366.453 43.1164 366.417 42.3931 366.899 42.3739C371.624 42.2074 376.335 43.5261 380.025 46.1891C380.801 46.7525 381.729 47.6039 381.334 48.5897C380.888 49.6907 379.399 49.5179 378.356 49.4923C377.27 49.4667 376.184 49.3963 375.105 49.3067C375.156 49.3451 375.213 49.3771 375.263 49.4155C376.436 50.3181 377.867 51.8672 377.033 53.3268C376.17 54.8375 373.494 54.383 371.984 54.1526C370.02 53.8581 367.877 53.2372 366.388 52.0017C365.964 51.6496 366.309 51.0031 366.935 51.1695Z" fill="#844C52"/>
<path d="M430.37 58.704C430.658 58.3519 431.14 58.3519 431.528 58.5503C433.046 59.3313 434.498 60.1635 435.836 61.1813C436.527 61.7063 437.174 62.2696 437.807 62.8457C438.116 63.1274 438.418 63.4154 438.706 63.7163C439.037 64.062 439.425 64.4397 439.404 64.9134C439.44 65.1758 439.389 65.4319 439.123 65.6239C438.864 65.8096 438.576 65.8032 438.303 65.72C437.785 65.6431 437.462 65.2527 437.131 64.9198C436.85 64.6381 436.577 64.3565 436.289 64.0876C435.736 63.5499 435.146 63.0506 434.549 62.5512C433.305 61.5334 431.974 60.554 430.55 59.741C430.169 59.517 430.119 59.0048 430.37 58.704Z" fill="#844C52"/>
<path d="M398.092 51.6885C400.423 52.2454 402.444 53.5449 404.882 53.8266C406.27 53.9866 407.931 53.865 409.24 53.2569C408.514 52.9496 407.802 52.6039 407.133 52.207C405.968 51.5221 404.407 50.517 404.184 49.1919C404.127 48.827 404.508 48.5966 404.875 48.6926C406.04 48.9871 406.996 49.9281 407.974 50.5362C409.039 51.202 410.197 51.7333 411.419 52.1238C412.606 52.5015 413.843 52.7511 415.102 52.8536C416.368 52.956 417.482 52.9816 418.619 52.4375C419.108 52.207 419.662 52.7191 419.46 53.148C418.885 54.4091 417.116 54.5564 415.792 54.5756C414.246 54.5948 412.692 54.3515 411.218 53.9418C411.002 53.8842 410.794 53.8074 410.585 53.7434C407.075 56.9249 400.725 55.3053 397.438 52.4759C396.985 52.0918 397.618 51.5733 398.092 51.6885Z" fill="#3D1119"/>
<path d="M343.798 106.561C344.237 106.453 344.675 106.51 345.114 106.536C345.553 106.555 345.97 106.613 346.402 106.702C347.286 106.888 348.171 107.176 349.005 107.502C349.214 107.586 349.408 107.675 349.616 107.758C348.415 106.203 347.006 104.731 345.574 103.348C345.006 102.797 345.912 102.036 346.56 102.432C348.811 103.809 350.566 105.569 352.019 107.618C352.731 108.629 353.385 109.672 353.917 110.767C354.183 111.305 354.428 111.849 354.637 112.406C354.752 112.72 354.845 113.027 354.917 113.347C354.996 113.68 354.967 113.942 354.967 114.275C354.975 115.082 353.788 115.031 353.428 114.499C353.55 114.685 353.263 114.346 353.227 114.301C353.148 114.186 353.112 114.07 353.054 113.949C352.932 113.693 352.81 113.443 352.702 113.18C352.486 112.656 352.263 112.143 352.011 111.631C351.752 111.1 351.472 110.581 351.177 110.069C351.004 109.98 350.832 109.89 350.659 109.807C349.904 109.455 349.127 109.141 348.329 108.86C347.531 108.578 346.718 108.36 345.905 108.111C345.502 107.989 345.114 107.842 344.719 107.707C344.33 107.573 343.949 107.477 343.604 107.259C343.273 107.048 343.46 106.645 343.798 106.561Z" fill="#D87268"/>
<path d="M401.824 115.504C402.788 115.895 403.629 116.49 404.593 116.894C405.499 117.271 406.463 117.566 407.463 117.63C407.801 117.649 408.232 117.655 408.534 117.483C408.887 117.278 408.908 116.881 408.923 116.535C408.959 115.485 408.793 114.41 408.721 113.366C408.39 108.706 408.067 104.052 407.758 99.392C407.671 98.0989 407.585 96.8058 407.542 95.5127C407.52 94.8662 407.484 94.2196 407.491 93.5795C407.499 92.8945 407.635 92.216 407.635 91.5374C407.628 90.9165 408.765 90.8973 408.851 91.5054C408.937 92.1455 409.167 92.7665 409.261 93.4066C409.354 94.0468 409.419 94.6933 409.491 95.3399C409.628 96.633 409.728 97.9261 409.822 99.2192C410.016 101.85 410.217 104.481 410.404 107.112C410.584 109.705 410.771 112.297 410.951 114.89C411.023 115.959 411.239 117.137 410.656 118.129C410.109 119.057 409.031 119.48 407.894 119.512C405.47 119.589 402.04 118.417 400.947 116.356C400.673 115.869 401.263 115.28 401.824 115.504Z" fill="#D87268"/>
<path d="M398.321 143.895C398.53 143.651 398.825 143.568 399.134 143.466C399.285 143.414 399.415 143.363 399.573 143.331C399.774 143.293 399.983 143.306 400.184 143.299C400.738 143.267 401.371 143.331 401.953 143.395C403.176 143.536 404.535 143.747 405.571 144.375C405.83 144.528 405.923 144.861 405.816 145.117C405.693 145.399 405.398 145.52 405.082 145.52C404.521 145.527 403.953 145.437 403.399 145.354C402.838 145.271 402.27 145.207 401.702 145.156C401.134 145.104 400.565 145.072 399.997 145.028C399.458 144.989 398.724 144.836 398.336 144.464C398.185 144.311 398.192 144.048 398.321 143.895Z" fill="#D87268"/>
<path d="M417.402 99.4048C417.402 101.114 418.524 102.503 419.913 102.503C421.293 102.503 422.423 101.114 422.423 99.4048C422.423 97.6957 421.301 96.3065 419.913 96.3065C418.524 96.3001 417.402 97.6893 417.402 99.4048Z" fill="black"/>
<path d="M382.305 99.4051C382.305 101.114 383.427 102.503 384.815 102.503C386.203 102.503 387.325 101.114 387.325 99.4051C387.325 97.6959 386.203 96.3068 384.815 96.3068C383.427 96.3068 382.305 97.6895 382.305 99.4051Z" fill="black"/>
<path d="M393.179 127.667C393.891 128.071 394.582 128.448 395.258 128.897C395.891 129.313 396.559 129.71 397.25 130.055C398.652 130.747 400.213 131.227 401.795 131.444C403.478 131.675 405.183 131.636 406.851 131.329C408.585 131.009 410.16 130.292 411.864 129.889C412.389 129.767 412.821 130.42 412.476 130.779C411.217 132.084 409.239 132.718 407.412 133.096C405.485 133.493 403.435 133.576 401.486 133.288C399.645 133.019 397.89 132.469 396.257 131.668C395.445 131.271 394.682 130.823 393.985 130.279C393.251 129.71 392.74 129.063 392.309 128.295C392.021 127.802 392.719 127.405 393.179 127.667Z" fill="#D87268"/>
<path d="M414.835 84.8287C414.684 86.6723 416.518 86.3074 420.279 86.5506C424.041 86.7939 428.299 87.5557 428.45 85.712C428.601 83.8684 424.149 82.076 420.387 81.8328C416.633 81.5895 414.986 82.985 414.835 84.8287Z" fill="#5F2E32"/>
<path d="M391.683 84.9508C391.841 86.8649 389.849 86.4872 385.764 86.7496C381.679 87.0121 377.047 87.8187 376.896 85.9047C376.738 83.9906 381.585 82.1214 385.671 81.8589C389.756 81.5965 391.532 83.0368 391.683 84.9508Z" fill="#5F2E32"/>
<path d="M561.899 168.489H424.573V356.283H561.899V168.489Z" fill="#C9D5FF"/>
<path d="M562.565 357.667H423.824V168.489H562.565V357.667ZM425.24 356.283H561.149V169.874H425.24V356.283Z" fill="#3D43A5"/>
<path d="M550.606 180.943H435.811V344.604H550.606V180.943Z" fill="white"/>
<path d="M457.54 247.12C460.181 246.521 463.122 246.072 465.813 245.922C467.508 242.526 469.601 238.831 471.744 235.585C466.86 239.031 461.377 243.275 457.54 247.12ZM477.675 232.04C478.373 233.238 478.373 233.538 477.326 235.186C475.582 237.832 473.09 242.177 470.548 246.721C471.545 247.37 472.043 248.269 472.392 249.268C472.492 249.717 472.143 249.967 471.146 249.767C470.548 249.617 469.801 249.617 468.953 249.617C466.86 253.462 465.066 257.257 463.869 260.153C463.471 261.102 462.673 261.152 462.125 260.403C461.627 259.604 461.178 258.755 461.178 257.657C461.178 256.958 461.328 256.009 461.776 254.81C462.275 253.462 462.773 252.164 463.72 250.067C461.527 250.416 459.334 250.816 457.44 251.265C456.493 251.465 455.795 251.465 455.247 250.766C454.499 249.817 453.901 248.668 453.503 247.919C453.154 247.27 453.353 246.571 453.802 246.022C457.889 241.228 467.458 233.538 473.688 229.493C474.535 228.944 475.682 228.644 476.33 229.743L477.675 232.04Z" fill="#7785E5"/>
<path d="M512.89 246.726C515.532 246.14 518.472 245.701 521.164 245.554C522.858 242.232 524.952 238.617 527.095 235.442C522.21 238.813 516.728 242.965 512.89 246.726ZM533.026 231.974C533.723 233.146 533.723 233.439 532.677 235.051C530.932 237.64 528.44 241.89 525.898 246.336C526.895 246.971 527.394 247.85 527.743 248.827C527.842 249.267 527.493 249.511 526.497 249.315C525.898 249.169 525.151 249.169 524.304 249.169C522.21 252.93 520.416 256.643 519.22 259.476C518.821 260.404 518.024 260.453 517.475 259.72C516.977 258.939 516.528 258.108 516.528 257.034C516.528 256.35 516.678 255.422 517.127 254.249C517.625 252.93 518.123 251.66 519.07 249.609C516.877 249.95 514.684 250.341 512.79 250.781C511.843 250.976 511.146 250.976 510.597 250.292C509.85 249.364 509.252 248.241 508.853 247.508C508.504 246.873 508.703 246.189 509.152 245.652C513.239 240.962 522.808 233.439 529.038 229.483C529.886 228.945 531.032 228.652 531.68 229.727L533.026 231.974Z" fill="#7785E5"/>
<path d="M494.748 229.595C495.751 229.198 496.956 229 497.909 229C499.464 229 500.568 229.149 501.722 230.19C504.131 231.577 505.837 234.551 505.837 237.971C505.837 241.342 504.733 245.456 503.077 248.727C500.016 254.923 495.149 260.226 489.63 260.226C488.677 260.226 487.774 260.176 486.469 259.631C483.459 258.392 481 255.071 481 251.205C481 241.391 489.48 232.073 494.748 229.595ZM487.322 257.549C490.132 258.293 495.3 254.377 498.712 247.389C500.769 243.126 501.722 239.21 501.722 236.336C501.722 233.907 501.12 232.222 500.117 231.924C498.06 231.181 492.691 234.799 488.576 241.689C486.369 245.505 485.315 249.421 485.315 252.494C485.315 255.121 486.118 257.004 487.322 257.549Z" fill="#7785E5"/>
<path d="M457.082 289.844C457.082 289.479 457.134 289.094 457.238 288.688C457.592 287.271 458.004 285.885 458.472 284.531C458.952 283.167 459.384 281.812 459.769 280.469C460.155 279.125 460.472 277.995 460.722 277.078C460.983 276.151 461.212 275.359 461.41 274.703C461.608 274.036 461.79 273.464 461.957 272.984C462.123 272.505 462.306 272.031 462.504 271.562C462.629 271.281 462.764 270.99 462.91 270.688C463.066 270.385 463.233 270.109 463.41 269.859C463.587 269.599 463.769 269.391 463.957 269.234C464.155 269.068 464.358 268.984 464.566 268.984C464.993 268.984 465.316 269.057 465.535 269.203C465.764 269.339 465.905 269.464 465.957 269.578L466.097 270.219C466.254 270.208 466.457 270.182 466.707 270.141C466.957 270.089 467.207 270.036 467.457 269.984C467.717 269.932 467.957 269.88 468.176 269.828C468.394 269.776 468.561 269.729 468.676 269.688C469.363 269.5 469.998 269.339 470.582 269.203C471.165 269.068 471.717 268.958 472.238 268.875C472.769 268.781 473.275 268.714 473.754 268.672C474.233 268.63 474.717 268.609 475.207 268.609C475.686 268.609 476.077 268.635 476.379 268.688C476.681 268.74 476.92 268.812 477.097 268.906C477.275 268.99 477.394 269.094 477.457 269.219C477.53 269.333 477.566 269.458 477.566 269.594C477.566 269.719 477.53 269.854 477.457 270C477.394 270.135 477.285 270.266 477.129 270.391C476.972 270.516 476.769 270.625 476.519 270.719C476.269 270.812 475.957 270.875 475.582 270.906C475.488 270.927 475.269 270.969 474.926 271.031C474.592 271.083 474.228 271.146 473.832 271.219C473.436 271.281 473.061 271.344 472.707 271.406C472.353 271.469 472.108 271.516 471.972 271.547H471.988C471.926 271.557 471.775 271.599 471.535 271.672C471.306 271.734 471.025 271.812 470.691 271.906C470.358 271.99 469.993 272.089 469.597 272.203C469.212 272.318 468.827 272.432 468.441 272.547C468.066 272.651 467.717 272.755 467.394 272.859C467.071 272.953 466.811 273.031 466.613 273.094C465.978 273.344 465.478 273.677 465.113 274.094C464.759 274.5 464.478 274.958 464.269 275.469C464.228 275.562 464.165 275.724 464.082 275.953C463.998 276.172 463.905 276.427 463.801 276.719C463.707 277 463.603 277.302 463.488 277.625C463.373 277.948 463.264 278.255 463.16 278.547C463.056 278.839 462.962 279.104 462.879 279.344C462.806 279.583 462.754 279.76 462.722 279.875C462.691 279.979 462.67 280.073 462.66 280.156C462.65 280.24 462.644 280.302 462.644 280.344C462.644 280.406 462.66 280.438 462.691 280.438C462.847 280.438 463.17 280.37 463.66 280.234C464.16 280.089 464.738 279.911 465.394 279.703C466.061 279.495 466.769 279.271 467.519 279.031C468.28 278.792 469.004 278.568 469.691 278.359C470.389 278.151 471.009 277.979 471.551 277.844C472.092 277.698 472.483 277.625 472.722 277.625C473.087 277.625 473.332 277.688 473.457 277.812C473.582 277.927 473.644 278.057 473.644 278.203C473.644 278.578 473.509 278.906 473.238 279.188C472.978 279.469 472.65 279.714 472.254 279.922C472.129 279.984 471.894 280.078 471.551 280.203C471.217 280.318 470.853 280.438 470.457 280.562C470.071 280.688 469.702 280.807 469.347 280.922C468.993 281.036 468.738 281.12 468.582 281.172C467.561 281.568 466.728 281.896 466.082 282.156C465.446 282.406 464.931 282.615 464.535 282.781C464.139 282.938 463.832 283.057 463.613 283.141C463.405 283.224 463.207 283.297 463.019 283.359C462.842 283.411 462.644 283.464 462.426 283.516C462.207 283.568 461.905 283.641 461.519 283.734C461.426 283.953 461.316 284.286 461.191 284.734C461.066 285.172 460.946 285.63 460.832 286.109C460.717 286.578 460.618 287.016 460.535 287.422C460.462 287.828 460.426 288.109 460.426 288.266C460.426 288.453 460.452 288.594 460.504 288.688C460.556 288.771 460.618 288.828 460.691 288.859C460.764 288.891 460.837 288.906 460.91 288.906C460.983 288.906 461.04 288.906 461.082 288.906C461.582 288.906 462.181 288.833 462.879 288.688C463.587 288.542 464.285 288.349 464.972 288.109C465.629 287.88 466.202 287.63 466.691 287.359C467.181 287.089 467.639 286.839 468.066 286.609C468.504 286.37 468.926 286.172 469.332 286.016C469.748 285.849 470.202 285.76 470.691 285.75C470.795 285.75 470.915 285.76 471.051 285.781C471.196 285.802 471.332 285.844 471.457 285.906C471.582 285.958 471.681 286.031 471.754 286.125C471.837 286.219 471.868 286.339 471.847 286.484C471.806 286.786 471.655 287.083 471.394 287.375C471.134 287.667 470.806 287.948 470.41 288.219C470.014 288.49 469.571 288.75 469.082 289C468.592 289.25 468.092 289.49 467.582 289.719C467.071 289.938 466.571 290.141 466.082 290.328C465.592 290.505 465.155 290.661 464.769 290.797C463.811 291.13 462.879 291.375 461.972 291.531C461.066 291.688 460.254 291.766 459.535 291.766C458.743 291.766 458.134 291.615 457.707 291.312C457.29 291.021 457.082 290.531 457.082 289.844ZM475.914 289.391C476.05 288.661 476.206 287.859 476.383 286.984C476.56 286.109 476.742 285.224 476.93 284.328C477.117 283.432 477.3 282.552 477.477 281.688C477.654 280.823 477.805 280.031 477.93 279.312C477.92 279.208 477.914 279.12 477.914 279.047C477.914 278.964 477.914 278.875 477.914 278.781C477.914 278.458 477.935 278.135 477.977 277.812C478.018 277.49 478.076 277.193 478.149 276.922C478.263 276.526 478.388 276.26 478.524 276.125C478.67 275.979 478.899 275.906 479.211 275.906C479.513 275.906 479.753 275.969 479.93 276.094C480.117 276.208 480.263 276.365 480.367 276.562C480.472 276.76 480.539 276.99 480.571 277.25C480.602 277.5 480.617 277.76 480.617 278.031C480.617 278.177 480.612 278.339 480.602 278.516C480.591 278.693 480.586 278.833 480.586 278.938C480.878 278.635 481.185 278.328 481.508 278.016C481.841 277.693 482.19 277.406 482.555 277.156C482.93 276.896 483.321 276.682 483.727 276.516C484.143 276.349 484.576 276.266 485.024 276.266C485.201 276.266 485.373 276.281 485.539 276.312C485.716 276.344 485.893 276.385 486.071 276.438C486.279 276.49 486.492 276.562 486.711 276.656C486.94 276.74 487.159 276.859 487.367 277.016C487.711 277.276 487.998 277.604 488.227 278C488.466 278.385 488.586 278.781 488.586 279.188C488.586 279.344 488.555 279.516 488.492 279.703C488.43 279.88 488.341 280.047 488.227 280.203C488.123 280.349 487.998 280.474 487.852 280.578C487.706 280.672 487.545 280.719 487.367 280.719C487.19 280.719 486.972 280.677 486.711 280.594C486.461 280.5 486.253 280.38 486.086 280.234C486.013 280.172 485.935 280.083 485.852 279.969C485.779 279.854 485.706 279.74 485.633 279.625C485.571 279.51 485.508 279.406 485.446 279.312C485.393 279.208 485.352 279.141 485.321 279.109C485.268 279.099 485.211 279.094 485.149 279.094C485.086 279.083 485.029 279.078 484.977 279.078C484.446 279.078 483.94 279.214 483.461 279.484C482.982 279.755 482.534 280.089 482.117 280.484C481.701 280.87 481.315 281.286 480.961 281.734C480.617 282.172 480.315 282.568 480.055 282.922C479.847 283.766 479.612 284.667 479.352 285.625C479.102 286.573 478.852 287.568 478.602 288.609V289C478.602 289.312 478.591 289.63 478.571 289.953C478.55 290.276 478.487 290.562 478.383 290.812C478.268 290.969 478.102 291.099 477.883 291.203C477.675 291.318 477.43 291.375 477.149 291.375C476.711 291.375 476.383 291.234 476.164 290.953C475.946 290.661 475.836 290.323 475.836 289.938C475.836 289.76 475.862 289.578 475.914 289.391ZM489.059 289.391C489.195 288.661 489.351 287.859 489.528 286.984C489.705 286.109 489.887 285.224 490.075 284.328C490.262 283.432 490.445 282.552 490.622 281.688C490.799 280.823 490.95 280.031 491.075 279.312C491.065 279.208 491.059 279.12 491.059 279.047C491.059 278.964 491.059 278.875 491.059 278.781C491.059 278.458 491.08 278.135 491.122 277.812C491.163 277.49 491.221 277.193 491.294 276.922C491.408 276.526 491.533 276.26 491.669 276.125C491.815 275.979 492.044 275.906 492.356 275.906C492.658 275.906 492.898 275.969 493.075 276.094C493.262 276.208 493.408 276.365 493.512 276.562C493.617 276.76 493.684 276.99 493.716 277.25C493.747 277.5 493.762 277.76 493.762 278.031C493.762 278.177 493.757 278.339 493.747 278.516C493.736 278.693 493.731 278.833 493.731 278.938C494.023 278.635 494.33 278.328 494.653 278.016C494.986 277.693 495.335 277.406 495.7 277.156C496.075 276.896 496.466 276.682 496.872 276.516C497.288 276.349 497.721 276.266 498.169 276.266C498.346 276.266 498.518 276.281 498.684 276.312C498.861 276.344 499.038 276.385 499.216 276.438C499.424 276.49 499.637 276.562 499.856 276.656C500.085 276.74 500.304 276.859 500.512 277.016C500.856 277.276 501.143 277.604 501.372 278C501.611 278.385 501.731 278.781 501.731 279.188C501.731 279.344 501.7 279.516 501.637 279.703C501.575 279.88 501.486 280.047 501.372 280.203C501.268 280.349 501.143 280.474 500.997 280.578C500.851 280.672 500.69 280.719 500.512 280.719C500.335 280.719 500.117 280.677 499.856 280.594C499.606 280.5 499.398 280.38 499.231 280.234C499.158 280.172 499.08 280.083 498.997 279.969C498.924 279.854 498.851 279.74 498.778 279.625C498.716 279.51 498.653 279.406 498.591 279.312C498.538 279.208 498.497 279.141 498.466 279.109C498.413 279.099 498.356 279.094 498.294 279.094C498.231 279.083 498.174 279.078 498.122 279.078C497.591 279.078 497.085 279.214 496.606 279.484C496.127 279.755 495.679 280.089 495.262 280.484C494.846 280.87 494.46 281.286 494.106 281.734C493.762 282.172 493.46 282.568 493.2 282.922C492.992 283.766 492.757 284.667 492.497 285.625C492.247 286.573 491.997 287.568 491.747 288.609V289C491.747 289.312 491.736 289.63 491.716 289.953C491.695 290.276 491.632 290.562 491.528 290.812C491.413 290.969 491.247 291.099 491.028 291.203C490.82 291.318 490.575 291.375 490.294 291.375C489.856 291.375 489.528 291.234 489.309 290.953C489.091 290.661 488.981 290.323 488.981 289.938C488.981 289.76 489.007 289.578 489.059 289.391ZM502.048 285.016C502.204 284.38 502.444 283.708 502.767 283C503.1 282.281 503.532 281.557 504.064 280.828C504.595 280.099 505.23 279.385 505.97 278.688C506.72 277.99 507.585 277.339 508.564 276.734C508.72 276.641 508.96 276.542 509.282 276.438C509.605 276.323 509.939 276.255 510.282 276.234C510.689 275.797 511.236 275.578 511.923 275.578C512.736 275.578 513.418 275.786 513.97 276.203C514.532 276.609 514.996 277.167 515.361 277.875C515.475 278.104 515.579 278.328 515.673 278.547C515.777 278.766 515.861 279 515.923 279.25C515.996 279.49 516.053 279.75 516.095 280.031C516.137 280.312 516.157 280.63 516.157 280.984C516.157 281.807 516.027 282.646 515.767 283.5C515.506 284.354 515.137 285.188 514.657 286C514.178 286.812 513.595 287.594 512.907 288.344C512.23 289.083 511.475 289.75 510.642 290.344C510.079 290.75 509.454 291.062 508.767 291.281C508.09 291.51 507.329 291.625 506.486 291.625C505.683 291.625 504.986 291.516 504.392 291.297C503.808 291.089 503.319 290.786 502.923 290.391C502.538 289.995 502.246 289.521 502.048 288.969C501.861 288.417 501.767 287.802 501.767 287.125C501.767 286.469 501.861 285.766 502.048 285.016ZM504.642 285.219C504.579 285.458 504.532 285.688 504.501 285.906C504.48 286.115 504.47 286.318 504.47 286.516C504.47 286.859 504.512 287.182 504.595 287.484C504.689 287.776 504.835 288.031 505.032 288.25C505.23 288.458 505.475 288.625 505.767 288.75C506.069 288.865 506.433 288.922 506.861 288.922C507.652 288.922 508.387 288.724 509.064 288.328C509.751 287.922 510.361 287.417 510.892 286.812C511.423 286.208 511.866 285.562 512.22 284.875C512.585 284.177 512.84 283.536 512.986 282.953C513.079 282.589 513.157 282.245 513.22 281.922C513.293 281.599 513.329 281.302 513.329 281.031C513.329 280.76 513.277 280.51 513.173 280.281C513.079 280.042 512.954 279.776 512.798 279.484C512.704 279.307 512.611 279.125 512.517 278.938C512.423 278.74 512.34 278.547 512.267 278.359C512.183 278.505 512.095 278.635 512.001 278.75C511.907 278.854 511.767 278.953 511.579 279.047C511.392 279.13 511.137 279.208 510.814 279.281C510.491 279.354 510.069 279.417 509.548 279.469C509.204 279.583 508.855 279.76 508.501 280C508.147 280.24 507.798 280.521 507.454 280.844C507.121 281.167 506.798 281.516 506.486 281.891C506.183 282.266 505.907 282.651 505.657 283.047C505.418 283.432 505.204 283.812 505.017 284.188C504.84 284.562 504.715 284.906 504.642 285.219ZM518.662 289.391C518.797 288.661 518.953 287.859 519.131 286.984C519.308 286.109 519.49 285.224 519.677 284.328C519.865 283.432 520.047 282.552 520.224 281.688C520.401 280.823 520.552 280.031 520.677 279.312C520.667 279.208 520.662 279.12 520.662 279.047C520.662 278.964 520.662 278.875 520.662 278.781C520.662 278.458 520.683 278.135 520.724 277.812C520.766 277.49 520.823 277.193 520.896 276.922C521.011 276.526 521.136 276.26 521.271 276.125C521.417 275.979 521.646 275.906 521.959 275.906C522.261 275.906 522.5 275.969 522.677 276.094C522.865 276.208 523.011 276.365 523.115 276.562C523.219 276.76 523.287 276.99 523.318 277.25C523.349 277.5 523.365 277.76 523.365 278.031C523.365 278.177 523.36 278.339 523.349 278.516C523.339 278.693 523.334 278.833 523.334 278.938C523.625 278.635 523.933 278.328 524.256 278.016C524.589 277.693 524.938 277.406 525.302 277.156C525.677 276.896 526.068 276.682 526.474 276.516C526.891 276.349 527.323 276.266 527.771 276.266C527.948 276.266 528.12 276.281 528.287 276.312C528.464 276.344 528.641 276.385 528.818 276.438C529.026 276.49 529.24 276.562 529.459 276.656C529.688 276.74 529.907 276.859 530.115 277.016C530.459 277.276 530.745 277.604 530.974 278C531.214 278.385 531.334 278.781 531.334 279.188C531.334 279.344 531.302 279.516 531.24 279.703C531.177 279.88 531.089 280.047 530.974 280.203C530.87 280.349 530.745 280.474 530.599 280.578C530.453 280.672 530.292 280.719 530.115 280.719C529.938 280.719 529.719 280.677 529.459 280.594C529.209 280.5 529 280.38 528.834 280.234C528.761 280.172 528.683 280.083 528.599 279.969C528.526 279.854 528.453 279.74 528.381 279.625C528.318 279.51 528.256 279.406 528.193 279.312C528.141 279.208 528.099 279.141 528.068 279.109C528.016 279.099 527.959 279.094 527.896 279.094C527.834 279.083 527.776 279.078 527.724 279.078C527.193 279.078 526.688 279.214 526.209 279.484C525.73 279.755 525.282 280.089 524.865 280.484C524.448 280.87 524.063 281.286 523.709 281.734C523.365 282.172 523.063 282.568 522.802 282.922C522.594 283.766 522.36 284.667 522.099 285.625C521.849 286.573 521.599 287.568 521.349 288.609V289C521.349 289.312 521.339 289.63 521.318 289.953C521.297 290.276 521.235 290.562 521.131 290.812C521.016 290.969 520.849 291.099 520.631 291.203C520.422 291.318 520.177 291.375 519.896 291.375C519.459 291.375 519.131 291.234 518.912 290.953C518.693 290.661 518.584 290.323 518.584 289.938C518.584 289.76 518.61 289.578 518.662 289.391Z" fill="#7785E5"/>
<path d="M406.646 314.463C406.646 314.463 414 314.124 418.86 310.277C423.725 306.433 425.405 303.999 430.174 301.487C434.943 298.975 442.368 295.737 442.494 293.206C442.62 290.674 440.279 290.703 440.454 290.791C440.633 290.882 447.431 289.833 447.741 287.049C448.051 284.266 441.022 284.853 441.022 284.853C441.022 284.853 449.521 281.808 449.078 279.251C448.631 276.691 443.083 276.903 443.083 276.903C443.083 276.903 450.013 275.403 449.118 272.872C448.223 270.341 437.345 271.401 433.044 273.198C428.743 274.994 409.928 293.472 408.921 294.259C407.911 295.045 406.08 296.361 406.08 296.361C406.08 296.361 405.158 311.804 406.646 314.463Z" fill="#FFAEA2"/>
<path d="M427.325 293.652C427.605 293.337 428.022 293.125 428.377 292.896C428.742 292.66 429.117 292.445 429.498 292.239C430.21 291.848 430.93 291.473 431.652 291.104C432.878 290.475 434.117 289.864 435.39 289.353C436.649 288.847 437.94 288.435 439.268 288.249C439.887 288.162 440.516 288.12 441.137 288.163C441.731 288.206 442.5 288.27 442.982 288.612C443.188 288.761 443.156 289.145 442.851 289.202C442.268 289.311 441.635 289.2 441.042 289.226C440.421 289.255 439.8 289.324 439.182 289.439C437.918 289.678 436.682 290.111 435.494 290.618C434.264 291.143 433.078 291.757 431.889 292.37C431.157 292.745 430.423 293.126 429.679 293.473C429.017 293.781 428.251 294.191 427.534 294.264C427.173 294.311 427.14 293.862 427.325 293.652Z" fill="#D87268"/>
<path d="M427.062 286.366C427.728 285.973 428.416 285.612 429.12 285.282C430.478 284.641 431.886 284.103 433.317 283.675C436.118 282.837 439.308 282.221 442.139 282.742C442.452 282.801 442.407 283.316 442.084 283.358C440.684 283.56 439.277 283.641 437.873 283.869C436.433 284.102 435.006 284.403 433.6 284.837C432.224 285.257 430.882 285.787 429.585 286.417C428.933 286.734 428.296 287.074 427.664 287.433C427.349 287.613 427.036 287.788 426.718 287.962C426.403 288.13 426.051 288.366 425.698 288.411C425.312 288.456 425.081 288.129 425.266 287.782C425.586 287.18 426.481 286.705 427.062 286.366Z" fill="#D87268"/>
<path d="M423.555 280.292C423.759 280.042 424.017 279.885 424.259 279.675C424.53 279.435 424.822 279.216 425.129 279.02C425.724 278.643 426.331 278.294 426.958 277.971C428.204 277.327 429.477 276.735 430.774 276.21C433.35 275.174 436.037 274.403 438.771 274.142C439.544 274.067 440.32 274.038 441.092 274.047C441.752 274.058 442.634 274.057 443.214 274.355C443.406 274.452 443.292 274.699 443.126 274.76C442.56 274.962 441.834 274.93 441.24 274.972C440.58 275.022 439.928 275.098 439.273 275.19C437.974 275.373 436.676 275.635 435.405 275.982C432.852 276.671 430.381 277.667 428.006 278.871C427.337 279.213 426.681 279.589 426.005 279.922C425.679 280.081 425.357 280.252 425.026 280.391C424.679 280.54 424.295 280.743 423.926 280.82C423.631 280.881 423.347 280.55 423.555 280.292Z" fill="#D87268"/>
<path d="M549.68 224.069C549.68 224.069 548.152 224.518 548.82 227.346C549.68 230.996 561.361 231.185 567.773 230.527C574.184 229.87 575.623 227.25 577.057 221.26C578.49 215.271 578.016 204.975 572.172 201.601C566.334 198.231 557.525 200.291 553.407 202.069C549.289 203.848 546.897 206.565 546.417 208.624C545.938 210.684 549.289 211.525 549.289 211.525C549.289 211.525 547.277 212.463 546.704 214.705C546.131 216.953 549.383 217.794 549.383 217.794C549.383 217.794 547.277 218.452 547.085 221.072C546.902 223.697 549.68 224.069 549.68 224.069Z" fill="#FFAEA2"/>
<path d="M550.589 223.392C551.395 223.3 552.191 223.146 553.002 223.063C553.812 222.981 554.623 222.914 555.434 222.846C557.09 222.706 558.741 222.575 560.397 222.45C562.023 222.324 563.645 222.203 565.271 222.092C566.082 222.034 566.898 221.976 567.708 221.918C568.519 221.86 569.315 221.807 570.101 222.043C570.422 222.14 570.393 222.585 570.121 222.711C569.399 223.049 568.613 223.102 567.822 223.155C567.011 223.213 566.196 223.271 565.385 223.329C563.729 223.445 562.068 223.556 560.412 223.663C558.785 223.769 557.154 223.866 555.528 223.958C554.712 224.006 553.896 224.05 553.081 224.083C552.255 224.117 551.44 224.079 550.614 224.098C550.194 224.117 550.179 223.44 550.589 223.392Z" fill="#D87268"/>
<path d="M549.601 217.412C550.056 216.832 550.758 216.61 551.45 216.426C552.34 216.19 553.244 215.991 554.149 215.808C556.042 215.416 557.965 215.136 559.883 214.923C561.777 214.71 563.675 214.56 565.578 214.464C566.522 214.415 567.467 214.386 568.416 214.367C568.905 214.357 569.399 214.348 569.889 214.362C570.353 214.377 570.848 214.362 571.283 214.556C571.629 214.71 571.683 215.218 571.303 215.377C570.526 215.711 569.493 215.585 568.658 215.595C567.729 215.609 566.799 215.638 565.875 215.682C564.065 215.769 562.256 215.909 560.452 216.098C558.647 216.291 556.853 216.547 555.059 216.794C554.144 216.919 553.234 217.064 552.325 217.2C551.583 217.311 550.619 217.296 550.056 217.843C549.799 218.094 549.388 217.688 549.601 217.412Z" fill="#D87268"/>
<path d="M549.719 211.061C550.09 210.824 550.407 210.519 550.782 210.292C551.148 210.07 551.529 209.872 551.919 209.693C552.681 209.345 553.476 209.064 554.272 208.808C555.958 208.272 557.678 207.866 559.404 207.474C561.168 207.073 562.953 206.691 564.762 206.536C565.652 206.459 566.557 206.43 567.447 206.507C568.287 206.58 569.325 206.72 570.002 207.252C570.259 207.45 570.195 207.933 569.824 207.967C569.004 208.04 568.139 207.822 567.318 207.769C566.448 207.711 565.578 207.725 564.708 207.808C562.983 207.967 561.297 208.339 559.606 208.682C557.98 209.011 556.349 209.354 554.757 209.814C553.941 210.05 553.14 210.321 552.339 210.616C551.974 210.751 551.608 210.887 551.237 211.022C550.822 211.177 550.367 211.273 549.972 211.472C549.729 211.583 549.487 211.211 549.719 211.061Z" fill="#D87268"/>
<path d="M326.914 168.834C332.039 168.809 340.952 177.522 345.73 199.466C350.842 223.018 347.169 235.334 346.231 241.649C345.307 247.963 341.081 292.289 345.73 295.34C350.38 298.391 380.47 294.838 382.975 296.419C385.48 298.001 400.639 301.278 400.639 301.278L406.711 326.648C406.711 326.648 340.628 333.552 333.294 330.426C325.947 327.3 306.877 318.556 305.49 298.318C304.077 277.755 297.539 230.839 298.091 226.772C298.644 222.704 293.069 168.972 326.914 168.834Z" fill="#EDDAD3"/>
<path d="M337.944 303.783C337.072 303.702 335.334 303.337 335.334 303.337C335.334 303.337 334.937 302.711 335.336 302.564C336.217 302.256 337.228 302.296 338.154 302.357C339.051 302.42 339.947 302.533 340.834 302.651C342.351 302.86 343.997 303.075 345.459 303.601C348.199 304.516 343.446 305.189 345.545 304.692C346.991 303.237 335.175 303.847 341.6 303.613C343.257 303.554 344.831 303.887 346.487 303.877C347.342 298.511 348.633 293.209 349.51 287.839C350.424 282.256 351.111 276.635 351.581 270.999C352.518 259.777 352.603 248.492 351.823 237.255C351.6 234.099 351.317 230.948 350.96 227.805C350.6 224.641 350.03 221.456 349.973 218.271C349.957 217.559 351.021 217.466 351.222 218.123C352.053 220.855 352.359 223.741 352.698 226.561C353.033 229.367 353.315 232.185 353.545 235.002C353.714 237.072 353.838 239.148 353.948 241.222C354.281 238.406 354.695 235.589 355.006 232.777C355.535 227.938 356.058 223.098 356.529 218.256C356.663 216.889 356.782 215.519 356.915 214.159C357.048 212.799 357.102 211.341 357.589 210.053C357.762 209.6 358.535 209.493 358.65 210.058C358.886 211.231 358.77 212.453 358.682 213.636C358.585 214.875 358.475 216.104 358.357 217.339C358.128 219.761 357.884 222.188 357.613 224.603C357.072 229.511 356.431 234.402 355.725 239.29C355.329 242.046 354.955 244.798 354.261 247.497C354.245 247.551 354.221 247.604 354.192 247.642C354.223 249.114 354.247 250.586 354.248 252.06C354.279 263.442 353.409 274.818 351.683 286.072C351.194 289.238 350.64 292.4 350.015 295.543C349.458 298.343 348.864 301.144 348.003 303.88C359.438 303.885 370.884 304.764 382.314 303.954C389.941 303.415 397.639 302.044 404.772 299.325C405.47 299.057 405.951 300.214 405.262 300.512C399.004 303.255 392.409 304.723 385.59 305.46C378.711 306.201 371.776 306.209 364.86 306.065C351.786 305.796 357.559 303.319 344.651 305.856C347.851 305.263 341.165 306.541 344.651 305.856C343.045 306.462 341.456 307.142 339.914 307.887C338.286 308.666 336.619 309.412 335.019 310.239C334.513 310.502 333.916 309.801 334.398 309.427C335.638 308.441 336.867 307.517 338.261 306.734C339.632 305.962 341.08 305.294 342.546 304.692C342.806 304.587 343.524 304.075 343.782 303.976C342.892 303.836 341.545 304.13 340.648 304.024C339.744 303.917 338.846 303.861 337.944 303.783Z" fill="#D8BFBC"/>
<path d="M401.131 328.973C401.131 328.973 422.115 321.954 419.911 317.019C417.703 312.087 416.36 312.556 403.409 297.022L338.004 292.127C338.01 292.133 369.826 338.763 401.131 328.973Z" fill="#EDDAD3"/>
<path d="M382.975 349.332L386.288 349.368C390.039 347.476 393.606 345.24 396.979 342.761C399.638 340.807 402.18 338.705 404.603 336.492C408.629 332.82 412.367 328.859 415.909 324.755C416.447 324.133 416.974 323.506 417.502 322.879C417.855 322.461 418.208 322.038 418.556 321.62C419.384 320.625 420.52 319.543 420.484 318.171C420.466 317.478 420.119 316.872 419.777 316.281C419.696 316.139 419.609 315.993 419.522 315.851C419.517 315.841 419.512 315.836 419.512 315.826C419.206 315.315 418.9 314.805 418.598 314.299C417.813 312.98 416.948 311.715 416.105 310.435C415.839 310.031 415.148 310.44 415.361 310.864C416.124 312.354 416.872 313.838 417.708 315.299C418.101 315.981 418.592 316.669 418.87 317.406C419.153 318.142 419.016 318.703 418.551 319.315C416.772 321.656 414.754 323.874 412.789 326.072C406.119 333.521 398.669 340.5 389.96 345.697C389.588 345.919 389.211 346.141 388.829 346.358C386.929 347.437 384.972 348.435 382.975 349.332Z" fill="#D8BFBC"/>
</g>
<defs>
<filter id="filter0_d_205_719" x="-4" y="0" width="1448.14" height="516" filterUnits="userSpaceOnUse" color-interpolation-filters="sRGB">
<feFlood flood-opacity="0" result="BackgroundImageFix"/>
<feColorMatrix in="SourceAlpha" type="matrix" values="0 0 0 0 0 0 0 0 0 0 0 0 0 0 0 0 0 0 127 0" result="hardAlpha"/>
<feOffset dy="4"/>
<feGaussianBlur stdDeviation="2"/>
<feComposite in2="hardAlpha" operator="out"/>
<feColorMatrix type="matrix" values="0 0 0 0 0 0 0 0 0 0 0 0 0 0 0 0 0 0 0.25 0"/>
<feBlend mode="normal" in2="BackgroundImageFix" result="effect1_dropShadow_205_719"/>
<feBlend mode="normal" in="SourceGraphic" in2="effect1_dropShadow_205_719" result="shape"/>
</filter>
</defs>
</svg>
