<svg width="32" height="32" viewBox="0 0 32 32" fill="none" xmlns="http://www.w3.org/2000/svg">
<g id="4781820_avatar_male_man_people_person_icon 1" clip-path="url(#clip0_294_65)">
<g id="Layer 2">
<path id="Vector" d="M24 30H7.99998C6.67389 30 5.40212 29.4732 4.46444 28.5355C3.52676 27.5979 2.99998 26.3261 2.99998 25C2.99894 24.8807 3.01926 24.7622 3.05998 24.65C4.02097 22.115 5.72831 19.931 7.9565 18.3867C10.1847 16.8423 12.8289 16.0101 15.54 16H16.46C19.171 16.0101 21.8153 16.8423 24.0435 18.3867C26.2716 19.931 27.979 22.115 28.94 24.65C28.9807 24.7622 29.001 24.8807 29 25C29 26.3261 28.4732 27.5979 27.5355 28.5355C26.5978 29.4732 25.3261 30 24 30ZM4.99998 25.17C5.04344 25.9358 5.3786 26.6559 5.93657 27.1823C6.49454 27.7086 7.23292 28.0012 7.99998 28H24C24.767 28.0012 25.5054 27.7086 26.0634 27.1823C26.6214 26.6559 26.9565 25.9358 27 25.17C26.1584 23.0601 24.7051 21.2501 22.827 19.9724C20.9488 18.6947 18.7315 18.0079 16.46 18H15.54C13.2684 18.0079 11.0512 18.6947 9.17298 19.9724C7.29481 21.2501 5.84157 23.0601 4.99998 25.17Z" fill="#D9D9D9"/>
<path id="Vector_2" d="M16 15C14.8133 15 13.6533 14.6481 12.6666 13.9888C11.6799 13.3295 10.9109 12.3925 10.4567 11.2961C10.0026 10.1997 9.88378 8.99334 10.1153 7.82946C10.3468 6.66557 10.9182 5.59647 11.7574 4.75736C12.5965 3.91824 13.6656 3.3468 14.8295 3.11529C15.9933 2.88378 17.1997 3.0026 18.2961 3.45672C19.3925 3.91085 20.3295 4.67988 20.9888 5.66658C21.6481 6.65327 22 7.81331 22 9C22 10.5913 21.3679 12.1174 20.2426 13.2426C19.1174 14.3679 17.5913 15 16 15ZM16 5C15.2089 5 14.4355 5.23459 13.7777 5.67412C13.1199 6.11365 12.6072 6.73836 12.3045 7.46927C12.0017 8.20017 11.9225 9.00444 12.0769 9.78036C12.2312 10.5563 12.6122 11.269 13.1716 11.8284C13.731 12.3878 14.4437 12.7688 15.2196 12.9231C15.9956 13.0775 16.7998 12.9983 17.5307 12.6955C18.2616 12.3928 18.8864 11.8801 19.3259 11.2223C19.7654 10.5645 20 9.79112 20 9C20 7.93913 19.5786 6.92172 18.8284 6.17157C18.0783 5.42143 17.0609 5 16 5Z" fill="#D9D9D9"/>
<path id="Vector_3" d="M24 30H7.99998C6.67389 30 5.40212 29.4732 4.46444 28.5355C3.52676 27.5979 2.99998 26.3261 2.99998 25C2.99894 24.8807 3.01926 24.7622 3.05998 24.65C4.02097 22.115 5.72831 19.931 7.9565 18.3867C10.1847 16.8423 12.8289 16.0101 15.54 16H16.46C19.171 16.0101 21.8153 16.8423 24.0435 18.3867C26.2716 19.931 27.979 22.115 28.94 24.65C28.9807 24.7622 29.001 24.8807 29 25C29 26.3261 28.4732 27.5979 27.5355 28.5355C26.5978 29.4732 25.3261 30 24 30ZM4.99998 25.17C5.04344 25.9358 5.3786 26.6559 5.93657 27.1823C6.49454 27.7086 7.23292 28.0012 7.99998 28H24C24.767 28.0012 25.5054 27.7086 26.0634 27.1823C26.6214 26.6559 26.9565 25.9358 27 25.17C26.1584 23.0601 24.7051 21.2501 22.827 19.9724C20.9488 18.6947 18.7315 18.0079 16.46 18H15.54C13.2684 18.0079 11.0512 18.6947 9.17298 19.9724C7.29481 21.2501 5.84157 23.0601 4.99998 25.17Z" fill="#D9D9D9"/>
</g>
</g>
<defs>
<clipPath id="clip0_294_65">
<rect width="32" height="32" fill="white"/>
</clipPath>
</defs>
</svg>
