<svg width="34" height="34" viewBox="0 0 34 34" fill="none" xmlns="http://www.w3.org/2000/svg">
<g id="Frame">
<g id="Open_Book">
<path id="Vector" d="M29.6034 10.5443H29.3208V10.3902C29.3208 9.79838 29.0806 9.24269 28.6631 8.86657C27.166 7.514 24.9868 6.73944 22.6865 6.73944C20.5318 6.73944 18.4737 7.42688 16.9989 8.61263C15.5231 7.42794 13.4661 6.73944 11.3114 6.73944C9.01214 6.73944 6.83401 7.514 5.33589 8.8655C5.12594 9.05963 4.95903 9.29561 4.84593 9.55823C4.73283 9.82085 4.67605 10.1043 4.67926 10.3902V10.5443H4.39664C3.5409 10.5454 2.72053 10.8858 2.11543 11.4909C1.51033 12.096 1.16989 12.9164 1.16876 13.7721V24.0348C1.16989 24.8906 1.51033 25.7109 2.11543 26.316C2.72053 26.9211 3.5409 27.2616 4.39664 27.2627H14.7294C15.5809 27.2627 16.3977 26.9253 17.0011 26.3245C17.6043 26.9255 18.4212 27.2629 19.2727 27.2627H29.6055C30.4613 27.2616 31.2816 26.9211 31.8867 26.316C32.4918 25.7109 32.8323 24.8906 32.8334 24.0348V13.7721C32.8314 12.9163 32.4904 12.0961 31.885 11.4911C31.2797 10.8861 30.4592 10.5457 29.6034 10.5443ZM17.9563 10.3222C19.0942 9.27457 20.8282 8.65088 22.6876 8.65088C24.5215 8.65088 26.2321 9.24694 27.3828 10.2861C27.3881 10.2914 27.4083 10.3275 27.4083 10.3902V21.692C27.4083 21.7356 27.4008 21.7813 27.3435 21.8153C27.3137 21.8344 27.2319 21.8684 27.1246 21.811C25.8134 21.1183 24.2781 20.7517 22.6865 20.7517C20.9631 20.7517 19.3067 21.1979 17.9552 21.981L17.9563 10.3222ZM6.59176 10.3902C6.59176 10.3328 6.60983 10.2956 6.61726 10.2861C7.76901 9.24694 9.4807 8.65088 11.3124 8.65088C13.1708 8.65088 14.9048 9.2735 16.0438 10.3222V21.981C14.6923 21.1979 13.0358 20.7517 11.3124 20.7517C9.72082 20.7517 8.18657 21.1183 6.87545 21.811C6.76708 21.8673 6.68632 21.8333 6.65551 21.8153C6.5992 21.7813 6.5907 21.7356 6.5907 21.692L6.59176 10.3902ZM14.7284 25.3491H4.39664C4.04786 25.3488 3.71346 25.2102 3.46684 24.9636C3.22022 24.7169 3.08154 24.3825 3.08126 24.0338V13.7711C3.08126 13.0454 3.67095 12.4557 4.39664 12.4557H4.67926V21.6909C4.67926 22.4209 5.04901 23.0796 5.66951 23.4526C6.3102 23.8383 7.09433 23.8563 7.77007 23.5004C8.80601 22.9521 10.0311 22.6631 11.3124 22.6631C13.1431 22.6631 14.8527 23.2666 15.9928 24.2866C15.8716 24.8869 15.3648 25.3491 14.7284 25.3491ZM30.9188 24.0338C30.9188 24.7594 30.3291 25.3491 29.6045 25.3491H19.2716C18.6363 25.3491 18.1294 24.8869 18.0073 24.2866C19.1473 23.2677 20.8569 22.6631 22.6876 22.6631C23.969 22.6631 25.194 22.9521 26.231 23.5004C26.5552 23.6753 26.9192 23.763 27.2875 23.7548C27.6557 23.7466 28.0155 23.6428 28.3316 23.4536C28.9521 23.0796 29.3229 22.4219 29.3229 21.692V12.4568H29.6055C30.3312 12.4568 30.9198 13.0464 30.9198 13.7721L30.9188 24.0338Z" fill="#D9D9D9"/>
</g>
</g>
</svg>
