<svg width="32" height="32" viewBox="0 0 32 32" fill="none" xmlns="http://www.w3.org/2000/svg">
<path fill-rule="evenodd" clip-rule="evenodd" d="M6.66669 21.3333C6.66669 19.8605 7.86059 18.6667 9.33335 18.6667H13.3334C14.8062 18.6667 16 19.8605 16 21.3333V25.3333C16 26.8061 14.8062 28 13.3334 28H9.33335C7.86059 28 6.66669 26.8061 6.66669 25.3333V21.3333ZM13.3334 21.3333H9.33335V25.3333H13.3334V21.3333Z" fill="#D9D9D9"/>
<path fill-rule="evenodd" clip-rule="evenodd" d="M4 6.66667C4 5.19391 5.19391 4 6.66667 4H13.3333C14.8061 4 16 5.19391 16 6.66667V13.3333C16 14.8061 14.8061 16 13.3333 16H6.66667C5.19391 16 4 14.8061 4 13.3333V6.66667ZM13.3333 6.66667H6.66667V13.3333H13.3333V6.66667Z" fill="#D9D9D9"/>
<path fill-rule="evenodd" clip-rule="evenodd" d="M18.6667 21.3333C18.6667 19.8605 19.8606 18.6667 21.3334 18.6667H25.3334C26.8062 18.6667 28 19.8605 28 21.3333V25.3333C28 26.8061 26.8062 28 25.3334 28H21.3334C19.8606 28 18.6667 26.8061 18.6667 25.3333V21.3333ZM25.3334 21.3333H21.3334V25.3333H25.3334V21.3333Z" fill="#D9D9D9"/>
<path fill-rule="evenodd" clip-rule="evenodd" d="M18.6667 9.33332C18.6667 7.86056 19.8606 6.66666 21.3334 6.66666H25.3334C26.8062 6.66666 28 7.86056 28 9.33332V13.3333C28 14.8061 26.8062 16 25.3334 16H21.3334C19.8606 16 18.6667 14.8061 18.6667 13.3333V9.33332ZM25.3334 9.33332H21.3334V13.3333H25.3334V9.33332Z" fill="#D9D9D9"/>
</svg>
