<svg width="32" height="32" viewBox="0 0 32 32" fill="none" xmlns="http://www.w3.org/2000/svg">
<g id="10131944_door_exit_line_icon 1">
<path id="Vector" d="M21.3333 5.33334H25.3333C26.8061 5.33334 28 6.52724 28 8V9.33334M21.3333 26.6667H25.3333C26.8061 26.6667 28 25.4728 28 24V22.6667M5.9004 25.9035L13.9004 28.3035C15.6113 28.8168 17.3333 27.5356 17.3333 25.7492V6.25075C17.3333 4.46446 15.6113 3.18326 13.9004 3.69655L5.9004 6.09655C4.77245 6.43494 4 7.47312 4 8.65075V23.3492C4 24.5269 4.77245 25.5651 5.9004 25.9035Z" stroke="#D9D9D9" stroke-width="2" stroke-linecap="round" stroke-linejoin="round"/>
<path id="Vector_2" d="M12.0135 16H12" stroke="#D9D9D9" stroke-width="2" stroke-linecap="round" stroke-linejoin="round"/>
<path id="Vector_3" d="M21.3333 16H28M28 16L25.3333 13.3333M28 16L25.3333 18.6667" stroke="#D9D9D9" stroke-width="2" stroke-linecap="round" stroke-linejoin="round"/>
</g>
</svg>
