<svg width="32" height="32" viewBox="0 0 32 32" fill="none" xmlns="http://www.w3.org/2000/svg">
<g id="Frame">
<g id="Homework">
<path id="Vector" d="M8.61204 14.048C8.37334 14.048 8.14442 14.1428 7.97564 14.3116C7.80686 14.4804 7.71204 14.7093 7.71204 14.948C7.71204 15.1867 7.80686 15.4156 7.97564 15.5844C8.14442 15.7532 8.37334 15.848 8.61204 15.848H19.828C20.0667 15.848 20.2956 15.7532 20.4644 15.5844C20.6332 15.4156 20.728 15.1867 20.728 14.948C20.728 14.7093 20.6332 14.4804 20.4644 14.3116C20.2956 14.1428 20.0667 14.048 19.828 14.048H8.61204ZM14.047 18.756H8.61204C8.37334 18.756 8.14442 18.8508 7.97564 19.0196C7.80686 19.1884 7.71204 19.4173 7.71204 19.656C7.71204 19.8947 7.80686 20.1236 7.97564 20.2924C8.14442 20.4612 8.37334 20.556 8.61204 20.556H14.047C14.2857 20.556 14.5146 20.4612 14.6834 20.2924C14.8522 20.1236 14.947 19.8947 14.947 19.656C14.947 19.4173 14.8522 19.1884 14.6834 19.0196C14.5146 18.8508 14.2857 18.756 14.047 18.756Z" fill="#D9D9D9"/>
<path id="Vector_2" d="M13.11 29.1H5.54002C5.04698 29.0995 4.57429 28.9033 4.22575 28.5546C3.8772 28.2058 3.68129 27.733 3.68102 27.24V10.332H7.89902C8.74819 10.3309 9.56227 9.99314 10.1627 9.39269C10.7632 8.79224 11.101 7.97816 11.102 7.129V2.9H22.9C23.925 2.9 24.759 3.734 24.759 4.76V13.92C24.759 14.1587 24.8538 14.3876 25.0226 14.5564C25.1914 14.7252 25.4203 14.82 25.659 14.82C25.8977 14.82 26.1266 14.7252 26.2954 14.5564C26.4642 14.3876 26.559 14.1587 26.559 13.92V4.76C26.5577 3.78971 26.1717 2.85955 25.4856 2.17345C24.7995 1.48735 23.8693 1.10132 22.899 1.1H8.85003C7.92703 1.1 7.02102 1.476 6.36402 2.134L2.92002 5.577C2.58783 5.90325 2.32458 6.29294 2.14593 6.72292C1.96727 7.1529 1.87685 7.61439 1.88002 8.08V27.24C1.88135 28.2103 2.26738 29.1405 2.95348 29.8265C3.63957 30.5126 4.56974 30.8987 5.54002 30.9H13.11C13.3487 30.9 13.5776 30.8052 13.7464 30.6364C13.9152 30.4676 14.01 30.2387 14.01 30C14.01 29.7613 13.9152 29.5324 13.7464 29.3636C13.5776 29.1948 13.3487 29.1 13.11 29.1ZM4.18702 6.856L7.63702 3.406C7.95874 3.08387 8.39476 2.90199 8.85003 2.9H9.30102V7.129C9.30102 7.903 8.67202 8.532 7.89902 8.532H3.68102V8.08C3.68102 7.611 3.85702 7.179 4.18702 6.856Z" fill="#D9D9D9"/>
<path id="Vector_3" d="M29.163 17.358C27.93 16.124 25.78 16.126 24.549 17.358L16.57 25.337C16.3132 25.5921 16.1435 25.9218 16.085 26.279L15.647 28.866C15.6012 29.14 15.6214 29.421 15.7061 29.6856C15.7908 29.9502 15.9375 30.1907 16.1339 30.3871C16.3304 30.5836 16.5709 30.7302 16.8355 30.8149C17.1001 30.8996 17.381 30.9199 17.655 30.874L20.243 30.437C20.602 30.376 20.928 30.208 21.185 29.951L29.163 21.972C29.78 21.356 30.12 20.536 30.12 19.664C30.12 18.792 29.78 17.974 29.163 17.358ZM19.943 28.664L17.422 29.167L17.843 26.61L23.562 20.891L25.633 22.962L19.943 28.664ZM27.891 20.7L26.905 21.688L24.835 19.618L25.822 18.631C26.098 18.355 26.466 18.202 26.856 18.202C27.246 18.202 27.614 18.354 27.89 18.631H27.891C28.167 18.907 28.32 19.275 28.32 19.665C28.32 20.055 28.168 20.423 27.891 20.7Z" fill="#D9D9D9"/>
</g>
</g>
</svg>
