<svg width="32" height="32" viewBox="0 0 32 32" fill="none" xmlns="http://www.w3.org/2000/svg">
<path d="M24.454 3.56701H21.707L21.283 2.50501C20.942 1.65101 20.129 1.10001 19.21 1.10001H12.79C11.871 1.10001 11.057 1.65101 10.716 2.50501L10.292 3.56701H7.54502C5.01702 3.56701 2.96002 5.62401 2.96002 8.15201V26.314C2.96002 28.842 5.01702 30.9 7.54502 30.9H24.454C26.982 30.9 29.04 28.842 29.04 26.314V8.15301C29.04 5.62501 26.982 3.56701 24.454 3.56701ZM11.484 5.43501L12.387 3.17201C12.453 3.00701 12.611 2.90001 12.79 2.90001H19.21C19.388 2.90001 19.545 3.00701 19.611 3.17201L20.514 5.43501C20.588 5.62101 20.519 5.76801 20.47 5.83901C20.422 5.91001 20.312 6.02901 20.112 6.02901H11.886C11.686 6.02901 11.575 5.91001 11.527 5.83901C11.48 5.76801 11.41 5.62101 11.484 5.43501ZM27.239 26.314C27.239 27.85 25.99 29.099 24.454 29.099H7.54502C6.00902 29.099 4.75902 27.85 4.75902 26.314V8.15301C4.75902 6.61701 6.00902 5.36701 7.54502 5.36701H9.67202C9.61902 5.88301 9.73902 6.40801 10.037 6.84801C10.453 7.46201 11.144 7.82801 11.886 7.82801H20.112C20.854 7.82801 21.545 7.46201 21.961 6.84801C22.26 6.40801 22.38 5.88301 22.327 5.36701H24.454C25.99 5.36701 27.239 6.61701 27.239 8.15301V26.314Z" fill="#D9D9D9"/>
<path d="M21.198 15.893C20.701 15.893 20.298 16.296 20.298 16.793V23.188C20.298 23.685 20.701 24.088 21.198 24.088C21.695 24.088 22.098 23.685 22.098 23.188V16.793C22.099 16.296 21.695 15.893 21.198 15.893Z" fill="#D9D9D9"/>
<path d="M16 12.842C15.503 12.842 15.1 13.245 15.1 13.742V23.188C15.1 23.685 15.503 24.088 16 24.088C16.497 24.088 16.9 23.685 16.9 23.188V13.742C16.9 13.245 16.497 12.842 16 12.842Z" fill="#D9D9D9"/>
<path d="M10.802 18.572C10.305 18.572 9.90204 18.975 9.90204 19.472V23.187C9.90204 23.684 10.305 24.087 10.802 24.087C11.299 24.087 11.702 23.684 11.702 23.187V19.472C11.702 18.976 11.299 18.572 10.802 18.572Z" fill="#D9D9D9"/>
</svg>
