<svg width="36" height="36" viewBox="0 0 36 36" fill="none" xmlns="http://www.w3.org/2000/svg">
<g id="Frame">
<g id="School">
<path id="Vector" d="M34.605 20.5459L32.2886 15.921C32.0344 15.4204 31.527 15.1076 30.9656 15.1076H25.3935L19.0125 10.6391V9.47701H24.1571C24.7163 9.47701 25.1696 9.02363 25.1696 8.46451V4.26488C25.1696 3.70576 24.7163 3.25238 24.1571 3.25238H18C17.4409 3.25238 16.9875 3.70576 16.9875 4.26488V8.46338V10.6391L10.6065 15.1065H5.03439C4.47302 15.1065 3.96564 15.4181 3.70914 15.9244L1.39502 20.547C1.16327 21.0094 1.18689 21.5494 1.46027 21.9881C1.73139 22.4291 2.20277 22.6913 2.71914 22.6913H3.09714V30.96C3.09714 31.9433 3.89814 32.7431 4.88139 32.7431H31.1186C32.1019 32.7431 32.9029 31.9433 32.9029 30.96V22.6913H33.2809C33.7973 22.6913 34.2686 22.4291 34.5398 21.9881C34.812 21.5483 34.8368 21.0094 34.605 20.5459ZM32.4 20.6651H26.0888V17.1326H30.6315L32.4 20.6651ZM19.5109 30.717H16.4891V25.8053H19.5109V30.717ZM19.7989 23.7791H16.2023C15.2438 23.7791 14.4641 24.5588 14.4641 25.5184V30.717H11.9385V16.6478L18 12.402L24.0626 16.6466V30.7159H21.537V25.5173C21.537 24.5588 20.7563 23.7791 19.7989 23.7791ZM23.1446 7.45088H19.0125V5.27738H23.1446V7.45088ZM5.36852 17.1326H9.91127V20.6651H3.60002L5.36852 17.1326ZM5.12327 22.6913H9.91239V30.717H5.12327V22.6913ZM30.8768 30.717H26.0876V22.6913H30.8768V30.717Z" fill="#D9D9D9"/>
<path id="Vector_2" d="M18 19.4929C18.7512 19.4929 19.3601 18.8839 19.3601 18.1328C19.3601 17.3816 18.7512 16.7726 18 16.7726C17.2488 16.7726 16.6399 17.3816 16.6399 18.1328C16.6399 18.8839 17.2488 19.4929 18 19.4929Z" fill="#D9D9D9"/>
</g>
</g>
</svg>
