<svg width="36" height="36" viewBox="0 0 36 36" fill="none" xmlns="http://www.w3.org/2000/svg">
<path fill-rule="evenodd" clip-rule="evenodd" d="M10.8001 10.8V8.99998C10.8001 6.01764 13.2178 3.59998 16.2001 3.59998H19.8001C22.7824 3.59998 25.2001 6.01764 25.2001 8.99998V10.8H28.8001C30.7883 10.8 32.4001 12.4118 32.4001 14.4V20.8273C27.9175 22.4905 23.0669 23.3999 18.0001 23.3999C12.9334 23.3999 8.08276 22.4905 3.6001 20.8273V14.4C3.6001 12.4118 5.21187 10.8 7.2001 10.8H10.8001ZM14.4001 8.99998C14.4001 8.00586 15.206 7.19998 16.2001 7.19998H19.8001C20.7942 7.19998 21.6001 8.00586 21.6001 8.99998V10.8H14.4001V8.99998ZM16.2001 18C16.2001 17.0059 17.006 16.2 18.0001 16.2H18.0181C19.0122 16.2 19.8181 17.0059 19.8181 18C19.8181 18.9941 19.0122 19.8 18.0181 19.8H18.0001C17.006 19.8 16.2001 18.9941 16.2001 18Z" fill="white"/>
<path d="M3.6001 24.646V28.8C3.6001 30.7882 5.21187 32.4 7.2001 32.4H28.8001C30.7883 32.4 32.4001 30.7882 32.4001 28.8V24.6461C27.8771 26.1728 23.0336 26.9999 18.0001 26.9999C12.9666 26.9999 8.12313 26.1728 3.6001 24.646Z" fill="white"/>
</svg>
