<svg width="20" height="20" viewBox="0 0 20 20" fill="none" xmlns="http://www.w3.org/2000/svg">
<path d="M10 0C4.47715 0 0 4.47715 0 10C0 15.5228 4.47715 20 10 20C15.5228 20 20 15.5228 20 10C19.9936 4.47982 15.5202 0.00642897 10 0Z" fill="#F2F4FC" fill-opacity="0.2"/>
<path d="M14.8385 7.15086L9.86416 13.7156C9.74553 13.8686 9.56863 13.9689 9.37321 13.9939C9.17779 14.0189 8.98024 13.9665 8.82496 13.8484L5.27276 11.0866C4.9593 10.8426 4.90854 10.3978 5.15939 10.0929C5.41024 9.78809 5.8677 9.73873 6.18116 9.98268L9.14326 12.2873L13.6685 6.31482C13.8169 6.09827 14.0757 5.97855 14.3421 6.00318C14.6084 6.02782 14.8394 6.19282 14.9431 6.43268C15.0469 6.67254 15.0067 6.94845 14.8385 7.15086Z" fill="white"/>
</svg>
