<svg width="187" height="187" viewBox="0 0 187 187" fill="none" xmlns="http://www.w3.org/2000/svg">
<circle cx="132.64" cy="2.17442" r="2.17442" fill="white"/>
<circle cx="132.64" cy="28.2677" r="2.17442" fill="white"/>
<circle cx="132.64" cy="54.3607" r="2.17442" fill="white"/>
<circle cx="132.64" cy="80.4535" r="2.17442" fill="white"/>
<circle cx="132.64" cy="106.547" r="2.17442" fill="white"/>
<circle cx="132.64" cy="132.64" r="2.17442" fill="white"/>
<circle cx="132.64" cy="158.733" r="2.17442" fill="white"/>
<circle cx="132.64" cy="184.826" r="2.17442" fill="white"/>
<circle cx="158.732" cy="2.17442" r="2.17442" fill="white"/>
<circle cx="158.732" cy="28.2676" r="2.17442" fill="white"/>
<circle cx="158.732" cy="54.3606" r="2.17442" fill="white"/>
<circle cx="158.732" cy="80.4536" r="2.17442" fill="white"/>
<circle cx="158.732" cy="106.547" r="2.17442" fill="white"/>
<circle cx="158.732" cy="132.64" r="2.17442" fill="white"/>
<circle cx="158.732" cy="158.733" r="2.17442" fill="white"/>
<circle cx="158.732" cy="184.826" r="2.17442" fill="white"/>
<circle cx="184.827" cy="2.17442" r="2.17442" fill="white"/>
<circle cx="184.827" cy="28.2677" r="2.17442" fill="white"/>
<circle cx="184.827" cy="54.3607" r="2.17442" fill="white"/>
<circle cx="184.827" cy="80.4535" r="2.17442" fill="white"/>
<circle cx="184.827" cy="106.547" r="2.17442" fill="white"/>
<circle cx="184.827" cy="132.64" r="2.17442" fill="white"/>
<circle cx="184.827" cy="158.733" r="2.17442" fill="white"/>
<circle cx="184.827" cy="184.826" r="2.17442" fill="white"/>
<circle cx="2.17442" cy="2.1754" r="2.17442" fill="white"/>
<circle cx="2.17442" cy="28.2676" r="2.17442" fill="white"/>
<circle cx="2.17442" cy="54.3606" r="2.17442" fill="white"/>
<circle cx="2.17442" cy="80.4536" r="2.17442" fill="white"/>
<circle cx="2.17442" cy="106.547" r="2.17442" fill="white"/>
<circle cx="2.17442" cy="132.64" r="2.17442" fill="white"/>
<circle cx="2.17442" cy="158.733" r="2.17442" fill="white"/>
<circle cx="2.17442" cy="184.826" r="2.17442" fill="white"/>
<circle cx="28.2691" cy="2.17442" r="2.17442" fill="white"/>
<circle cx="28.2691" cy="28.2677" r="2.17442" fill="white"/>
<circle cx="28.2691" cy="54.3607" r="2.17442" fill="white"/>
<circle cx="28.2691" cy="80.4535" r="2.17442" fill="white"/>
<circle cx="28.2691" cy="106.547" r="2.17442" fill="white"/>
<circle cx="28.2691" cy="132.64" r="2.17442" fill="white"/>
<circle cx="28.2691" cy="158.733" r="2.17442" fill="white"/>
<circle cx="28.2691" cy="184.826" r="2.17442" fill="white"/>
<circle cx="54.359" cy="2.17442" r="2.17442" fill="white"/>
<circle cx="54.359" cy="28.2677" r="2.17442" fill="white"/>
<circle cx="54.359" cy="54.3607" r="2.17442" fill="white"/>
<circle cx="54.359" cy="80.4535" r="2.17442" fill="white"/>
<circle cx="54.359" cy="106.547" r="2.17442" fill="white"/>
<circle cx="54.359" cy="132.64" r="2.17442" fill="white"/>
<circle cx="54.359" cy="158.733" r="2.17442" fill="white"/>
<circle cx="54.359" cy="184.826" r="2.17442" fill="white"/>
<circle cx="80.4554" cy="2.17442" r="2.17442" fill="white"/>
<circle cx="80.4554" cy="28.2676" r="2.17442" fill="white"/>
<circle cx="80.4554" cy="54.3606" r="2.17442" fill="white"/>
<circle cx="80.4554" cy="80.4536" r="2.17442" fill="white"/>
<circle cx="80.4554" cy="106.547" r="2.17442" fill="white"/>
<circle cx="80.4554" cy="132.64" r="2.17442" fill="white"/>
<circle cx="80.4554" cy="158.733" r="2.17442" fill="white"/>
<circle cx="80.4554" cy="184.826" r="2.17442" fill="white"/>
<circle cx="106.55" cy="2.17442" r="2.17442" fill="white"/>
<circle cx="106.55" cy="28.2677" r="2.17442" fill="white"/>
<circle cx="106.55" cy="54.3607" r="2.17442" fill="white"/>
<circle cx="106.55" cy="80.4535" r="2.17442" fill="white"/>
<circle cx="106.55" cy="106.547" r="2.17442" fill="white"/>
<circle cx="106.55" cy="132.64" r="2.17442" fill="white"/>
<circle cx="106.55" cy="158.733" r="2.17442" fill="white"/>
<circle cx="106.55" cy="184.826" r="2.17442" fill="white"/>
</svg>
