<svg width="24" height="24" viewBox="0 0 24 24" fill="none" xmlns="http://www.w3.org/2000/svg">
<path fill-rule="evenodd" clip-rule="evenodd" d="M12 24C18.6274 24 24 18.6274 24 12C24 5.37258 18.6274 0 12 0C5.37258 0 0 5.37258 0 12C0 18.6274 5.37258 24 12 24Z" fill="#0976B4"/>
<path fill-rule="evenodd" clip-rule="evenodd" d="M7.32479 8.90287C8.15092 8.90287 8.82066 8.29211 8.82066 7.53786C8.82066 6.78295 8.15092 6.17139 7.32479 6.17139C6.49786 6.17139 5.82812 6.78295 5.82812 7.53786C5.82812 8.29211 6.49786 8.90287 7.32479 8.90287Z" fill="white"/>
<path fill-rule="evenodd" clip-rule="evenodd" d="M6.17188 17.6838H8.85588V9.94287H6.17188V17.6838Z" fill="white"/>
<path fill-rule="evenodd" clip-rule="evenodd" d="M12.622 13.3785C12.622 12.4908 13.042 11.6227 14.0462 11.6227C15.0505 11.6227 15.2974 12.4908 15.2974 13.3573V17.585H17.9694V13.1845C17.9694 10.1272 16.1622 9.6001 15.0505 9.6001C13.9397 9.6001 13.327 9.97582 12.622 10.8862V9.84408H9.94238V17.585H12.622V13.3785Z" fill="white"/>
</svg>
