<svg width="491" height="400" viewBox="0 0 491 400" fill="none" xmlns="http://www.w3.org/2000/svg">
<g clip-path="url(#clip0_393_200)">
<path d="M0.230011 334.16L491 334.16V334.385L0.230011 334.385V334.16Z" fill="#EBEBEB"/>
<path d="M49.4052 348.641H81.9138V348.866H49.4052V348.641Z" fill="#EBEBEB"/>
<path d="M165.894 351.089H174.424V351.314H165.894V351.089Z" fill="#EBEBEB"/>
<path d="M82.8957 340.289H101.731V340.514H82.8957V340.289Z" fill="#EBEBEB"/>
<path d="M397.116 341.801H439.509V342.026H397.116V341.801Z" fill="#EBEBEB"/>
<path d="M382.157 341.801H388.37V342.026H382.157V341.801Z" fill="#EBEBEB"/>
<path d="M270.006 345.599H361.957V345.824H270.006V345.599Z" fill="#EBEBEB"/>
<path d="M258.375 294.02L447.901 294.02C449.386 294.018 450.809 293.475 451.858 292.512C452.906 291.548 453.496 290.242 453.496 288.881L453.496 44.594C453.483 43.2404 452.888 41.9462 451.84 40.9924C450.793 40.0386 449.377 39.5023 447.901 39.5L258.375 39.5C256.889 39.5 255.463 40.0414 254.412 41.0052C253.361 41.9689 252.771 43.2761 252.771 44.639L252.771 288.881C252.771 290.244 253.361 291.551 254.412 292.515C255.463 293.479 256.889 294.02 258.375 294.02ZM447.901 39.68C449.32 39.6824 450.681 40.2012 451.684 41.1225C452.687 42.0437 453.25 43.2923 453.25 44.594L453.25 288.881C453.25 290.183 452.687 291.431 451.684 292.353C450.681 293.274 449.32 293.793 447.901 293.795L258.375 293.795C256.955 293.793 255.593 293.274 254.589 292.353C253.584 291.432 253.019 290.184 253.016 288.881L253.016 44.594C253.019 43.2915 253.584 42.0429 254.589 41.1219C255.593 40.2009 256.955 39.6824 258.375 39.68L447.901 39.68Z" fill="#EBEBEB"/>
<path d="M46.058 294.02L235.593 294.02C237.079 294.018 238.503 293.475 239.554 292.512C240.604 291.549 241.195 290.243 241.198 288.881L241.198 44.594C241.183 43.2396 240.585 41.9454 239.536 40.9918C238.487 40.0383 237.071 39.5023 235.593 39.5L46.058 39.5C44.5835 39.5047 43.1703 40.042 42.1249 40.9956C41.0795 41.9491 40.486 43.242 40.4731 44.594L40.4731 288.881C40.4731 290.241 41.0608 291.545 42.1077 292.508C43.1545 293.472 44.575 294.015 46.058 294.02ZM235.593 39.68C237.014 39.6824 238.376 40.2009 239.38 41.1219C240.385 42.0429 240.95 43.2915 240.953 44.594L240.953 288.881C240.95 290.184 240.385 291.432 239.38 292.353C238.376 293.274 237.014 293.793 235.593 293.795L46.058 293.795C44.6375 293.793 43.2758 293.274 42.2714 292.353C41.2669 291.432 40.7014 290.184 40.6988 288.881L40.6988 44.594C40.7014 43.2915 41.2669 42.0429 42.2714 41.1219C43.2758 40.2009 44.6375 39.6824 46.058 39.68L235.593 39.68Z" fill="#EBEBEB"/>
<path d="M138.313 161.225C109.896 161.225 86.8605 140.103 86.8605 114.047C86.8605 87.9914 109.896 66.8691 138.313 66.8691C166.729 66.8691 189.765 87.9914 189.765 114.047C189.765 140.103 166.729 161.225 138.313 161.225Z" fill="#E0E0E0"/>
<path d="M142.22 161.225C113.803 161.225 90.7675 140.103 90.7675 114.047C90.7675 87.9914 113.803 66.8691 142.22 66.8691C170.636 66.8691 193.672 87.9914 193.672 114.047C193.672 140.103 170.636 161.225 142.22 161.225Z" fill="#F5F5F5"/>
<path d="M108.589 144.887C90.0172 127.858 90.0172 100.249 108.589 83.2203C127.16 66.1915 157.271 66.1915 175.843 83.2203C194.414 100.249 194.414 127.858 175.843 144.887C157.271 161.916 127.16 161.916 108.589 144.887Z" fill="white"/>
<path d="M134.112 145.781C134.371 145.781 134.623 145.702 134.826 145.555C135.029 145.407 135.172 145.202 135.231 144.971L143.339 114.299C143.396 114.031 143.339 113.753 143.178 113.523C143.018 113.293 142.767 113.128 142.478 113.063C142.188 112.998 141.883 113.038 141.624 113.174C141.366 113.311 141.175 113.533 141.091 113.795L132.994 144.476C132.923 144.749 132.973 145.037 133.133 145.277C133.293 145.516 133.55 145.688 133.847 145.754C133.934 145.772 134.023 145.781 134.112 145.781Z" fill="#F5F5F5"/>
<path d="M142.219 116.162C142.522 116.162 142.822 116.107 143.102 116.001C143.381 115.894 143.635 115.738 143.849 115.541L171.675 90.026C171.889 89.8293 172.059 89.5957 172.175 89.3389C172.29 89.082 172.349 88.8067 172.349 88.5289C172.348 87.9677 172.104 87.4298 171.671 87.0335C171.237 86.6373 170.65 86.4152 170.038 86.416C169.426 86.4169 168.839 86.6406 168.407 87.038L142.219 111.059L126.937 97.046C126.503 96.6498 125.916 96.4277 125.304 96.4285C124.692 96.4294 124.105 96.6531 123.673 97.0505C123.241 97.448 122.999 97.9865 123 98.5477C123.001 99.1089 123.245 99.6468 123.678 100.043L140.59 115.541C141.022 115.938 141.608 116.161 142.219 116.162Z" fill="#EBEBEB"/>
<path d="M273.589 327.59H265.835V278.9H273.589V327.59Z" fill="#F0F0F0"/>
<path d="M430.429 334.16L270.948 334.16V327.59L430.429 327.59V334.16Z" fill="#F0F0F0"/>
<path d="M273.589 278.9L435.553 278.9V327.59L273.589 327.59V278.9Z" fill="#F5F5F5"/>
<path d="M284.072 287.378L425.08 287.378V315.188L284.072 315.188V287.378Z" fill="#F0F0F0"/>
<path d="M388.87 291.095H320.261C318.976 291.095 317.935 290.14 317.935 288.962V288.566C317.935 287.388 318.976 286.433 320.261 286.433H388.87C390.155 286.433 391.197 287.388 391.197 288.566V288.962C391.197 290.14 390.155 291.095 388.87 291.095Z" fill="#F5F5F5"/>
<path d="M439.106 278.9L273.589 278.9V274.553L439.106 274.553V278.9Z" fill="#F0F0F0"/>
<path d="M262.115 274.553H273.589V278.9H262.115V274.553Z" fill="#E6E6E6"/>
<path d="M69.2415 227.492H84.3572L84.3572 334.16H69.2415L69.2415 227.492Z" fill="#F0F0F0"/>
<path d="M216.659 334.16L84.3572 334.16L84.3572 227.492L216.659 227.492L216.659 334.16Z" fill="#F5F5F5"/>
<path d="M217.866 324.791L101.711 324.791L101.711 267.74L217.866 267.74L217.866 324.791Z" fill="#FAFAFA"/>
<path d="M217.866 261.692L101.711 261.692L101.711 242.909L217.866 242.909V261.692Z" fill="#FAFAFA"/>
<g style="mix-blend-mode:multiply" opacity="0.7">
<path d="M100.67 267.74H101.711L101.711 324.791H100.67L100.67 267.74Z" fill="#E6E6E6"/>
</g>
<g style="mix-blend-mode:multiply" opacity="0.7">
<path d="M100.67 242.909H101.711V261.692H100.67V242.909Z" fill="#E6E6E6"/>
</g>
<g style="mix-blend-mode:multiply" opacity="0.7">
<path d="M69.2419 231.992L216.993 231.992V234.404L69.2419 234.404V231.992Z" fill="#E6E6E6"/>
</g>
<path d="M67.4747 226.034H84.3572V233.009H67.4747V226.034Z" fill="#F0F0F0"/>
<path d="M218.426 233.009L84.3572 233.009V226.034L218.426 226.034V233.009Z" fill="#F5F5F5"/>
<path d="M168.132 205.496C169.044 204.179 169.646 202.701 169.899 201.158C170.165 199.617 170.251 198.054 170.154 196.496C169.944 193.397 169.222 190.344 168.014 187.442C167.439 186.002 166.784 184.591 166.051 183.212C165.266 181.862 164.481 180.512 163.597 179.225C162.714 177.938 161.742 176.696 160.741 175.49C159.74 174.284 158.611 173.159 157.443 172.07C158.012 173.519 158.69 174.887 159.406 176.255C160.123 177.623 160.682 179 161.369 180.332L163.273 184.382L164.147 186.425L164.598 187.442L164.991 188.468C166.112 191.173 167.002 193.953 167.651 196.784C167.988 198.199 168.218 199.633 168.338 201.077C168.485 202.552 168.415 204.038 168.132 205.496Z" fill="#E6E6E6"/>
<path d="M187.184 207.881C187.058 205.708 187.266 203.53 187.803 201.41C188.305 199.477 189.289 197.678 190.678 196.154C192.16 194.643 193.913 193.377 195.861 192.41C197.873 191.339 200.091 190.502 202.378 189.512C199.837 189.263 197.267 189.515 194.84 190.25C193.586 190.626 192.387 191.14 191.267 191.78C190.123 192.456 189.088 193.277 188.195 194.219C186.413 196.146 185.377 198.561 185.251 201.086C185.115 203.479 185.791 205.853 187.184 207.881Z" fill="#E6E6E6"/>
<path d="M186.33 207.566C186.413 205.033 186.672 202.508 187.105 200.006C187.51 197.621 188.232 195.291 189.255 193.067C190.278 190.88 191.683 188.862 193.416 187.091C195.287 185.26 197.367 183.618 199.62 182.195C196.717 182.607 193.979 183.698 191.669 185.363C189.302 187.087 187.442 189.327 186.261 191.879C185.096 194.39 184.517 197.097 184.563 199.826C184.546 202.492 185.148 205.13 186.33 207.566Z" fill="#E6E6E6"/>
<path d="M169.438 202.967C171.57 200.43 173.381 197.68 174.837 194.768C176.316 191.864 177.534 188.854 178.478 185.768C179.433 182.674 180.068 179.504 180.372 176.3C180.694 173.097 180.532 169.869 179.891 166.706C179.175 169.865 178.625 172.916 177.84 175.949C177.055 178.982 176.27 181.97 175.337 184.949C174.405 187.928 173.462 190.907 172.451 193.886C171.44 196.865 170.41 199.889 169.438 202.967Z" fill="#E6E6E6"/>
<path d="M170.322 202.742C172.752 200.563 174.917 198.149 176.78 195.542C178.646 192.943 180.287 190.213 181.688 187.379C183.109 184.538 184.239 181.582 185.064 178.55C185.9 175.512 186.28 172.385 186.193 169.253C184.957 172.187 183.887 175.031 182.62 177.83C181.354 180.629 180.098 183.401 178.694 186.146C177.291 188.891 175.936 191.627 174.503 194.381C173.07 197.135 171.686 199.88 170.322 202.742Z" fill="#E6E6E6"/>
<path d="M166.669 205.622C169.421 204.286 171.977 202.634 174.276 200.708C176.591 198.794 178.704 196.685 180.587 194.408C182.509 192.143 184.155 189.693 185.495 187.1C186.836 184.509 187.73 181.743 188.145 178.901C186.457 181.322 184.965 183.689 183.238 185.948C181.51 188.207 179.841 190.448 178.006 192.599C176.17 194.75 174.335 196.91 172.431 199.052C170.527 201.194 168.593 203.372 166.669 205.622Z" fill="#E6E6E6"/>
<path d="M171.999 202.76C174.673 201.751 177.152 200.353 179.341 198.62C181.549 196.917 183.527 194.977 185.231 192.842C186.096 191.778 186.896 190.669 187.626 189.521C188.336 188.358 188.969 187.156 189.52 185.921C190.649 183.477 191.342 180.882 191.571 178.235C190.03 180.494 188.764 182.735 187.233 184.841C186.546 185.93 185.721 186.938 185.005 188C184.288 189.062 183.454 190.052 182.61 191.042C180.987 193.046 179.286 195.011 177.506 196.937C175.778 198.89 173.962 200.789 171.999 202.76Z" fill="#E6E6E6"/>
<path d="M167.818 204.299C169.088 203.477 170.102 202.367 170.763 201.077C171.444 199.789 171.924 198.42 172.186 197.009C172.677 194.211 172.59 191.353 171.931 188.585C171.613 187.226 171.22 185.883 170.753 184.562C170.193 183.275 169.693 181.97 169.025 180.737C168.358 179.504 167.651 178.298 166.856 177.137C166.038 175.986 165.157 174.875 164.216 173.807C164.53 175.166 164.971 176.453 165.394 177.74C165.816 179.027 166.169 180.323 166.63 181.574C167.092 182.825 167.366 184.121 167.788 185.372L168.269 187.271C168.436 187.901 168.633 188.531 168.731 189.17C169.323 191.668 169.626 194.218 169.634 196.775C169.646 198.052 169.521 199.327 169.261 200.582C169.016 201.887 168.528 203.145 167.818 204.299Z" fill="#E6E6E6"/>
<path d="M169.644 201.428C171.796 199.319 173.355 196.761 174.188 193.976C175.095 191.164 175.385 188.216 175.042 185.3C174.993 184.571 174.797 183.86 174.669 183.14L174.444 182.06L174.1 181.016C173.845 180.323 173.629 179.63 173.344 178.955C173.06 178.28 172.687 177.632 172.363 176.984L171.833 176.021L171.195 175.121L169.899 173.321C168.93 172.213 167.884 171.164 166.768 170.18C167.278 171.539 167.956 172.772 168.505 174.05L169.281 175.967L169.673 176.867L169.987 177.839C170.193 178.478 170.409 179.117 170.635 179.747L171.116 181.682L171.371 182.645L171.519 183.617C171.607 184.265 171.784 184.913 171.823 185.561C172.122 188.181 172.083 190.825 171.705 193.436C171.341 196.162 170.65 198.842 169.644 201.428Z" fill="#E6E6E6"/>
<path d="M173.786 200.33L187.851 188.855L185.77 204.434L173.786 200.33Z" fill="#E6E6E6"/>
<path d="M200.896 198.233H160.084L165.433 226.034H195.547L200.896 198.233Z" fill="#F5F5F5"/>
<path d="M175.396 198.233H160.084L165.434 226.034H173.472L175.396 198.233Z" fill="#EBEBEB"/>
<path d="M124.041 205.55C123.849 204.321 123.906 203.07 124.208 201.86C124.468 200.702 124.873 199.576 125.416 198.503C126.515 196.351 127.911 194.337 129.567 192.509C129.94 192.014 130.421 191.609 130.843 191.132C131.265 190.655 131.697 190.232 132.149 189.755C133.13 188.855 133.975 187.955 134.946 187.055C135.918 186.155 136.85 185.255 137.832 184.355C138.814 183.455 139.795 182.555 140.777 181.574C139.452 182.033 138.195 182.6 136.919 183.176C135.681 183.8 134.479 184.482 133.317 185.219C132.731 185.587 132.168 185.984 131.629 186.407C131.079 186.821 130.539 187.253 129.999 187.676C128.953 188.582 127.969 189.547 127.055 190.565C125.17 192.646 123.794 195.074 123.021 197.684C122.648 199.005 122.519 200.374 122.638 201.734C122.704 203.102 123.191 204.425 124.041 205.55Z" fill="#E6E6E6"/>
<path d="M101.093 201.779C102.128 200.961 102.893 199.895 103.302 198.701C103.529 198.085 103.677 197.448 103.744 196.802C103.763 196.472 103.763 196.141 103.744 195.812C103.755 195.482 103.722 195.153 103.645 194.831C103.069 192.271 101.61 189.948 99.4837 188.207C98.9929 187.766 98.4334 187.415 97.9132 187.019C97.3956 186.625 96.8442 186.269 96.2642 185.957C95.695 185.651 95.1257 185.336 94.5367 185.057C94.2521 184.913 93.9674 184.751 93.6632 184.625L92.7601 184.274C92.1516 184.04 91.543 183.824 90.9345 183.608C90.3292 183.383 89.7057 183.203 89.0696 183.068C87.8051 182.766 86.524 182.525 85.2317 182.348C86.2465 183.085 87.3049 183.77 88.4021 184.4C88.9419 184.697 89.4524 185.03 89.9628 185.372C90.4732 185.714 90.9443 186.02 91.5136 186.335C92.5835 186.92 93.4767 187.667 94.4582 188.297C94.9483 188.612 95.4141 188.958 95.852 189.332C96.3035 189.692 96.8335 190.016 97.2065 190.394C98.9066 191.772 100.248 193.482 101.133 195.398C101.32 195.88 101.471 196.373 101.584 196.874C101.675 197.395 101.721 197.921 101.722 198.449C101.722 199.583 101.509 200.71 101.093 201.779Z" fill="#E6E6E6"/>
<path d="M102.143 201.779C103.916 199.662 104.882 197.069 104.892 194.399C104.932 191.665 104.173 188.97 102.693 186.596L101.515 184.886C101.063 184.355 100.583 183.851 100.102 183.347L99.3654 182.6L98.5606 181.952L96.9116 180.683C95.7461 179.942 94.537 179.26 93.2897 178.64C92.0094 178.108 90.6988 177.639 89.3635 177.236C90.3451 178.19 91.3266 179.036 92.3769 179.846C93.4271 180.656 94.2811 181.583 95.2037 182.438C95.6356 182.906 96.0576 183.338 96.4993 183.797L97.157 184.454L97.7164 185.174C98.0894 185.651 98.5017 186.074 98.8648 186.578L99.8464 188.063C101.091 190.066 101.932 192.258 102.33 194.534C102.736 196.94 102.673 199.394 102.143 201.779Z" fill="#E6E6E6"/>
<path d="M122.785 203.111C121.97 200.33 121.087 197.648 120.233 195.011C119.379 192.374 118.544 189.683 117.779 187.019C117.013 184.355 116.375 181.673 115.816 178.919C115.256 176.165 114.952 173.519 114.687 170.603C113.655 173.352 113.17 176.247 113.254 179.153C113.372 182.046 113.83 184.918 114.618 187.721C115.419 190.507 116.5 193.219 117.848 195.821C119.165 198.426 120.823 200.874 122.785 203.111Z" fill="#E6E6E6"/>
<path d="M121.765 202.661C120.489 199.961 119.114 197.261 117.76 194.678C116.405 192.095 115.041 189.467 113.736 186.857C112.43 184.247 111.174 181.628 110.006 178.973C108.838 176.318 107.837 173.573 106.855 170.747C106.551 173.735 106.787 176.748 107.552 179.666C108.326 182.567 109.401 185.394 110.762 188.108C112.128 190.8 113.727 193.388 115.542 195.848C117.339 198.32 119.426 200.605 121.765 202.661Z" fill="#E6E6E6"/>
<path d="M125.759 206.09C123.845 203.678 121.833 201.401 119.87 199.124C117.906 196.847 115.943 194.624 114.039 192.329C112.135 190.034 110.27 187.757 108.484 185.399C106.697 183.041 105.068 180.611 103.409 178.037C103.844 181.011 104.809 183.9 106.265 186.587C107.725 189.256 109.46 191.791 111.448 194.156C113.437 196.499 115.626 198.693 117.995 200.717C120.361 202.762 122.965 204.564 125.759 206.09Z" fill="#E6E6E6"/>
<path d="M119.752 202.166C117.877 200.015 116.002 197.981 114.157 195.92C112.312 193.859 110.525 191.816 108.778 189.737C107.031 187.658 105.411 185.516 103.87 183.329C102.329 181.142 100.926 178.829 99.4142 176.435C99.6348 179.202 100.379 181.912 101.613 184.445C102.842 186.974 104.394 189.361 106.236 191.555C108.061 193.738 110.12 195.749 112.38 197.558C114.605 199.386 117.083 200.935 119.752 202.166Z" fill="#E6E6E6"/>
<path d="M124.551 204.677C123.486 202.725 122.973 200.559 123.059 198.377C123.189 196.295 123.77 194.257 124.767 192.383L125.101 191.654L125.523 190.952L126.347 189.53C127.005 188.63 127.594 187.667 128.31 186.74C129.027 185.813 129.675 184.886 130.401 183.959C131.164 183.027 131.875 182.059 132.531 181.061C131.402 181.63 130.308 182.255 129.253 182.933C128.223 183.651 127.24 184.424 126.308 185.246C125.842 185.664 125.406 186.109 125.003 186.578C124.584 187.04 124.172 187.508 123.766 187.982L122.716 189.539L122.215 190.331L121.803 191.177C120.605 193.458 120.162 196.011 120.527 198.521C120.701 199.745 121.148 200.924 121.841 201.983C122.533 203.042 123.456 203.959 124.551 204.677Z" fill="#E6E6E6"/>
<path d="M122.727 201.806C121.92 199.575 121.367 197.274 121.078 194.939C120.813 192.762 120.989 190.559 121.598 188.441C121.904 187.397 122.332 186.386 122.874 185.426C123.414 184.436 124.052 183.493 124.778 182.609C126.341 180.737 128.054 178.974 129.902 177.335C127.272 178.049 124.862 179.319 122.864 181.043C121.823 181.921 120.918 182.927 120.175 184.031C119.409 185.147 118.827 186.36 118.448 187.631C117.708 190.175 117.753 192.857 118.575 195.38C119.319 197.82 120.751 200.036 122.727 201.806Z" fill="#E6E6E6"/>
<path d="M117.926 199.673L102.575 186.155L103.193 199.412L117.926 199.673Z" fill="#E6E6E6"/>
<path d="M134.721 198.233H93.9083L99.2577 226.034H129.371L134.721 198.233Z" fill="#F5F5F5"/>
<path d="M109.231 198.233H93.9089L99.2583 226.034H107.297L109.231 198.233Z" fill="#EBEBEB"/>
<path d="M389.047 71.6479L389.047 217.448C389.047 223.511 391.674 229.325 396.35 233.612C401.025 237.899 407.366 240.308 413.979 240.308L298.157 240.308C291.544 240.308 285.201 237.9 280.524 233.613C275.847 229.326 273.218 223.512 273.216 217.448V71.6479L389.047 71.6479Z" fill="#F5F5F5"/>
<path d="M291.394 108.557L366.236 108.557V177.182H291.394V108.557Z" fill="#F0F0F0"/>
<path d="M293.691 106.442L368.533 106.442V175.067H293.691V106.442Z" fill="white"/>
<path d="M350.159 185.228H369.191V202.679H350.159V185.228Z" fill="white"/>
<path d="M293.701 185.228H312.733V202.679H293.701V185.228Z" fill="white"/>
<path d="M321.93 185.228H340.962V202.679H321.93V185.228Z" fill="white"/>
<path d="M273.195 71.6479L389.046 71.6479V88.9999L273.195 88.9999V71.6479Z" fill="#F0F0F0"/>
<path d="M382.049 66.0767V77.2187C382.05 77.6268 381.963 78.0311 381.794 78.4083C381.624 78.7856 381.375 79.1283 381.06 79.4169C380.745 79.7055 380.371 79.9341 379.96 80.0897C379.548 80.2454 379.108 80.3249 378.663 80.3237C378.218 80.3237 377.777 80.2434 377.367 80.0873C376.956 79.9313 376.582 79.7026 376.268 79.4142C375.954 79.1259 375.704 78.7836 375.534 78.4069C375.364 78.0302 375.276 77.6264 375.276 77.2187V66.0767C375.279 65.2539 375.636 64.4655 376.271 63.8837C376.905 63.302 377.765 62.9741 378.663 62.9717C379.561 62.9717 380.422 63.2988 381.057 63.8811C381.692 64.4634 382.049 65.2532 382.049 66.0767Z" fill="#E6E6E6"/>
<path d="M286.918 66.0772V77.2192C286.918 78.0427 286.562 78.8324 285.927 79.4147C285.292 79.997 284.43 80.3242 283.532 80.3242C283.087 80.3254 282.646 80.2459 282.235 80.0902C281.823 79.9346 281.449 79.7059 281.135 79.4174C280.82 79.1288 280.571 78.7861 280.401 78.4088C280.231 78.0316 280.145 77.6273 280.146 77.2192V66.0772C280.146 65.2537 280.503 64.4639 281.138 63.8816C281.773 63.2993 282.634 62.9722 283.532 62.9722C284.429 62.9745 285.289 63.3024 285.924 63.8842C286.558 64.466 286.916 65.2544 286.918 66.0772Z" fill="#E6E6E6"/>
<path d="M305.951 66.0767V77.2187C305.951 77.6264 305.863 78.0302 305.693 78.4069C305.523 78.7836 305.273 79.1259 304.959 79.4143C304.644 79.7026 304.271 79.9313 303.86 80.0873C303.449 80.2434 303.009 80.3237 302.564 80.3237C302.12 80.3237 301.679 80.2434 301.268 80.0873C300.858 79.9313 300.484 79.7026 300.17 79.4143C299.855 79.1259 299.606 78.7836 299.436 78.4069C299.266 78.0302 299.178 77.6264 299.178 77.2187V66.0767C299.181 65.257 299.536 64.4713 300.166 63.8901C300.796 63.3088 301.651 62.9788 302.545 62.9717C302.991 62.9705 303.433 63.0499 303.845 63.2053C304.258 63.3607 304.633 63.5891 304.949 63.8774C305.265 64.1657 305.517 64.5083 305.688 64.8857C305.86 65.2631 305.949 65.6678 305.951 66.0767Z" fill="#E6E6E6"/>
<path d="M324.983 66.0767V77.2187C324.984 77.6268 324.897 78.0311 324.728 78.4083C324.558 78.7856 324.309 79.1283 323.994 79.4169C323.679 79.7055 323.305 79.9341 322.894 80.0897C322.483 80.2454 322.042 80.3249 321.597 80.3237C320.704 80.3165 319.852 79.986 319.225 79.4042C318.597 78.8224 318.247 78.0367 318.25 77.2187V66.0767C318.25 65.2547 318.605 64.4663 319.238 63.8843C319.871 63.3022 320.73 62.9741 321.626 62.9717C322.519 62.9788 323.373 63.3091 324.002 63.8906C324.63 64.4721 324.983 65.2578 324.983 66.0767Z" fill="#E6E6E6"/>
<path d="M344.014 66.0767V77.2187C344.015 77.626 343.929 78.0296 343.76 78.4062C343.591 78.7829 343.342 79.1253 343.029 79.4137C342.715 79.7021 342.342 79.931 341.932 80.0871C341.522 80.2433 341.082 80.3237 340.638 80.3237C340.193 80.3249 339.752 80.2454 339.34 80.0897C338.929 79.9341 338.555 79.7055 338.24 79.4169C337.926 79.1283 337.676 78.7856 337.506 78.4083C337.337 78.0311 337.25 77.6268 337.251 77.2187V66.0767C337.251 65.2532 337.608 64.4634 338.243 63.8811C338.878 63.2988 339.74 62.9717 340.638 62.9717C341.534 62.9741 342.393 63.3022 343.026 63.8843C343.659 64.4663 344.014 65.2547 344.014 66.0767Z" fill="#E6E6E6"/>
<path d="M363.056 66.0767V77.2187C363.056 77.6264 362.969 78.0302 362.798 78.4069C362.628 78.7836 362.379 79.1259 362.064 79.4142C361.75 79.7026 361.377 79.9313 360.966 80.0873C360.555 80.2434 360.115 80.3237 359.67 80.3237C359.225 80.3237 358.785 80.2434 358.374 80.0873C357.963 79.9313 357.59 79.7026 357.275 79.4142C356.961 79.1259 356.711 78.7836 356.541 78.4069C356.371 78.0302 356.284 77.6264 356.284 77.2187V66.0767C356.286 65.2539 356.644 64.4655 357.278 63.8837C357.913 63.302 358.773 62.9741 359.67 62.9717C360.567 62.9741 361.427 63.302 362.061 63.8837C362.696 64.4655 363.054 65.2539 363.056 66.0767Z" fill="#E6E6E6"/>
<path d="M308.561 230.696C308.561 233.233 307.461 235.667 305.505 237.461C303.548 239.255 300.894 240.263 298.127 240.263L428.485 240.263C431.252 240.263 433.906 239.255 435.863 237.461C437.82 235.667 438.919 233.233 438.919 230.696L308.561 230.696Z" fill="#E6E6E6"/>
<path d="M245.615 374.804C140.509 374.804 55.3037 370.242 55.3037 364.616C55.3037 358.989 140.509 354.428 245.615 354.428C350.72 354.428 435.925 358.989 435.925 364.616C435.925 370.242 350.72 374.804 245.615 374.804Z" fill="#F5F5F5"/>
<path opacity="0.2" d="M226.387 278.657C226.387 278.657 298.52 317.708 298.52 354.707H154.234C154.243 317.708 226.387 278.657 226.387 278.657Z" fill="#9395FF"/>
<path opacity="0.2" d="M226.386 325.25C226.386 325.25 292.993 340.379 292.993 354.707L159.779 354.707C159.779 340.379 226.386 325.25 226.386 325.25Z" fill="#9395FF"/>
<path opacity="0.3" d="M217.631 289.439C204.086 301.652 177.761 328.715 177.761 354.707H195.812C195.812 328.715 210.221 301.652 217.631 289.439Z" fill="white"/>
<path opacity="0.2" d="M226.387 278.657C226.387 278.657 298.52 239.606 298.52 202.607L154.234 202.607C154.243 239.606 226.387 278.657 226.387 278.657Z" fill="#9395FF"/>
<path opacity="0.2" d="M226.387 275.093C226.387 275.093 263.214 258.893 263.214 243.503L189.55 243.503C189.55 258.866 226.387 275.093 226.387 275.093Z" fill="#9395FF"/>
<path opacity="0.3" d="M234.248 267.875C247.784 255.662 274.079 228.599 274.079 202.607H256.029C256.068 228.599 241.688 255.662 234.248 267.875Z" fill="white"/>
<path opacity="0.3" d="M217.631 267.875C204.086 255.662 178.419 225.467 177.761 202.607H182.571C184.828 230.48 206.913 256.058 217.631 267.875Z" fill="white"/>
<path d="M164.04 189.548H172.216V190.448H164.04V189.548Z" fill="#9395FF"/>
<path d="M136.281 201.914H137.262C137.265 198.875 138.582 195.961 140.924 193.812C143.267 191.662 146.444 190.453 149.758 190.448H158.385V189.548H149.758C146.184 189.555 142.759 190.86 140.233 193.178C137.707 195.496 136.286 198.637 136.281 201.914Z" fill="#9395FF"/>
<path d="M149.768 192.698L303.006 192.698C308.557 192.698 313.057 196.824 313.057 201.914V203.3C313.057 208.39 308.557 212.516 303.006 212.516L149.768 212.516C144.217 212.516 139.717 208.39 139.717 203.3V201.914C139.717 196.824 144.217 192.698 149.768 192.698Z" fill="#9395FF"/>
<path d="M149.768 344.798L303.006 344.798C308.557 344.798 313.057 348.924 313.057 354.014V355.4C313.057 360.49 308.557 364.616 303.006 364.616L149.768 364.616C144.217 364.616 139.717 360.49 139.717 355.4V354.014C139.717 348.924 144.217 344.798 149.768 344.798Z" fill="#9395FF"/>
<path d="M352.877 264.068L359.532 258.65L348.186 242.675L341.531 248.084L352.877 264.068Z" fill="#FF8B7B"/>
<path d="M358.158 255.212L349.697 260.612C349.625 260.653 349.562 260.707 349.513 260.771C349.463 260.834 349.428 260.906 349.409 260.982C349.39 261.058 349.387 261.137 349.401 261.214C349.415 261.291 349.446 261.365 349.491 261.431L353.731 267.839C353.975 268.161 354.348 268.382 354.769 268.455C355.189 268.527 355.624 268.445 355.979 268.226C358.924 266.309 360.013 265.373 363.537 262.763C367.02 260.253 370.361 257.583 373.549 254.762C376.16 252.278 373.401 249.875 372.017 250.73C368.749 252.764 363.066 255.005 359.778 254.825C359.206 254.783 358.635 254.92 358.158 255.212Z" fill="#263238"/>
<path opacity="0.2" d="M341.541 248.093L348.195 242.675L353.653 250.37L346.831 255.563L341.541 248.093Z" fill="black"/>
<path d="M273.834 168.29C273.834 168.29 318.494 165.491 324.03 179.369C336.623 210.923 353.005 244.394 353.005 244.394L339.842 253.133C339.842 253.133 312.016 214.118 303.525 189.071C286.349 192.896 255.293 196.163 245.291 185.633C236.751 176.633 243.141 168.29 243.141 168.29H273.834Z" fill="#263238"/>
<path opacity="0.3" d="M312.085 192.815C313.125 196.667 314.705 207.701 315.687 215.018C313.518 211.166 311.457 207.26 309.601 203.444L312.085 192.815Z" fill="black"/>
<path d="M340.687 257.084L355.616 246.356L352.564 240.344L335.877 252.035L340.687 257.084Z" fill="#9395FF"/>
<path d="M361.741 254.717C361.049 255.131 360.312 255.478 359.543 255.752C359.504 255.765 359.463 255.767 359.424 255.758C359.384 255.75 359.348 255.732 359.319 255.705C359.29 255.679 359.27 255.646 359.261 255.61C359.252 255.573 359.255 255.536 359.268 255.5C359.395 255.194 360.514 252.503 361.682 252.242C361.816 252.214 361.956 252.218 362.088 252.252C362.22 252.287 362.341 252.352 362.438 252.44C362.602 252.56 362.73 252.716 362.807 252.895C362.885 253.073 362.91 253.267 362.88 253.457C362.681 253.991 362.276 254.439 361.741 254.717ZM359.847 255.212C361.388 254.6 362.35 253.925 362.458 253.412C362.475 253.287 362.454 253.16 362.399 253.044C362.344 252.929 362.256 252.829 362.144 252.755C362.098 252.711 362.041 252.678 361.977 252.661C361.913 252.643 361.845 252.642 361.781 252.656C361.152 252.8 360.338 254.141 359.847 255.212Z" fill="#9395FF"/>
<path d="M359.591 255.725C359.559 255.734 359.525 255.734 359.493 255.725C359.456 255.729 359.419 255.724 359.385 255.712C359.351 255.699 359.32 255.679 359.296 255.653C359.228 255.581 357.559 253.7 357.804 252.539C357.837 252.391 357.906 252.251 358.006 252.131C358.107 252.011 358.236 251.914 358.384 251.846C358.534 251.76 358.712 251.721 358.889 251.735C359.066 251.75 359.234 251.817 359.365 251.927C360.111 252.566 360.082 254.726 359.64 255.617C359.633 255.657 359.617 255.694 359.591 255.725ZM358.501 252.278C358.43 252.321 358.369 252.377 358.322 252.442C358.275 252.507 358.242 252.58 358.226 252.656C358.079 253.34 358.874 254.519 359.394 255.167C359.669 254.267 359.581 252.665 359.1 252.251C359.002 252.17 358.864 252.089 358.58 252.251L358.501 252.278Z" fill="#9395FF"/>
<path d="M294.201 273.509L302.789 275.084L304.379 253.997L295.654 254.249L294.201 273.509Z" fill="#FF8B7B"/>
<path d="M303.958 272.204L294.142 268.415C294.062 268.379 293.974 268.358 293.885 268.353C293.796 268.348 293.706 268.36 293.622 268.388C293.538 268.416 293.46 268.459 293.395 268.514C293.329 268.57 293.276 268.637 293.239 268.712L289.49 275.624C289.318 275.998 289.314 276.419 289.477 276.796C289.64 277.173 289.959 277.476 290.363 277.64C293.799 278.909 295.507 279.35 299.815 281.024C302.466 282.05 309.631 285.02 313.459 285.893C317.287 286.766 318.151 283.247 316.6 282.563C312.929 280.943 306.843 276.002 305.204 273.275C304.925 272.804 304.488 272.429 303.958 272.204Z" fill="#263238"/>
<path d="M306.401 274.796C305.628 274.472 304.894 274.074 304.212 273.608C304.178 273.584 304.152 273.552 304.137 273.516C304.121 273.479 304.117 273.44 304.124 273.401C304.135 273.363 304.158 273.329 304.189 273.302C304.22 273.275 304.259 273.256 304.301 273.248C304.654 273.176 307.834 272.591 308.727 273.383C308.829 273.473 308.904 273.586 308.943 273.711C308.983 273.836 308.986 273.968 308.953 274.094C308.931 274.289 308.853 274.475 308.727 274.633C308.602 274.791 308.432 274.916 308.237 274.994C307.619 275.139 306.965 275.068 306.401 274.796ZM304.899 273.554C306.323 274.454 307.491 274.841 308.07 274.634C308.199 274.58 308.309 274.494 308.389 274.386C308.469 274.278 308.514 274.152 308.521 274.022C308.54 273.961 308.541 273.896 308.524 273.834C308.507 273.773 308.472 273.716 308.423 273.671C307.942 273.248 306.175 273.356 304.899 273.554Z" fill="#9395FF"/>
<path d="M304.261 273.635C304.228 273.619 304.198 273.598 304.173 273.572C304.157 273.543 304.148 273.51 304.148 273.478C304.148 273.445 304.157 273.412 304.173 273.383C304.173 273.284 305.076 270.908 306.313 270.467C306.472 270.409 306.644 270.386 306.814 270.4C306.985 270.414 307.149 270.465 307.294 270.548C307.467 270.618 307.607 270.741 307.693 270.895C307.779 271.049 307.804 271.225 307.766 271.394C307.569 272.294 305.498 273.509 304.409 273.644C304.36 273.659 304.307 273.656 304.261 273.635ZM306.941 270.854C306.86 270.823 306.774 270.807 306.686 270.807C306.598 270.807 306.511 270.823 306.431 270.854C305.695 271.115 305.017 272.402 304.684 273.176C305.665 272.879 307.167 271.952 307.294 271.322C307.294 271.205 307.294 271.052 307.029 270.908L306.941 270.854Z" fill="#9395FF"/>
<path opacity="0.2" d="M295.644 254.258L304.379 253.997L303.545 265.013L294.849 264.869L295.644 254.258Z" fill="black"/>
<path d="M252.141 168.29C252.141 168.29 315.941 173.825 313.645 191.438C310.288 216.845 307.834 261.332 307.834 261.332L291.57 261.917C291.57 261.917 285.465 222.803 289.037 196.784C272.518 196.784 236.633 197.585 230.322 189.755C222.832 180.467 226.297 168.29 226.297 168.29H252.141Z" fill="#263238"/>
<path d="M289.773 262.835L309.296 261.944L309.993 254.159L288.586 255.509L289.773 262.835Z" fill="#9395FF"/>
<path d="M266.306 116.711C266.443 118.322 266.6 119.753 266.816 121.256C267.032 122.759 267.238 124.226 267.493 125.711C267.964 128.672 268.612 131.615 269.338 134.576C270.065 137.537 270.958 140.489 272.077 143.468C273.213 146.602 274.703 149.618 276.523 152.468C277.61 154.145 278.93 155.685 280.45 157.049C280.852 157.394 281.275 157.719 281.716 158.021C282.118 158.327 282.521 158.588 282.933 158.849C283.718 159.357 284.534 159.823 285.377 160.244C288.489 161.797 291.782 163.026 295.192 163.907C296.812 164.366 298.441 164.735 300.1 165.068C301.759 165.401 303.339 165.689 305.008 165.923C308.256 166.411 311.534 166.711 314.823 166.823C315.634 166.855 316.43 166.616 317.063 166.15C317.697 165.685 318.125 165.025 318.269 164.293C318.412 163.561 318.262 162.805 317.845 162.167C317.428 161.528 316.773 161.05 316.001 160.82L315.873 160.775C310.117 159.106 304.471 157.134 298.961 154.871C296.428 153.82 294.004 152.561 291.718 151.109C291.197 150.767 290.736 150.416 290.265 150.065C290.049 149.894 289.823 149.723 289.637 149.543C289.463 149.4 289.299 149.247 289.146 149.084C288.494 148.362 287.934 147.574 287.477 146.735C286.286 144.517 285.33 142.2 284.621 139.814C283.826 137.285 283.139 134.648 282.57 131.966C282 129.284 281.49 126.566 281.009 123.812C280.528 121.058 280.165 118.25 279.831 115.64V115.487C279.585 113.909 278.684 112.479 277.316 111.495C275.948 110.512 274.218 110.051 272.488 110.209C270.758 110.367 269.161 111.131 268.031 112.343C266.901 113.555 266.325 115.12 266.423 116.711H266.306Z" fill="#9395FF"/>
<path d="M314.498 159.2L319.406 159.479L315.48 167.759C315.48 167.759 306.989 167.588 307.166 163.754L308.697 161.954C309.398 161.146 310.277 160.483 311.277 160.009C312.276 159.534 313.374 159.259 314.498 159.2Z" fill="#FF8B7B"/>
<path d="M324.786 160.163L320.545 167.777H315.49L319.417 159.497L324.786 160.163Z" fill="#FF8B7B"/>
<path d="M267.012 103.949L257.52 102.149L249.963 101.15C248.882 100.988 247.786 100.943 246.694 101.015C243.794 101.256 241.042 102.303 238.808 104.016C236.574 105.729 234.962 108.026 234.189 110.6C232.295 116.9 230.587 124.631 229.281 131.48C227.456 140.993 226.514 155.285 226.337 168.281H271.301C272.283 144.746 277.74 129.581 279.595 120.176C280.154 117.337 279.679 114.408 278.245 111.84C276.81 109.272 274.494 107.208 271.655 105.965L267.012 103.949Z" fill="#9395FF"/>
<path d="M271.302 109.124C271.194 112.994 270.32 126.791 265.795 134.63C265 127.286 255.489 104.93 255.489 104.93L271.302 109.124Z" fill="#F5F5F5"/>
<path opacity="0.3" d="M228.251 137.942C228.251 137.798 228.251 137.663 228.31 137.51L228.398 136.862C228.447 136.511 228.497 136.16 228.546 135.827L228.693 134.864L228.84 133.964C228.84 133.712 228.928 133.451 228.968 133.208C229.066 132.632 229.164 132.074 229.272 131.525C229.596 129.842 229.939 128.096 230.312 126.341V126.197C230.685 124.397 231.068 122.66 231.48 120.905V120.788C231.647 120.032 231.824 119.294 232.01 118.547L232.217 117.719L232.57 116.288L232.864 115.172L232.923 114.938C233.316 113.462 233.718 112.013 234.131 110.645L240.952 107.351C240.167 110.114 239.421 113.156 238.714 116.27C239.531 116.662 240.284 117.156 240.952 117.737C242.582 119.069 242.523 121.904 240.893 125.261C236.383 134.86 233.886 145.153 233.532 155.6C233.326 159.839 233.198 164.132 233.139 168.299H226.268C226.465 157.976 227.093 146.852 228.251 137.942Z" fill="black"/>
<path d="M261.054 86.6064L264.911 92.0064L270.153 99.3414C269.478 99.9716 268.93 100.706 268.533 101.51C267.552 103.31 266.786 104.606 270.84 107.135C271.704 107.675 271.733 108.53 271.537 109.475C271.301 110.627 270.555 111.833 266.197 111.122C261.985 110.38 258.141 108.425 255.224 105.542C253.771 104.201 254.105 103.202 255.508 101.816C259.474 97.9014 260.661 91.6464 261.054 86.6064Z" fill="#FF8B7B"/>
<path d="M270.32 111.257L267.542 112.859L263.027 111.104C264.091 110.119 265.463 109.462 266.953 109.223C268.251 109.618 269.412 110.319 270.32 111.257Z" fill="#263238"/>
<path d="M267.002 109.223C264.931 110.006 263.89 111.77 262.948 113.804C262.948 113.804 253.025 106.91 252.819 102.365C253.349 100.817 255.832 101.087 255.832 101.087C255.832 101.087 258.855 105.893 267.002 109.223Z" fill="white"/>
<path d="M267.003 109.223C267.97 109.582 268.793 110.208 269.355 111.014C269.918 111.82 270.194 112.767 270.144 113.723C270.144 113.723 274.561 108.971 270.968 105.38C269.994 104.911 268.958 104.557 267.886 104.327C267.886 104.327 268.966 106.307 267.003 109.223Z" fill="white"/>
<path d="M266.669 112.112H267.935C268.347 112.76 268.916 121.202 269.142 125.693C268.535 128.315 267.644 130.875 266.482 133.334C266.486 133.364 266.486 133.394 266.482 133.424C266.413 133.568 266.345 133.703 266.266 133.838C266.129 134.108 265.991 134.378 265.834 134.63C265.381 131.842 264.675 129.094 263.724 126.413C265.02 121.211 266.669 112.112 266.669 112.112Z" fill="#263238"/>
<path opacity="0.2" d="M268.857 97.5322L265.638 92.3032C265.579 92.4292 265.5 92.5822 265.422 92.7262C265.14 93.3789 264.91 94.0497 264.735 94.7332C264.146 97.0642 266.109 100.376 268.278 101.933C268.366 101.789 268.445 101.636 268.533 101.483C268.919 100.728 269.418 100.025 270.015 99.3952L270.143 99.3052L268.857 97.5322Z" fill="black"/>
<path d="M284.543 86.2999C285.318 83.1049 279.772 78.6859 279.772 78.6859L286.339 76.5889C289.303 78.5419 287.379 84.1129 284.543 86.2999Z" fill="#263238"/>
<path d="M262.419 77.066C260.868 85.058 259.475 89.666 262.753 94.769C263.78 96.4446 265.288 97.8306 267.112 98.7771C268.937 99.7237 271.009 100.195 273.105 100.139C275.2 100.083 277.239 99.5033 279.001 98.4616C280.763 97.4199 282.18 95.9562 283.1 94.229C286.781 87.641 288.695 75.689 281.206 70.442C279.619 69.2687 277.723 68.4985 275.709 68.2086C273.695 67.9187 271.634 68.1193 269.731 68.7902C267.828 69.4611 266.151 70.5788 264.868 72.0313C263.584 73.4838 262.74 75.22 262.419 77.066Z" fill="#FF8B7B"/>
<path d="M262.301 85.1481L266.423 84.1131V79.2531C266.423 79.2531 271.635 76.5531 270.831 73.1781C270.431 71.2806 269.87 69.4149 269.152 67.5981C269.152 67.5981 260.888 67.1121 258.355 68.0841C259.011 68.7357 259.723 69.3376 260.485 69.8841C258.503 71.1412 256.804 72.7362 255.479 74.5821C256.514 74.7935 257.482 75.2216 258.306 75.8331C258.306 75.8331 257.226 82.5021 262.301 85.1481Z" fill="#263238"/>
<path d="M271.783 62.4141C268.75 64.1601 270.507 67.3641 270.507 67.3641L262.389 67.5171C262.821 65.1681 269.859 62.2971 271.783 62.4141Z" fill="#263238"/>
<path d="M268.612 74.8159C269.191 76.3099 275.768 78.1459 281.765 78.3259C284.754 78.2665 287.712 77.7556 290.52 76.8139C289.673 76.0166 288.676 75.367 287.576 74.8969C291.197 74.0779 295.781 71.1619 297.047 68.7859C294.403 67.9193 291.546 67.751 288.802 68.2999C289.7 67.6049 290.438 66.7526 290.972 65.7929C291.507 64.8333 291.827 63.7855 291.914 62.7109C291.914 62.7109 276.563 68.2909 270.654 65.9779C264.234 63.4579 259.356 68.1829 263.577 71.7829C267.797 75.3829 268.612 74.8159 268.612 74.8159Z" fill="#263238"/>
<path d="M257.727 82.8529C257.644 84.6156 258.269 86.3451 259.484 87.713C261.075 89.45 263.548 88.064 264.117 85.913C264.628 83.96 263.96 80.945 261.87 80.009C259.779 79.073 257.835 80.6659 257.727 82.8529Z" fill="#FF8B7B"/>
<path d="M275.689 84.5002C275.473 85.1302 275.689 85.7512 276.082 85.9042C276.474 86.0572 277.063 85.6612 277.289 85.0042C277.515 84.3472 277.289 83.7532 276.897 83.6002C276.504 83.4472 275.915 83.8342 275.689 84.5002Z" fill="#263238"/>
<path d="M283.296 87.02C283.08 87.641 283.296 88.271 283.688 88.415C284.081 88.559 284.67 88.181 284.896 87.515C285.121 86.849 284.896 86.264 284.503 86.12C284.11 85.976 283.521 86.39 283.296 87.02Z" fill="#263238"/>
<path d="M280.696 86.687C280.664 88.5496 280.901 90.4078 281.402 92.213C280.904 92.3102 280.389 92.3049 279.893 92.1975C279.398 92.0901 278.934 91.8833 278.536 91.592L280.696 86.687Z" fill="#A02724"/>
<path d="M276.042 93.9952C275.254 93.7529 274.527 93.3685 273.903 92.8647C273.279 92.3608 272.772 91.7476 272.411 91.0612C272.391 91.0134 272.392 90.9605 272.414 90.9135C272.436 90.8665 272.477 90.8292 272.528 90.8092C272.553 90.7988 272.581 90.7932 272.608 90.7925C272.636 90.7919 272.663 90.7963 272.689 90.8056C272.714 90.8148 272.738 90.8286 272.757 90.8463C272.777 90.8639 272.793 90.885 272.803 90.9082C273.202 91.6525 273.782 92.3027 274.498 92.8084C275.215 93.3141 276.049 93.6617 276.936 93.8242C276.963 93.8295 276.989 93.8398 277.012 93.8546C277.035 93.8694 277.054 93.8883 277.069 93.9102C277.084 93.9321 277.093 93.9565 277.097 93.982C277.101 94.0074 277.1 94.0334 277.093 94.0582C277.081 94.1071 277.048 94.1498 277.002 94.1768C276.956 94.2038 276.901 94.2129 276.847 94.2022C276.574 94.1493 276.305 94.0802 276.042 93.9952Z" fill="#263238"/>
<path d="M274.001 80.8102C273.94 80.7771 273.89 80.7307 273.854 80.6752C273.823 80.6334 273.801 80.5864 273.79 80.5369C273.779 80.4874 273.779 80.4364 273.79 80.3869C273.801 80.3374 273.823 80.2904 273.854 80.2487C273.885 80.207 273.925 80.1715 273.972 80.1442C274.523 79.8056 275.157 79.5958 275.817 79.5331C276.478 79.4703 277.145 79.5565 277.76 79.7842C277.811 79.806 277.856 79.8367 277.893 79.8746C277.93 79.9124 277.959 79.9566 277.978 80.0047C277.997 80.0527 278.005 80.1037 278.002 80.1547C277.999 80.2056 277.985 80.2556 277.962 80.3017C277.938 80.3477 277.904 80.3891 277.863 80.4233C277.822 80.4575 277.773 80.484 277.721 80.5011C277.669 80.5182 277.613 80.5257 277.557 80.5232C277.502 80.5206 277.447 80.508 277.397 80.4862C276.916 80.3149 276.397 80.2533 275.884 80.3066C275.371 80.3599 274.88 80.5265 274.453 80.7922C274.387 80.8341 274.31 80.858 274.23 80.8612C274.15 80.8644 274.07 80.8467 274.001 80.8102Z" fill="#263238"/>
<path d="M284.807 83.2309C284.788 83.1691 284.788 83.1037 284.807 83.0419C284.851 82.9479 284.933 82.8734 285.036 82.8347C285.139 82.7959 285.254 82.796 285.357 82.8349C285.975 83.055 286.524 83.4117 286.956 83.8733C287.387 84.3349 287.688 84.8871 287.83 85.4809C287.833 85.5742 287.799 85.6651 287.734 85.7371C287.669 85.809 287.578 85.857 287.478 85.8724C287.378 85.8877 287.275 85.8693 287.188 85.8205C287.101 85.7717 287.037 85.6959 287.006 85.6069C286.884 85.1439 286.641 84.7148 286.3 84.356C285.958 83.9972 285.527 83.7193 285.043 83.5459C284.977 83.5166 284.921 83.4721 284.88 83.4169C284.838 83.3617 284.813 83.2976 284.807 83.2309Z" fill="#263238"/>
<path d="M236.28 106.73C235.2 107.954 234.258 109.061 233.335 110.24C232.412 111.419 231.45 112.589 230.547 113.786C228.712 116.171 227.004 118.646 225.335 121.166C223.667 123.686 222.116 126.314 220.722 129.095C219.209 131.98 218.009 134.995 217.14 138.095C216.651 139.897 216.394 141.746 216.374 143.603C216.398 145.46 216.689 147.306 217.238 149.093C218.215 152.205 219.641 155.183 221.478 157.949C222.322 159.272 223.235 160.541 224.187 161.765C225.139 162.989 226.15 164.177 227.132 165.32C229.181 167.618 231.408 169.778 233.796 171.782C234.394 172.27 235.162 172.548 235.962 172.564C236.763 172.58 237.543 172.334 238.163 171.87C238.784 171.406 239.204 170.755 239.348 170.033C239.492 169.311 239.351 168.565 238.949 167.93L238.861 167.795C235.813 163.261 233.149 158.519 230.891 153.611C229.878 151.399 229.14 149.09 228.692 146.726C228.528 145.777 228.485 144.813 228.565 143.855C228.683 142.907 228.907 141.972 229.232 141.065C230.081 138.764 231.149 136.535 232.422 134.405C233.728 132.146 235.2 129.905 236.77 127.628C238.341 125.351 239.99 123.128 241.678 120.941L244.26 117.647C245.123 116.576 246.026 115.433 246.841 114.452L246.9 114.38C248.006 113.094 248.51 111.457 248.3 109.83C248.09 108.203 247.184 106.719 245.781 105.704C244.378 104.69 242.593 104.228 240.818 104.42C239.044 104.613 237.425 105.444 236.319 106.73H236.28Z" fill="#9395FF"/>
<path d="M329.802 173.123L246.292 169.658C246.029 169.642 245.765 169.675 245.516 169.755C245.266 169.835 245.037 169.961 244.842 170.124C244.647 170.287 244.49 170.484 244.38 170.704C244.27 170.924 244.209 171.162 244.202 171.404L331.706 175.004C331.718 174.766 331.678 174.527 331.588 174.303C331.498 174.079 331.361 173.873 331.184 173.698C331.006 173.523 330.793 173.382 330.556 173.283C330.318 173.184 330.062 173.13 329.802 173.123Z" fill="#9395FF"/>
<g opacity="0.6">
<path d="M329.802 173.123L246.292 169.658C246.029 169.642 245.765 169.675 245.516 169.755C245.266 169.835 245.037 169.961 244.842 170.124C244.647 170.287 244.49 170.484 244.38 170.704C244.27 170.924 244.209 171.162 244.202 171.404L331.706 175.004C331.718 174.766 331.678 174.527 331.588 174.303C331.498 174.079 331.361 173.873 331.184 173.698C331.006 173.523 330.793 173.382 330.556 173.283C330.318 173.184 330.062 173.13 329.802 173.123Z" fill="white"/>
</g>
<path d="M343.092 137.6L283.679 135.134C283.298 135.138 282.928 135.251 282.619 135.455C282.309 135.66 282.077 135.947 281.952 136.277L270.546 169.46C270.485 169.597 270.461 169.746 270.478 169.893C270.494 170.04 270.55 170.182 270.64 170.305C270.73 170.428 270.852 170.528 270.995 170.597C271.138 170.667 271.297 170.703 271.459 170.702L330.872 173.168C331.25 173.165 331.619 173.054 331.927 172.851C332.234 172.648 332.466 172.362 332.589 172.034L343.995 138.842C344.056 138.705 344.079 138.557 344.064 138.411C344.048 138.264 343.993 138.123 343.904 138.001C343.814 137.878 343.694 137.777 343.552 137.707C343.411 137.637 343.252 137.601 343.092 137.6Z" fill="#9395FF"/>
<path opacity="0.6" d="M343.092 137.6L283.679 135.134C283.298 135.138 282.928 135.251 282.619 135.455C282.309 135.66 282.077 135.947 281.952 136.277L270.546 169.46C270.485 169.597 270.461 169.746 270.478 169.893C270.494 170.04 270.55 170.182 270.64 170.305C270.73 170.428 270.852 170.528 270.995 170.597C271.138 170.667 271.297 170.703 271.459 170.702L330.872 173.168C331.25 173.165 331.619 173.054 331.927 172.851C332.234 172.648 332.466 172.362 332.589 172.034L343.995 138.842C344.056 138.705 344.079 138.557 344.064 138.411C344.048 138.264 343.993 138.123 343.904 138.001C343.814 137.878 343.694 137.777 343.552 137.707C343.411 137.637 343.252 137.601 343.092 137.6Z" fill="white"/>
<path opacity="0.5" d="M281.932 136.268L270.526 169.451C270.463 169.588 270.437 169.738 270.453 169.887C270.468 170.036 270.524 170.178 270.614 170.303C270.705 170.427 270.828 170.528 270.972 170.598C271.116 170.668 271.276 170.703 271.439 170.702L283.659 135.125C283.278 135.13 282.908 135.242 282.599 135.446C282.29 135.651 282.057 135.938 281.932 136.268Z" fill="#9395FF"/>
<path opacity="0.5" d="M268.248 170.567L246.291 169.667C246.028 169.651 245.764 169.684 245.514 169.764C245.265 169.844 245.036 169.969 244.841 170.132C244.646 170.295 244.489 170.493 244.379 170.713C244.268 170.933 244.208 171.171 244.201 171.413L270.153 172.484C270.17 172.242 270.134 172 270.047 171.772C269.959 171.543 269.823 171.333 269.645 171.154C269.467 170.975 269.252 170.831 269.012 170.73C268.772 170.629 268.512 170.574 268.248 170.567Z" fill="#9395FF"/>
<path d="M240.511 167.552L246.125 168.299L240.374 175.634C240.374 175.634 231.236 174.293 232.296 170.576L234.259 169.082C235.126 168.44 236.131 167.973 237.208 167.709C238.285 167.445 239.41 167.392 240.511 167.552Z" fill="#FF8B7B"/>
<path d="M252.997 170.495L245.959 176.12L240.374 175.634L246.126 168.299L252.997 170.495Z" fill="#FF8B7B"/>
</g>
<defs>
<clipPath id="clip0_393_200">
<rect width="490.77" height="400" fill="white" transform="matrix(-1 0 0 1 491 0)"/>
</clipPath>
</defs>
</svg>
