<svg width="32" height="30" viewBox="0 0 32 30" fill="none" xmlns="http://www.w3.org/2000/svg">
<path d="M15.5087 4.79378C11.4235 3.99227 7.06923 5.69927 3.97717 9.47044C3.76624 9.72749 3.78911 10.095 4.03043 10.3262L7.23846 13.3999C9.38914 10.0465 12.1976 7.12395 15.5087 4.79378Z" fill="#FEDC5A"/>
<path d="M19.0107 24.496L22.2834 27.5151C22.5283 27.741 22.9175 27.7625 23.1898 27.565C27.2088 24.6513 29.0182 20.5447 28.1295 16.7C25.6585 19.813 22.5629 22.4596 19.0107 24.496H19.0107Z" fill="#FEDC5A"/>
<path fill-rule="evenodd" clip-rule="evenodd" d="M31.1425 0.200955C31.3352 0.190621 31.523 0.260459 31.6563 0.392C31.7914 0.519196 31.8631 0.694323 31.8536 0.874069C30.8039 18.27 14.6849 24.2987 14.5213 24.3579C14.4441 24.3859 14.3621 24.4002 14.2793 24.3999C14.1001 24.3999 13.9282 24.3328 13.8015 24.2134L6.36618 17.2084C6.17832 17.0316 6.11777 16.7675 6.21139 16.5334C6.27358 16.3793 12.5936 1.11351 31.1425 0.200955ZM15.6318 12.9372C15.6318 14.3441 16.8423 15.4845 18.3356 15.4845C19.8288 15.4845 21.0393 14.3441 21.0393 12.9372C21.0393 11.5304 19.8288 10.39 18.3356 10.39C16.8423 10.39 15.6318 11.5304 15.6318 12.9372Z" fill="#FEDC5A"/>
<path d="M8.40916 23.2395C6.72453 21.8534 3.99707 21.8534 2.31244 23.2395C0.762761 24.5167 0.372646 28.785 0.331694 29.2679C0.318348 29.4317 0.388108 29.5928 0.524316 29.7126C0.660523 29.8325 0.850954 29.9003 1.05014 29.8999H1.09827C1.68381 29.8668 6.86019 29.5445 8.40916 28.2679C10.0911 26.8786 10.0911 24.6287 8.40916 23.2395Z" fill="#FEDC5A"/>
</svg>
